{
.appVersion = "1206";
copyright = "Copyright © 2019 by Noir Blanc Rouge. All rights reserved.";
customParameters = (
{
name = panose;
value = (
0,
0,
7,
0,
0,
0,
0,
0,
0,
0
);
},
{
name = unicodeRanges;
value = (
0,
1,
2
);
},
{
name = codePageRanges;
value = (
1252,
1250,
1254,
1257
);
},
{
name = blueScale;
value = 0.037;
},
{
name = glyphOrder;
value = (
.notdef,
A,
Aacute,
Abreve,
Acircumflex,
Adieresis,
Agrave,
Amacron,
Aogonek,
Aring,
Atilde,
AE,
B,
C,
Cacute,
Ccaron,
Ccedilla,
Cdotaccent,
D,
Eth,
Dcaron,
Dcroat,
E,
Eacute,
Ecaron,
Ecircumflex,
Edieresis,
Edotaccent,
Egrave,
Emacron,
Eogonek,
F,
G,
Gbreve,
Gcommaaccent,
Gdotaccent,
H,
Hbar,
I,
IJ,
Iacute,
Icircumflex,
Idieresis,
Idotaccent,
Igrave,
Imacron,
Iogonek,
J,
K,
Kcommaaccent,
L,
Lacute,
Lcaron,
Lcommaaccent,
Ldot,
Lslash,
M,
N,
Nacute,
Ncaron,
Ncommaaccent,
Eng,
Ntilde,
O,
Oacute,
Ocircumflex,
Odieresis,
Ograve,
Ohungarumlaut,
Omacron,
Oslash,
Otilde,
OE,
P,
Thorn,
Q,
R,
Racute,
Rcaron,
Rcommaaccent,
S,
Sacute,
Scaron,
Scedilla,
Scommaaccent,
T,
Tbar,
Tcaron,
Tcedilla,
uni021A,
U,
Uacute,
Ucircumflex,
Udieresis,
Ugrave,
Uhungarumlaut,
Umacron,
Uogonek,
Uring,
V,
W,
Wacute,
Wcircumflex,
Wdieresis,
Wgrave,
X,
Y,
Yacute,
Ycircumflex,
Ydieresis,
Ygrave,
Z,
Zacute,
Zcaron,
Zdotaccent,
a,
aacute,
abreve,
acircumflex,
adieresis,
agrave,
amacron,
aogonek,
aring,
atilde,
ae,
b,
c,
cacute,
ccaron,
ccedilla,
cdotaccent,
d,
eth,
dcaron,
dcroat,
e,
eacute,
ecaron,
ecircumflex,
edieresis,
edotaccent,
egrave,
emacron,
eogonek,
f,
g,
gbreve,
gcommaaccent,
gdotaccent,
h,
hbar,
i,
dotlessi,
iacute,
icircumflex,
idieresis,
igrave,
ij,
imacron,
iogonek,
j,
k,
kcommaaccent,
l,
lacute,
lcaron,
lcommaaccent,
ldot,
lslash,
m,
n,
nacute,
ncaron,
ncommaaccent,
eng,
ntilde,
o,
oacute,
ocircumflex,
odieresis,
ograve,
ohungarumlaut,
omacron,
oslash,
otilde,
oe,
p,
thorn,
q,
r,
racute,
rcaron,
rcommaaccent,
s,
sacute,
scaron,
scedilla,
scommaaccent,
germandbls,
t,
tbar,
tcaron,
tcedilla,
uni021B,
u,
uacute,
ucircumflex,

glyphs = (
{
glyphname = .notdef;
layers = (
{
hints = (
{
horizontal = 1;
place = "{0, 50}";
type = Stem;
},
{
horizontal = 1;
place = "{650, 50}";
type = Stem;
},
{
place = "{0, 50}";
type = Stem;
},
{
place = "{450, 50}";
type = Stem;
}
);
layerId = "6AD408C6-91F3-4F0B-A103-73D10F5280D9";
paths = (
{
closed = 1;
nodes = (
"0 0 LINE",
"500 0 LINE",
"500 700 LINE",
"0 700 LINE"
);
},
{
closed = 1;
nodes = (
"250 395 LINE",
"80 650 LINE",
"420 650 LINE"
);
},
{
closed = 1;
nodes = (
"280 350 LINE",
"450 605 LINE",
"450 95 LINE"
);
},
{
closed = 1;
nodes = (
"80 50 LINE",
"250 305 LINE",
"420 50 LINE"
);
},
{
closed = 1;
nodes = (
"50 605 LINE",
"220 350 LINE",
"50 95 LINE"
);
}
);
width = 500;
}
);
note = .notdef;
},
{
glyphname = A;
layers = (
{
hints = (
{
horizontal = 1;
place = "{0, 60}";
type = Stem;
},
{
horizontal = 1;
place = "{239.56, 87}";
type = Stem;
},
{
horizontal = 1;
place = "{749.56, -20}";
target = down;
type = TopGhost;
},
{
place = "{6, 773.9}";
type = Stem;
},
{
horizontal = 1;
place = "{619.42, 130.14}";
type = Stem;
}
);
layerId = "6AD408C6-91F3-4F0B-A103-73D10F5280D9";
paths = (
{
closed = 1;
nodes = (
"465.71 737.57 LINE SMOOTH",
"462.57 745.68 OFFCURVE",
"457.27 749.56 OFFCURVE",
"448.56 749.56 CURVE SMOOTH",
"328.2 749.56 LINE SMOOTH",
"319.46 749.56 OFFCURVE",
"314.15 745.63 OFFCURVE",
"311.12 737.43 CURVE SMOOTH",
"95.55 155.08 LINE SMOOTH",
"76.25 102.93 OFFCURVE",
"64.89 60 OFFCURVE",
"21 60 CURVE SMOOTH",
"11.25 60 OFFCURVE",
"6 54.75 OFFCURVE",
"6 45 CURVE SMOOTH",
"6 15 LINE SMOOTH",
"6 5.25 OFFCURVE",
"11.25 0 OFFCURVE",
"21 0 CURVE SMOOTH",
"269.62 0 LINE SMOOTH",
"279.37 0 OFFCURVE",
"284.62 5.25 OFFCURVE",
"284.62 15 CURVE SMOOTH",
"284.62 45 LINE SMOOTH",
"284.62 54.75 OFFCURVE",
"279.37 60 OFFCURVE",
"269.62 60 CURVE SMOOTH",
"228.69 60 OFFCURVE",
"191.66 89.47 OFFCURVE",
"191.66 130.18 CURVE SMOOTH",
"191.66 138.1 OFFCURVE",
"193.06 146.45 OFFCURVE",
"196.1 155.08 CURVE SMOOTH",
"225.88 239.56 LINE",
"499.71 239.56 LINE",
"530.83 155.08 LINE SMOOTH",
"534.15 146.05 OFFCURVE",
"535.68 137.36 OFFCURVE",
"535.68 129.14 CURVE SMOOTH",
"535.68 88.79 OFFCURVE",
"498.9 60 OFFCURVE",
"458.28 60 CURVE SMOOTH",
"448.53 60 OFFCURVE",
"443.28 54.75 OFFCURVE",
"443.28 45 CURVE SMOOTH",
"443.28 15 LINE SMOOTH",
"443.28 5.25 OFFCURVE",
"448.53 0 OFFCURVE",
"458.28 0 CURVE SMOOTH",
"764.9 0 LINE SMOOTH",
"774.65 0 OFFCURVE",
"779.9 5.25 OFFCURVE",
"779.9 15 CURVE SMOOTH",
"779.9 45 LINE SMOOTH",
"779.9 54.75 OFFCURVE",
"774.65 60 OFFCURVE",
"764.9 60 CURVE SMOOTH",
"723.01 60 OFFCURVE",
"711.14 104.09 OFFCURVE",
"691.38 155.08 CURVE SMOOTH"
);
},
{
closed = 1;
nodes = (
"359.8 619.42 LINE",
"467.67 326.56 LINE",
"256.55 326.56 LINE"
);
}
);
width = 786;
}
);
leftKerningGroup = A;
note = A;
rightKerningGroup = A;
unicode = 0041;
},
{
glyphname = Aacute;
layers = (
{
hints = (
{
horizontal = 1;
place = "{0, 60}";
type = Stem;
},
{
horizontal = 1;
place = "{239.56, 87}";
type = Stem;
},
{
horizontal = 1;
place = "{749.56, -20}";
target = down;
type = TopGhost;
},
{
place = "{6, 773.9}";
type = Stem;
},
{
horizontal = 1;
place = "{619.42, 130.14}";
type = Stem;
}
);
layerId = "6AD408C6-91F3-4F0B-A103-73D10F5280D9";
paths = (
{
closed = 1;
nodes = (
"353.98 808.98 LINE SMOOTH",
"357.31 807.38 OFFCURVE",
"360.3 806.56 OFFCURVE",
"363.4 806.56 CURVE SMOOTH",
"365.59 806.56 OFFCURVE",
"367.84 806.97 OFFCURVE",
"370.29 807.81 CURVE SMOOTH",
"430.02 828.25 OFFCURVE",
"531.1 888.29 OFFCURVE",
"531.1 970.21 CURVE SMOOTH",
"531.1 1005.09 OFFCURVE",
"499.51 1021.11 OFFCURVE",
"461.31 1021.11 CURVE SMOOTH",
"455.07 1021.11 OFFCURVE",
"448.65 1020.68 OFFCURVE",
"442.17 1019.84 CURVE SMOOTH",
"432.12 1018.53 OFFCURVE",
"427.07 1013.94 OFFCURVE",
"424.51 1007.16 CURVE SMOOTH",
"399.58 941.68 OFFCURVE",
"380.95 907.49 OFFCURVE",
"317.59 826.48 CURVE"
);
},
{
closed = 1;
nodes = (
"465.71 737.57 LINE SMOOTH",
"462.57 745.68 OFFCURVE",
"457.27 749.56 OFFCURVE",
"448.56 749.56 CURVE SMOOTH",
"328.2 749.56 LINE SMOOTH",
"319.46 749.56 OFFCURVE",
"314.15 745.63 OFFCURVE",
"311.12 737.43 CURVE SMOOTH",
"95.55 155.08 LINE SMOOTH",
"76.25 102.93 OFFCURVE",
"64.89 60 OFFCURVE",
"21 60 CURVE SMOOTH",
"11.25 60 OFFCURVE",
"6 54.75 OFFCURVE",
"6 45 CURVE SMOOTH",
"6 15 LINE SMOOTH",
"6 5.25 OFFCURVE",
"11.25 0 OFFCURVE",
"21 0 CURVE SMOOTH",
"269.62 0 LINE SMOOTH",
"279.37 0 OFFCURVE",
"284.62 5.25 OFFCURVE",
"284.62 15 CURVE SMOOTH",
"284.62 45 LINE SMOOTH",
"284.62 54.75 OFFCURVE",
"279.37 60 OFFCURVE",
"269.62 60 CURVE SMOOTH",
"228.69 60 OFFCURVE",
"191.66 89.47 OFFCURVE",
"191.66 130.18 CURVE SMOOTH",
"191.66 138.1 OFFCURVE",
"193.06 146.45 OFFCURVE",
"196.1 155.08 CURVE SMOOTH",
"225.88 239.56 LINE",
"499.71 239.56 LINE",
"530.83 155.08 LINE SMOOTH",
"534.15 146.05 OFFCURVE",
"535.68 137.36 OFFCURVE",
"535.68 129.14 CURVE SMOOTH",
"535.68 88.79 OFFCURVE",
"498.9 60 OFFCURVE",
"458.28 60 CURVE SMOOTH",
"448.53 60 OFFCURVE",
"443.28 54.75 OFFCURVE",
"443.28 45 CURVE SMOOTH",
"443.28 15 LINE SMOOTH",
"443.28 5.25 OFFCURVE",
"448.53 0 OFFCURVE",
"458.28 0 CURVE SMOOTH",
"764.9 0 LINE SMOOTH",
"774.65 0 OFFCURVE",
"779.9 5.25 OFFCURVE",
"779.9 15 CURVE SMOOTH",
"779.9 45 LINE SMOOTH",
"779.9 54.75 OFFCURVE",
"774.65 60 OFFCURVE",
"764.9 60 CURVE SMOOTH",
"723.01 60 OFFCURVE",
"711.14 104.09 OFFCURVE",
"691.38 155.08 CURVE SMOOTH"
);
},
{
closed = 1;
nodes = (
"359.8 619.42 LINE",
"467.67 326.56 LINE",
"256.55 326.56 LINE"
);
}
);
width = 786;
}
);
leftKerningGroup = A;
note = Aacute;
rightKerningGroup = A;
unicode = 00C1;
},
{
glyphname = Abreve;
layers = (
{
hints = (
{
horizontal = 1;
place = "{0, 60}";
type = Stem;
},
{
horizontal = 1;
place = "{239.56, 87}";
type = Stem;
},
{
horizontal = 1;
place = "{749.56, -20}";
target = down;
type = TopGhost;
},
{
horizontal = 1;
place = "{829.87, 81.17}";
type = Stem;
},
{
place = "{6, 773.9}";
type = Stem;
},
{
horizontal = 1;
place = "{619.42, 130.14}";
type = Stem;
}
);
layerId = "6AD408C6-91F3-4F0B-A103-73D10F5280D9";
paths = (
{
closed = 1;
nodes = (
"483.65 990.8 LINE SMOOTH",
"472.1 992.3 OFFCURVE",
"465.46 987.12 OFFCURVE",
"463.46 975.53 CURVE SMOOTH",
"455.1 927.21 OFFCURVE",
"426.91 911.04 OFFCURVE",
"392.92 911.04 CURVE SMOOTH",
"358.93 911.04 OFFCURVE",
"330.74 927.21 OFFCURVE",
"322.38 975.53 CURVE SMOOTH",
"320.61 985.82 OFFCURVE",
"315.18 991.05 OFFCURVE",
"305.9 991.05 CURVE",
"302.19 990.8 LINE",
"244.09 983.25 LINE SMOOTH",
"233.81 981.92 OFFCURVE",
"227.65 976.28 OFFCURVE",
"227.65 966.83 CURVE",
"227.88 963.52 LINE",
"237.93 890.08 OFFCURVE",
"310.16 829.87 OFFCURVE",
"392.92 829.87 CURVE SMOOTH",
"475.68 829.87 OFFCURVE",
"547.91 890.08 OFFCURVE",
"557.96 963.52 CURVE SMOOTH",
"559.52 974.96 OFFCURVE",
"553.18 981.77 OFFCURVE",
"541.75 983.25 CURVE SMOOTH"
);
},
{
closed = 1;
nodes = (
"465.71 737.57 LINE SMOOTH",
"462.57 745.68 OFFCURVE",
"457.27 749.56 OFFCURVE",
"448.56 749.56 CURVE SMOOTH",
"328.2 749.56 LINE SMOOTH",
"319.46 749.56 OFFCURVE",
"314.15 745.63 OFFCURVE",
"311.12 737.43 CURVE SMOOTH",
"95.55 155.08 LINE SMOOTH",
"76.25 102.93 OFFCURVE",
"64.89 60 OFFCURVE",
"21 60 CURVE SMOOTH",
"11.25 60 OFFCURVE",
"6 54.75 OFFCURVE",
"6 45 CURVE SMOOTH",
"6 15 LINE SMOOTH",
"6 5.25 OFFCURVE",
"11.25 0 OFFCURVE",
"21 0 CURVE SMOOTH",
"269.62 0 LINE SMOOTH",
"279.37 0 OFFCURVE",
"284.62 5.25 OFFCURVE",
"284.62 15 CURVE SMOOTH",
"284.62 45 LINE SMOOTH",
"284.62 54.75 OFFCURVE",
"279.37 60 OFFCURVE",
"269.62 60 CURVE SMOOTH",
"228.69 60 OFFCURVE",
"191.66 89.47 OFFCURVE",
"191.66 130.18 CURVE SMOOTH",
"191.66 138.1 OFFCURVE",
"193.06 146.45 OFFCURVE",
"196.1 155.08 CURVE SMOOTH",
"225.88 239.56 LINE",
"499.71 239.56 LINE",
"530.83 155.08 LINE SMOOTH",
"534.15 146.05 OFFCURVE",
"535.68 137.36 OFFCURVE",
"535.68 129.14 CURVE SMOOTH",
"535.68 88.79 OFFCURVE",
"498.9 60 OFFCURVE",
"458.28 60 CURVE SMOOTH",
"448.53 60 OFFCURVE",
"443.28 54.75 OFFCURVE",
"443.28 45 CURVE SMOOTH",
"443.28 15 LINE SMOOTH",
"443.28 5.25 OFFCURVE",
"448.53 0 OFFCURVE",
"458.28 0 CURVE SMOOTH",
"764.9 0 LINE SMOOTH",
"774.65 0 OFFCURVE",
"779.9 5.25 OFFCURVE",
"779.9 15 CURVE SMOOTH",
"779.9 45 LINE SMOOTH",
"779.9 54.75 OFFCURVE",
"774.65 60 OFFCURVE",
"764.9 60 CURVE SMOOTH",
"723.01 60 OFFCURVE",
"711.14 104.09 OFFCURVE",
"691.38 155.08 CURVE SMOOTH"
);
},
{
closed = 1;
nodes = (
"359.8 619.42 LINE",
"467.67 326.56 LINE",
"256.55 326.56 LINE"
);
}
);
width = 786;
}
);
leftKerningGroup = A;
note = Abreve;
rightKerningGroup = A;
unicode = 0102;
},
{
glyphname = Acircumflex;
layers = (
{
hints = (
{
horizontal = 1;
place = "{0, 60}";
type = Stem;
},
{
horizontal = 1;
place = "{239.56, 87}";
type = Stem;
},
{
horizontal = 1;
place = "{749.56, -20}";
target = down;
type = TopGhost;
},
{
place = "{6, 773.9}";
type = Stem;
},
{
horizontal = 1;
place = "{619.42, 130.14}";
type = Stem;
}
);
layerId = "6AD408C6-91F3-4F0B-A103-73D10F5280D9";
paths = (
{
closed = 1;
nodes = (
"313.38 803.99 OFFCURVE",
"364.13 866.03 OFFCURVE",
"392.92 921.62 CURVE",
"421.72 866.03 OFFCURVE",
"472.47 803.99 OFFCURVE",
"536.65 803.99 CURVE SMOOTH",
"571.53 803.99 OFFCURVE",
"587.55 835.58 OFFCURVE",
"587.55 873.78 CURVE SMOOTH",
"587.55 880.02 OFFCURVE",
"587.12 886.44 OFFCURVE",
"586.28 892.92 CURVE SMOOTH",
"584.97 902.96 OFFCURVE",
"580.38 908.02 OFFCURVE",
"573.6 910.58 CURVE SMOOTH",
"508.12 935.51 OFFCURVE",
"473.94 954.13 OFFCURVE",
"392.92 1017.49 CURVE",
"311.91 954.13 OFFCURVE",
"277.72 935.51 OFFCURVE",
"212.24 910.58 CURVE SMOOTH",
"205.46 908.02 OFFCURVE",
"200.87 902.96 OFFCURVE",
"199.56 892.92 CURVE SMOOTH",
"198.72 886.44 OFFCURVE",
"198.29 880.02 OFFCURVE",
"198.29 873.78 CURVE SMOOTH",
"198.29 835.58 OFFCURVE",
"214.31 803.99 OFFCURVE",
"249.19 803.99 CURVE SMOOTH"
);
},
{
closed = 1;
nodes = (
"465.71 737.57 LINE SMOOTH",
"462.57 745.68 OFFCURVE",
"457.27 749.56 OFFCURVE",
"448.56 749.56 CURVE SMOOTH",
"328.2 749.56 LINE SMOOTH",
"319.46 749.56 OFFCURVE",
"314.15 745.63 OFFCURVE",
"311.12 737.43 CURVE SMOOTH",
"95.55 155.08 LINE SMOOTH",
"76.25 102.93 OFFCURVE",
"64.89 60 OFFCURVE",
"21 60 CURVE SMOOTH",
"11.25 60 OFFCURVE",
"6 54.75 OFFCURVE",
"6 45 CURVE SMOOTH",
"6 15 LINE SMOOTH",
"6 5.25 OFFCURVE",
"11.25 0 OFFCURVE",
"21 0 CURVE SMOOTH",
"269.62 0 LINE SMOOTH",
"279.37 0 OFFCURVE",
"284.62 5.25 OFFCURVE",
"284.62 15 CURVE SMOOTH",
"284.62 45 LINE SMOOTH",
"284.62 54.75 OFFCURVE",
"279.37 60 OFFCURVE",
"269.62 60 CURVE SMOOTH",
"228.69 60 OFFCURVE",
"191.66 89.47 OFFCURVE",
"191.66 130.18 CURVE SMOOTH",
"191.66 138.1 OFFCURVE",
"193.06 146.45 OFFCURVE",
"196.1 155.08 CURVE SMOOTH",
"225.88 239.56 LINE",
"499.71 239.56 LINE",
"530.83 155.08 LINE SMOOTH",
"534.15 146.05 OFFCURVE",
"535.68 137.36 OFFCURVE",
"535.68 129.14 CURVE SMOOTH",
"535.68 88.79 OFFCURVE",
"498.9 60 OFFCURVE",
"458.28 60 CURVE SMOOTH",
"448.53 60 OFFCURVE",
"443.28 54.75 OFFCURVE",
"443.28 45 CURVE SMOOTH",
"443.28 15 LINE SMOOTH",
"443.28 5.25 OFFCURVE",
"448.53 0 OFFCURVE",
"458.28 0 CURVE SMOOTH",
"764.9 0 LINE SMOOTH",
"774.65 0 OFFCURVE",
"779.9 5.25 OFFCURVE",
"779.9 15 CURVE SMOOTH",
"779.9 45 LINE SMOOTH",
"779.9 54.75 OFFCURVE",
"774.65 60 OFFCURVE",
"764.9 60 CURVE SMOOTH",
"723.01 60 OFFCURVE",
"711.14 104.09 OFFCURVE",
"691.38 155.08 CURVE SMOOTH"
);
},
{
closed = 1;
nodes = (
"359.8 619.42 LINE",
"467.67 326.56 LINE",
"256.55 326.56 LINE"
);
}
);
width = 786;
}
);
leftKerningGroup = A;
note = Acircumflex;
rightKerningGroup = A;
unicode = 00C2;
},
{
glyphname = Adieresis;
layers = (
{
hints = (
{
horizontal = 1;
place = "{0, 60}";
type = Stem;
},
{
horizontal = 1;
place = "{239.56, 87}";
type = Stem;
},
{
horizontal = 1;
place = "{749.56, -20}";
target = down;
type = TopGhost;
},
{
horizontal = 1;
place = "{838.44, 150.26}";
type = Stem;
},
{
place = "{202.88, 150.26}";
type = Stem;
},
{
place = "{435.6, 150.26}";
type = Stem;
},
{
horizontal = 1;
place = "{619.42, 130.14}";
type = Stem;
}
);
layerId = "6AD408C6-91F3-4F0B-A103-73D10F5280D9";
paths = (
{
closed = 1;
nodes = (
"295.87 838.44 OFFCURVE",
"310.38 845.67 OFFCURVE",
"328.14 863.44 CURVE SMOOTH",
"345.91 881.21 OFFCURVE",
"353.14 895.71 OFFCURVE",
"353.14 913.57 CURVE SMOOTH",
"353.14 931.43 OFFCURVE",
"345.91 945.93 OFFCURVE",
"328.14 963.7 CURVE SMOOTH",
"310.38 981.47 OFFCURVE",
"295.87 988.7 OFFCURVE",
"278.01 988.7 CURVE SMOOTH",
"260.15 988.7 OFFCURVE",
"245.65 981.47 OFFCURVE",
"227.88 963.7 CURVE SMOOTH",
"210.11 945.93 OFFCURVE",
"202.88 931.43 OFFCURVE",
"202.88 913.57 CURVE SMOOTH",
"202.88 895.71 OFFCURVE",
"210.11 881.21 OFFCURVE",
"227.88 863.44 CURVE SMOOTH",
"245.65 845.67 OFFCURVE",
"260.15 838.44 OFFCURVE",
"278.01 838.44 CURVE SMOOTH"
);
},
{
closed = 1;
nodes = (
"528.59 838.44 OFFCURVE",
"543.09 845.67 OFFCURVE",
"560.86 863.44 CURVE SMOOTH",
"578.63 881.21 OFFCURVE",
"585.86 895.71 OFFCURVE",
"585.86 913.57 CURVE SMOOTH",
"585.86 931.43 OFFCURVE",
"578.63 945.93 OFFCURVE",
"560.86 963.7 CURVE SMOOTH",
"543.09 981.47 OFFCURVE",
"528.59 988.7 OFFCURVE",
"510.73 988.7 CURVE SMOOTH",
"492.87 988.7 OFFCURVE",
"478.36 981.47 OFFCURVE",
"460.6 963.7 CURVE SMOOTH",
"442.83 945.93 OFFCURVE",
"435.6 931.43 OFFCURVE",
"435.6 913.57 CURVE SMOOTH",
"435.6 895.71 OFFCURVE",
"442.83 881.21 OFFCURVE",
"460.6 863.44 CURVE SMOOTH",
"478.36 845.67 OFFCURVE",
"492.87 838.44 OFFCURVE",
"510.73 838.44 CURVE SMOOTH"
);
},
{
closed = 1;
nodes = (
"465.71 737.57 LINE SMOOTH",
"462.57 745.68 OFFCURVE",
"457.27 749.56 OFFCURVE",
"448.56 749.56 CURVE SMOOTH",
"328.2 749.56 LINE SMOOTH",
"319.46 749.56 OFFCURVE",
"314.15 745.63 OFFCURVE",
"311.12 737.43 CURVE SMOOTH",
"95.55 155.08 LINE SMOOTH",
"76.25 102.93 OFFCURVE",
"64.89 60 OFFCURVE",
"21 60 CURVE SMOOTH",
"11.25 60 OFFCURVE",
"6 54.75 OFFCURVE",
"6 45 CURVE SMOOTH",
"6 15 LINE SMOOTH",
"6 5.25 OFFCURVE",
"11.25 0 OFFCURVE",
"21 0 CURVE SMOOTH",
"269.62 0 LINE SMOOTH",
"279.37 0 OFFCURVE",
"284.62 5.25 OFFCURVE",
"284.62 15 CURVE SMOOTH",
"284.62 45 LINE SMOOTH",
"284.62 54.75 OFFCURVE",
"279.37 60 OFFCURVE",
"269.62 60 CURVE SMOOTH",
"228.69 60 OFFCURVE",
"191.66 89.47 OFFCURVE",
"191.66 130.18 CURVE SMOOTH",
"191.66 138.1 OFFCURVE",
"193.06 146.45 OFFCURVE",
"196.1 155.08 CURVE SMOOTH",
"225.88 239.56 LINE",
"499.71 239.56 LINE",
"530.83 155.08 LINE SMOOTH",
"534.15 146.05 OFFCURVE",
"535.68 137.36 OFFCURVE",
"535.68 129.14 CURVE SMOOTH",
"535.68 88.79 OFFCURVE",
"498.9 60 OFFCURVE",
"458.28 60 CURVE SMOOTH",
"448.53 60 OFFCURVE",
"443.28 54.75 OFFCURVE",
"443.28 45 CURVE SMOOTH",
"443.28 15 LINE SMOOTH",
"443.28 5.25 OFFCURVE",
"448.53 0 OFFCURVE",
"458.28 0 CURVE SMOOTH",
"764.9 0 LINE SMOOTH",
"774.65 0 OFFCURVE",
"779.9 5.25 OFFCURVE",
"779.9 15 CURVE SMOOTH",
"779.9 45 LINE SMOOTH",
"779.9 54.75 OFFCURVE",
"774.65 60 OFFCURVE",
"764.9 60 CURVE SMOOTH",
"723.01 60 OFFCURVE",
"711.14 104.09 OFFCURVE",
"691.38 155.08 CURVE SMOOTH"
);
},
{
closed = 1;
nodes = (
"359.8 619.42 LINE",
"467.67 326.56 LINE",
"256.55 326.56 LINE"
);
}
);
width = 786;
}
);
leftKerningGroup = A;
note = Adieresis;
rightKerningGroup = A;
unicode = 00C4;
},
{
glyphname = Agrave;
layers = (
{
hints = (
{
horizontal = 1;
place = "{0, 60}";
type = Stem;
},
{
horizontal = 1;
place = "{239.56, 87}";
type = Stem;
},
{
horizontal = 1;
place = "{749.56, -20}";
target = down;
type = TopGhost;
},
{
place = "{6, 773.9}";
type = Stem;
},
{
horizontal = 1;
place = "{619.42, 130.14}";
type = Stem;
}
);
layerId = "6AD408C6-91F3-4F0B-A103-73D10F5280D9";
paths = (
{
closed = 1;
nodes = (
"466.31 826.48 LINE",
"402.95 907.49 OFFCURVE",
"384.32 941.68 OFFCURVE",
"359.4 1007.16 CURVE SMOOTH",
"356.84 1013.94 OFFCURVE",
"351.78 1018.53 OFFCURVE",
"341.73 1019.84 CURVE SMOOTH",
"335.25 1020.68 OFFCURVE",
"328.83 1021.11 OFFCURVE",
"322.59 1021.11 CURVE SMOOTH",
"284.39 1021.11 OFFCURVE",
"252.8 1005.09 OFFCURVE",
"252.8 970.21 CURVE SMOOTH",
"252.8 888.29 OFFCURVE",
"353.88 828.25 OFFCURVE",
"413.62 807.81 CURVE SMOOTH",
"419.51 805.79 OFFCURVE",
"424.23 806.24 OFFCURVE",
"429.92 808.98 CURVE SMOOTH"
);
},
{
closed = 1;
nodes = (
"465.71 737.57 LINE SMOOTH",
"462.57 745.68 OFFCURVE",
"457.27 749.56 OFFCURVE",
"448.56 749.56 CURVE SMOOTH",
"328.2 749.56 LINE SMOOTH",
"319.46 749.56 OFFCURVE",
"314.15 745.63 OFFCURVE",
"311.12 737.43 CURVE SMOOTH",
"95.55 155.08 LINE SMOOTH",
"76.25 102.93 OFFCURVE",
"64.89 60 OFFCURVE",
"21 60 CURVE SMOOTH",
"11.25 60 OFFCURVE",
"6 54.75 OFFCURVE",
"6 45 CURVE SMOOTH",
"6 15 LINE SMOOTH",
"6 5.25 OFFCURVE",
"11.25 0 OFFCURVE",
"21 0 CURVE SMOOTH",
"269.62 0 LINE SMOOTH",
"279.37 0 OFFCURVE",
"284.62 5.25 OFFCURVE",
"284.62 15 CURVE SMOOTH",
"284.62 45 LINE SMOOTH",
"284.62 54.75 OFFCURVE",
"279.37 60 OFFCURVE",
"269.62 60 CURVE SMOOTH",
"228.69 60 OFFCURVE",
"191.66 89.47 OFFCURVE",
"191.66 130.18 CURVE SMOOTH",
"191.66 138.1 OFFCURVE",
"193.06 146.45 OFFCURVE",
"196.1 155.08 CURVE SMOOTH",
"225.88 239.56 LINE",
"499.71 239.56 LINE",
"530.83 155.08 LINE SMOOTH",
"534.15 146.05 OFFCURVE",
"535.68 137.36 OFFCURVE",
"535.68 129.14 CURVE SMOOTH",
"535.68 88.79 OFFCURVE",
"498.9 60 OFFCURVE",
"458.28 60 CURVE SMOOTH",
"448.53 60 OFFCURVE",
"443.28 54.75 OFFCURVE",
"443.28 45 CURVE SMOOTH",
"443.28 15 LINE SMOOTH",
"443.28 5.25 OFFCURVE",
"448.53 0 OFFCURVE",
"458.28 0 CURVE SMOOTH",
"764.9 0 LINE SMOOTH",
"774.65 0 OFFCURVE",
"779.9 5.25 OFFCURVE",
"779.9 15 CURVE SMOOTH",
"779.9 45 LINE SMOOTH",
"779.9 54.75 OFFCURVE",
"774.65 60 OFFCURVE",
"764.9 60 CURVE SMOOTH",
"723.01 60 OFFCURVE",
"711.14 104.09 OFFCURVE",
"691.38 155.08 CURVE SMOOTH"
);
},
{
closed = 1;
nodes = (
"359.8 619.42 LINE",
"467.67 326.56 LINE",
"256.55 326.56 LINE"
);
}
);
width = 786;
}
);
leftKerningGroup = A;
note = Agrave;
rightKerningGroup = A;
unicode = 00C0;
},
{
glyphname = Amacron;
layers = (
{
hints = (
{
horizontal = 1;
place = "{0, 60}";
type = Stem;
},
{
horizontal = 1;
place = "{239.56, 87}";
type = Stem;
},
{
horizontal = 1;
place = "{749.56, -20}";
target = down;
type = TopGhost;
},
{
horizontal = 1;
place = "{858.63, 90.12}";
type = Stem;
},
{
place = "{6, 773.9}";
type = Stem;
},
{
horizontal = 1;
place = "{619.42, 130.14}";
type = Stem;
}
);
layerId = "6AD408C6-91F3-4F0B-A103-73D10F5280D9";
paths = (
{
closed = 1;
nodes = (
"527.58 858.63 LINE SMOOTH",
"537.33 858.63 OFFCURVE",
"542.58 863.88 OFFCURVE",
"542.58 873.63 CURVE SMOOTH",
"542.58 933.75 LINE SMOOTH",
"542.58 943.5 OFFCURVE",
"537.33 948.75 OFFCURVE",
"527.58 948.75 CURVE SMOOTH",
"260.1 948.75 LINE SMOOTH",
"250.35 948.75 OFFCURVE",
"245.1 943.5 OFFCURVE",
"245.1 933.75 CURVE SMOOTH",
"245.1 873.63 LINE SMOOTH",
"245.1 863.88 OFFCURVE",
"250.35 858.63 OFFCURVE",
"260.1 858.63 CURVE SMOOTH"
);
},
{
closed = 1;
nodes = (
"465.71 737.57 LINE SMOOTH",
"462.57 745.68 OFFCURVE",
"457.27 749.56 OFFCURVE",
"448.56 749.56 CURVE SMOOTH",
"328.2 749.56 LINE SMOOTH",
"319.46 749.56 OFFCURVE",
"314.15 745.63 OFFCURVE",
"311.12 737.43 CURVE SMOOTH",
"95.55 155.08 LINE SMOOTH",
"76.25 102.93 OFFCURVE",
"64.89 60 OFFCURVE",
"21 60 CURVE SMOOTH",
"11.25 60 OFFCURVE",
"6 54.75 OFFCURVE",
"6 45 CURVE SMOOTH",
"6 15 LINE SMOOTH",
"6 5.25 OFFCURVE",
"11.25 0 OFFCURVE",
"21 0 CURVE SMOOTH",
"269.62 0 LINE SMOOTH",
"279.37 0 OFFCURVE",
"284.62 5.25 OFFCURVE",
"284.62 15 CURVE SMOOTH",
"284.62 45 LINE SMOOTH",
"284.62 54.75 OFFCURVE",
"279.37 60 OFFCURVE",
"269.62 60 CURVE SMOOTH",
"228.69 60 OFFCURVE",
"191.66 89.47 OFFCURVE",
"191.66 130.18 CURVE SMOOTH",
"191.66 138.1 OFFCURVE",
"193.06 146.45 OFFCURVE",
"196.1 155.08 CURVE SMOOTH",
"225.88 239.56 LINE",
"499.71 239.56 LINE",
"530.83 155.08 LINE SMOOTH",
"534.15 146.05 OFFCURVE",
"535.68 137.36 OFFCURVE",
"535.68 129.14 CURVE SMOOTH",
"535.68 88.79 OFFCURVE",
"498.9 60 OFFCURVE",
"458.28 60 CURVE SMOOTH",
"448.53 60 OFFCURVE",
"443.28 54.75 OFFCURVE",
"443.28 45 CURVE SMOOTH",
"443.28 15 LINE SMOOTH",
"443.28 5.25 OFFCURVE",
"448.53 0 OFFCURVE",
"458.28 0 CURVE SMOOTH",
"764.9 0 LINE SMOOTH",
"774.65 0 OFFCURVE",
"779.9 5.25 OFFCURVE",
"779.9 15 CURVE SMOOTH",
"779.9 45 LINE SMOOTH",
"779.9 54.75 OFFCURVE",
"774.65 60 OFFCURVE",
"764.9 60 CURVE SMOOTH",
"723.01 60 OFFCURVE",
"711.14 104.09 OFFCURVE",
"691.38 155.08 CURVE SMOOTH"
);
},
{
closed = 1;
nodes = (
"359.8 619.42 LINE",
"467.67 326.56 LINE",
"256.55 326.56 LINE"
);
}
);
width = 786;
}
);
leftKerningGroup = A;
note = Amacron;
rightKerningGroup = A;
unicode = 0100;
},
{
glyphname = Aogonek;
layers = (
{
hints = (
{
horizontal = 1;
place = "{-252.96, 77}";
type = Stem;
},
{
horizontal = 1;
place = "{0, 60}";
type = Stem;
},
{
horizontal = 1;
place = "{239.56, 87}";
type = Stem;
},
{
horizontal = 1;
place = "{749.56, -20}";
target = down;
type = TopGhost;
},
{
place = "{569.76, 99.11}";
type = Stem;
},
{
horizontal = 1;
place = "{619.42, 130.14}";
type = Stem;
}
);
layerId = "6AD408C6-91F3-4F0B-A103-73D10F5280D9";
paths = (
{
closed = 1;
nodes = (
"779.9 45 LINE SMOOTH",
"779.9 54.75 OFFCURVE",
"774.65 60 OFFCURVE",
"764.9 60 CURVE SMOOTH",
"723.01 60 OFFCURVE",
"711.14 104.09 OFFCURVE",
"691.38 155.08 CURVE SMOOTH",
"465.71 737.57 LINE SMOOTH",
"462.57 745.68 OFFCURVE",
"457.27 749.56 OFFCURVE",
"448.56 749.56 CURVE SMOOTH",
"328.2 749.56 LINE SMOOTH",
"319.46 749.56 OFFCURVE",
"314.15 745.63 OFFCURVE",
"311.12 737.43 CURVE SMOOTH",
"95.55 155.08 LINE SMOOTH",
"76.25 102.93 OFFCURVE",
"64.89 60 OFFCURVE",
"21 60 CURVE SMOOTH",
"11.25 60 OFFCURVE",
"6 54.75 OFFCURVE",
"6 45 CURVE SMOOTH",
"6 15 LINE SMOOTH",
"6 5.25 OFFCURVE",
"11.25 0 OFFCURVE",
"21 0 CURVE SMOOTH",
"269.62 0 LINE SMOOTH",
"279.37 0 OFFCURVE",
"284.62 5.25 OFFCURVE",
"284.62 15 CURVE SMOOTH",
"284.62 45 LINE SMOOTH",
"284.62 54.75 OFFCURVE",
"279.37 60 OFFCURVE",
"269.62 60 CURVE SMOOTH",
"228.69 60 OFFCURVE",
"191.66 89.47 OFFCURVE",
"191.66 130.18 CURVE SMOOTH",
"191.66 138.1 OFFCURVE",
"193.06 146.45 OFFCURVE",
"196.1 155.08 CURVE SMOOTH",
"225.88 239.56 LINE",
"499.71 239.56 LINE",
"530.83 155.08 LINE SMOOTH",
"534.15 146.05 OFFCURVE",
"535.68 137.36 OFFCURVE",
"535.68 129.14 CURVE SMOOTH",
"535.68 88.79 OFFCURVE",
"498.9 60 OFFCURVE",
"458.28 60 CURVE SMOOTH",
"448.53 60 OFFCURVE",
"443.28 54.75 OFFCURVE",
"443.28 45 CURVE SMOOTH",
"443.28 15 LINE SMOOTH",
"443.28 5.25 OFFCURVE",
"448.53 0 OFFCURVE",
"458.28 0 CURVE SMOOTH",
"618.02 0 LINE",
"590.64 -23.81 OFFCURVE",
"569.76 -57.7 OFFCURVE",
"569.76 -104.96 CURVE SMOOTH",
"569.76 -165.96 OFFCURVE",
"618.7 -252.96 OFFCURVE",
"727.78 -252.96 CURVE SMOOTH",
"762.99 -252.96 OFFCURVE",
"800.94 -241.96 OFFCURVE",
"838.07 -217.96 CURVE SMOOTH",
"844.47 -213.96 OFFCURVE",
"846.93 -208.96 OFFCURVE",
"846.93 -201.96 CURVE",
"845.12 -161.96 LINE SMOOTH",
"844.71 -153.96 OFFCURVE",
"841.21 -149.96 OFFCURVE",
"835.93 -149.96 CURVE SMOOTH",
"825.42 -149.96 OFFCURVE",
"785.01 -175.96 OFFCURVE",
"748.41 -175.96 CURVE SMOOTH",
"697.71 -175.96 OFFCURVE",
"668.87 -140.96 OFFCURVE",
"668.87 -93.96 CURVE SMOOTH",
"668.87 -42.96 OFFCURVE",
"714.17 -7.86 OFFCURVE",
"765.91 -0.2 CURVE",
"768.15 0.22 LINE",
"775.81 1.3 OFFCURVE",
"779.9 6.39 OFFCURVE",
"779.9 15 CURVE SMOOTH"
);
},
{
closed = 1;
nodes = (
"359.8 619.42 LINE",
"467.67 326.56 LINE",
"256.55 326.56 LINE"
);
}
);
width = 786;
}
);
leftKerningGroup = A;
note = Aogonek;
rightKerningGroup = A;
unicode = 0104;
},
{
glyphname = Aring;
layers = (
{
hints = (
{
horizontal = 1;
place = "{0, 60}";
type = Stem;
},
{
horizontal = 1;
place = "{239.56, 87}";
type = Stem;
},
{
horizontal = 1;
place = "{749.43, -20}";
target = down;
type = TopGhost;
},
{
horizontal = 1;
place = "{803.86, -20}";
target = down;
type = TopGhost;
},
{
horizontal = 1;
place = "{913.64, 70}";
type = Stem;
},
{
place = "{249.07, 77}";
type = Stem;
},
{
place = "{446.83, 77}";
type = Stem;
}
);
layerId = "6AD408C6-91F3-4F0B-A103-73D10F5280D9";
paths = (
{
closed = 1;
nodes = (
"465.71 737.57 LINE SMOOTH",
"462.9 744.83 OFFCURVE",
"458.36 748.69 OFFCURVE",
"451.2 749.43 CURVE",
"493.85 771.05 OFFCURVE",
"523.83 812.74 OFFCURVE",
"523.83 858.75 CURVE SMOOTH",
"523.83 925.79 OFFCURVE",
"460.2 983.64 OFFCURVE",
"386.45 983.64 CURVE SMOOTH",
"312.7 983.64 OFFCURVE",
"249.07 925.79 OFFCURVE",
"249.07 858.75 CURVE SMOOTH",
"249.07 812.38 OFFCURVE",
"279.51 770.4 OFFCURVE",
"322.69 748.93 CURVE",
"317.14 747.52 OFFCURVE",
"313.45 743.74 OFFCURVE",
"311.12 737.43 CURVE SMOOTH",
"95.55 155.08 LINE SMOOTH",
"76.25 102.93 OFFCURVE",
"64.89 60 OFFCURVE",
"21 60 CURVE SMOOTH",
"11.25 60 OFFCURVE",
"6 54.75 OFFCURVE",
"6 45 CURVE SMOOTH",
"6 15 LINE SMOOTH",
"6 5.25 OFFCURVE",
"11.25 0 OFFCURVE",
"21 0 CURVE SMOOTH",
"269.62 0 LINE SMOOTH",
"279.37 0 OFFCURVE",
"284.62 5.25 OFFCURVE",
"284.62 15 CURVE SMOOTH",
"284.62 45 LINE SMOOTH",
"284.62 54.75 OFFCURVE",
"279.37 60 OFFCURVE",
"269.62 60 CURVE SMOOTH",
"228.69 60 OFFCURVE",
"191.66 89.47 OFFCURVE",
"191.66 130.18 CURVE SMOOTH",
"191.66 138.1 OFFCURVE",
"193.06 146.45 OFFCURVE",
"196.1 155.08 CURVE SMOOTH",
"225.88 239.56 LINE",
"499.71 239.56 LINE",
"530.83 155.08 LINE SMOOTH",
"534.15 146.05 OFFCURVE",
"535.68 137.36 OFFCURVE",
"535.68 129.15 CURVE SMOOTH",
"535.68 88.79 OFFCURVE",
"498.9 60 OFFCURVE",
"458.28 60 CURVE SMOOTH",
"448.53 60 OFFCURVE",
"443.28 54.75 OFFCURVE",
"443.28 45 CURVE SMOOTH",
"443.28 15 LINE SMOOTH",
"443.28 5.25 OFFCURVE",
"448.53 0 OFFCURVE",
"458.28 0 CURVE SMOOTH",
"764.9 0 LINE SMOOTH",
"774.65 0 OFFCURVE",
"779.9 5.25 OFFCURVE",
"779.9 15 CURVE SMOOTH",
"779.9 45 LINE SMOOTH",
"779.9 54.75 OFFCURVE",
"774.65 60 OFFCURVE",
"764.9 60 CURVE SMOOTH",
"723.01 60 OFFCURVE",
"711.14 104.09 OFFCURVE",
"691.38 155.08 CURVE SMOOTH"
);
},
{
closed = 1;
nodes = (
"420.08 913.64 OFFCURVE",
"446.83 889.32 OFFCURVE",
"446.83 858.75 CURVE SMOOTH",
"446.83 828.18 OFFCURVE",
"420.08 803.86 OFFCURVE",
"386.45 803.86 CURVE SMOOTH",
"352.82 803.86 OFFCURVE",
"326.07 828.18 OFFCURVE",
"326.07 858.75 CURVE SMOOTH",
"326.07 889.32 OFFCURVE",
"352.82 913.64 OFFCURVE",
"386.45 913.64 CURVE SMOOTH"
);
},
{
closed = 1;
nodes = (
"359.8 619.42 LINE",
"467.67 326.56 LINE",
"256.55 326.56 LINE"
);
}
);
width = 786;
}
);
leftKerningGroup = A;
note = Aring;
rightKerningGroup = A;
unicode = 00C5;
},
{
glyphname = Atilde;
layers = (
{
hints = (
{
horizontal = 1;
place = "{0.33, 60}";
type = Stem;
},
{
horizontal = 1;
place = "{239.89, 87}";
type = Stem;
},
{
horizontal = 1;
place = "{749.89, -20}";
target = down;
type = TopGhost;
},
{
horizontal = 1;
place = "{805.65, 86.33}";
type = Stem;
},
{
horizontal = 1;
place = "{900.59, 86.33}";
type = Stem;
},
{
place = "{238, 91.11}";
type = Stem;
},
{
place = "{496.71, 91.11}";
type = Stem;
},
{
horizontal = 1;
place = "{619.75, 130.14}";
type = Stem;
}
);
layerId = "6AD408C6-91F3-4F0B-A103-73D10F5280D9";
paths = (
{
closed = 1;
nodes = (
"310.41 805.03 OFFCURVE",
"333.41 822.48 OFFCURVE",
"344.17 835.3 CURVE",
"333.1 849.46 OFFCURVE",
"329.12 863.45 OFFCURVE",
"329.12 877.78 CURVE SMOOTH",
"329.12 887.5 OFFCURVE",
"333.65 900.69 OFFCURVE",
"347.67 900.59 CURVE SMOOTH",
"358.66 900.52 OFFCURVE",
"365.95 893.22 OFFCURVE",
"379.76 873.18 CURVE SMOOTH",
"397.96 848.43 OFFCURVE",
"420.71 805.65 OFFCURVE",
"489.87 805.65 CURVE SMOOTH",
"540.33 805.65 OFFCURVE",
"587.82 845.87 OFFCURVE",
"587.82 911.02 CURVE SMOOTH",
"587.82 950.99 OFFCURVE",
"555.2 987.54 OFFCURVE",
"537.44 987.54 CURVE SMOOTH",
"515.85 987.54 OFFCURVE",
"492.52 969.88 OFFCURVE",
"481.66 956.95 CURVE",
"492.73 942.79 OFFCURVE",
"496.71 928.79 OFFCURVE",
"496.71 914.79 CURVE SMOOTH",
"496.71 904.08 OFFCURVE",
"492.18 891.88 OFFCURVE",
"478.17 891.98 CURVE SMOOTH",
"467.17 892.06 OFFCURVE",
"459.88 899.35 OFFCURVE",
"446.07 919.4 CURVE SMOOTH",
"428.25 943.63 OFFCURVE",
"404.9 986.92 OFFCURVE",
"335.96 986.92 CURVE SMOOTH",
"285.5 986.92 OFFCURVE",
"238.01 946.71 OFFCURVE",
"238.01 881.56 CURVE SMOOTH",
"238.01 841.08 OFFCURVE",
"271.45 805.03 OFFCURVE",
"288.99 805.03 CURVE SMOOTH"
);
},
{
closed = 1;
nodes = (
"465.71 737.9 LINE SMOOTH",
"462.57 746.01 OFFCURVE",
"457.27 749.89 OFFCURVE",
"448.56 749.89 CURVE SMOOTH",
"328.2 749.89 LINE SMOOTH",
"319.46 749.89 OFFCURVE",
"314.15 745.96 OFFCURVE",
"311.12 737.76 CURVE SMOOTH",
"95.55 155.41 LINE SMOOTH",
"76.25 103.26 OFFCURVE",
"64.89 60.33 OFFCURVE",
"21 60.33 CURVE SMOOTH",
"11.25 60.33 OFFCURVE",
"6 55.08 OFFCURVE",
"6 45.33 CURVE SMOOTH",
"6 15.33 LINE SMOOTH",
"6 5.58 OFFCURVE",
"11.25 0.33 OFFCURVE",
"21 0.33 CURVE SMOOTH",
"269.62 0.33 LINE SMOOTH",
"279.37 0.33 OFFCURVE",
"284.62 5.58 OFFCURVE",
"284.62 15.33 CURVE SMOOTH",
"284.62 45.33 LINE SMOOTH",
"284.62 55.08 OFFCURVE",
"279.37 60.33 OFFCURVE",
"269.62 60.33 CURVE SMOOTH",
"228.69 60.33 OFFCURVE",
"191.66 89.8 OFFCURVE",
"191.66 130.51 CURVE SMOOTH",
"191.66 138.43 OFFCURVE",
"193.06 146.78 OFFCURVE",
"196.1 155.41 CURVE SMOOTH",
"225.88 239.89 LINE",
"499.71 239.89 LINE",
"530.83 155.41 LINE SMOOTH",
"534.15 146.38 OFFCURVE",
"535.68 137.69 OFFCURVE",
"535.68 129.47 CURVE SMOOTH",
"535.68 89.12 OFFCURVE",
"498.9 60.33 OFFCURVE",
"458.28 60.33 CURVE SMOOTH",
"448.53 60.33 OFFCURVE",
"443.28 55.08 OFFCURVE",
"443.28 45.33 CURVE SMOOTH",
"443.28 15.33 LINE SMOOTH",
"443.28 5.58 OFFCURVE",
"448.53 0.33 OFFCURVE",
"458.28 0.33 CURVE SMOOTH",
"764.9 0.33 LINE SMOOTH",
"774.65 0.33 OFFCURVE",
"779.9 5.58 OFFCURVE",
"779.9 15.33 CURVE SMOOTH",
"779.9 45.33 LINE SMOOTH",
"779.9 55.08 OFFCURVE",
"774.65 60.33 OFFCURVE",
"764.9 60.33 CURVE SMOOTH",
"723.01 60.33 OFFCURVE",
"711.14 104.42 OFFCURVE",
"691.38 155.41 CURVE SMOOTH"
);
},
{
closed = 1;
nodes = (
"359.8 619.75 LINE",
"467.67 326.89 LINE",
"256.55 326.89 LINE"
);
}
);
width = 786;
}
);
leftKerningGroup = A;
note = Atilde;
rightKerningGroup = A;
unicode = 00C3;
},
{
glyphname = AE;
layers = (
{
hints = (
{
horizontal = 1;
place = "{-0.31, 71.06}";
type = Stem;
},
{
horizontal = 1;
place = "{239.25, 87}";
type = Stem;
},
{
horizontal = 1;
place = "{364.22, 79.8}";
type = Stem;
},
{
horizontal = 1;
place = "{678.63, 71.06}";
type = Stem;
},
{
place = "{529.8, 158.76}";
type = Stem;
},
{
place = "{877.03, 60.12}";
type = Stem;
},
{
horizontal = 1;
place = "{-0.31, 65}";
type = Stem;
},
{
horizontal = 1;
place = "{689.45, 60.24}";
type = Stem;
},
{
place = "{530.66, 163.9}";
type = Stem;
},
{
horizontal = 1;
place = "{-0.31, 68}";
type = Stem;
}
);
layerId = "6AD408C6-91F3-4F0B-A103-73D10F5280D9";
paths = (
{
closed = 1;
nodes = (
"1110.65 232.55 LINE SMOOTH",
"1107.54 234.35 OFFCURVE",
"1104.6 235.25 OFFCURVE",
"1101.87 235.25 CURVE SMOOTH",
"1096.98 235.25 OFFCURVE",
"1092.79 232.36 OFFCURVE",
"1089.54 226.58 CURVE SMOOTH",
"1086.32 221.05 LINE SMOOTH",
"998.99 77.58 OFFCURVE",
"919.07 70.75 OFFCURVE",
"828.12 70.75 CURVE SMOOTH",
"763.52 70.75 LINE SMOOTH",
"711.45 72.5 OFFCURVE",
"694.56 112.62 OFFCURVE",
"694.56 165.77 CURVE SMOOTH",
"694.56 364.22 LINE",
"782.07 364.22 LINE SMOOTH",
"834.71 364.22 OFFCURVE",
"874.58 347.65 OFFCURVE",
"877.03 296.73 CURVE",
"877.03 290.75 LINE SMOOTH",
"877.03 281 OFFCURVE",
"882.28 275.75 OFFCURVE",
"892.03 275.75 CURVE SMOOTH",
"922.15 275.75 LINE SMOOTH",
"931.9 275.75 OFFCURVE",
"937.15 281 OFFCURVE",
"937.15 290.75 CURVE SMOOTH",
"937.15 518.23 LINE SMOOTH",
"937.15 527.98 OFFCURVE",
"931.9 533.23 OFFCURVE",
"922.15 533.23 CURVE SMOOTH",
"892.03 533.23 LINE SMOOTH",
"882.28 533.23 OFFCURVE",
"877.03 527.98 OFFCURVE",
"877.03 518.23 CURVE SMOOTH",
"877.03 511.5 LINE",
"874.58 460.58 OFFCURVE",
"834.71 444.02 OFFCURVE",
"782.07 444.02 CURVE SMOOTH",
"688.56 444.02 LINE",
"688.56 678.63 LINE",
"856.5 678.63 LINE SMOOTH",
"937.66 678.63 OFFCURVE",
"978.09 651.16 OFFCURVE",
"1015.82 586.33 CURVE SMOOTH",
"1019.04 580.8 LINE SMOOTH",
"1022.27 575.25 OFFCURVE",
"1026.45 572.43 OFFCURVE",
"1031.31 572.43 CURVE SMOOTH",
"1034.05 572.43 OFFCURVE",
"1037.01 573.33 OFFCURVE",
"1040.15 575.15 CURVE SMOOTH",
"1082.03 597.62 LINE SMOOTH",
"1087.58 600.84 OFFCURVE",
"1090.42 605.02 OFFCURVE",
"1090.42 609.89 CURVE SMOOTH",
"1090.42 612.64 OFFCURVE",
"1089.52 615.6 OFFCURVE",
"1087.68 618.73 CURVE SMOOTH",
"1007.99 755.12 LINE SMOOTH",
"1004.89 760.22 OFFCURVE",
"1000.3 763.29 OFFCURVE",
"995.38 763.29 CURVE SMOOTH",
"992.58 763.29 OFFCURVE",
"989.68 762.3 OFFCURVE",
"986.88 760.12 CURVE",
"981.31 755.12 LINE SMOOTH",
"975.5 749.72 OFFCURVE",
"969.58 749.69 OFFCURVE",
"962.15 749.69 CURVE SMOOTH",
"387.63 749.69 LINE SMOOTH",
"377.88 749.69 OFFCURVE",
"372.63 744.2 OFFCURVE",
"372.63 734.45 CURVE SMOOTH",
"372.63 704.45 LINE SMOOTH",
"372.63 694.7 OFFCURVE",
"377.88 689.45 OFFCURVE",
"387.63 689.45 CURVE SMOOTH",
"388.63 689.45 LINE SMOOTH",
"421.26 689.45 OFFCURVE",
"433.99 682.83 OFFCURVE",
"433.99 668.58 CURVE SMOOTH",
"433.99 658.86 OFFCURVE",
"428.07 645.6 OFFCURVE",
"418.51 628.48 CURVE SMOOTH",
"145.55 154.77 LINE SMOOTH",
"117.79 106.59 OFFCURVE",
"89.51 64.69 OFFCURVE",
"21 64.69 CURVE SMOOTH",
"11.25 64.69 OFFCURVE",
"6 59.44 OFFCURVE",
"6 49.69 CURVE SMOOTH",
"6 14.69 LINE SMOOTH",
"6 4.94 OFFCURVE",
"11.25 -0.31 OFFCURVE",
"21 -0.31 CURVE SMOOTH",
"269.62 -0.31 LINE SMOOTH",
"279.37 -0.31 OFFCURVE",
"284.62 4.94 OFFCURVE",
"284.62 14.69 CURVE SMOOTH",
"284.62 49.69 LINE SMOOTH",
"284.62 59.44 OFFCURVE",
"279.37 64.69 OFFCURVE",
"269.62 64.69 CURVE SMOOTH",
"240.99 64.69 OFFCURVE",
"228.4 78.76 OFFCURVE",
"228.4 100.26 CURVE SMOOTH",
"228.4 115.49 OFFCURVE",
"234.71 134.44 OFFCURVE",
"246.1 154.77 CURVE SMOOTH",
"293.45 239.25 LINE",
"530.66 239.25 LINE",
"530.66 154.77 LINE SMOOTH",
"530.95 97.88 OFFCURVE",
"507.17 67.69 OFFCURVE",
"458.28 67.69 CURVE SMOOTH",
"448.53 67.69 OFFCURVE",
"443.28 62.44 OFFCURVE",
"443.28 52.69 CURVE SMOOTH",
"443.28 14.69 LINE SMOOTH",
"443.28 4.94 OFFCURVE",
"448.53 -0.31 OFFCURVE",
"458.28 -0.31 CURVE SMOOTH",
"1008.65 -0.31 LINE SMOOTH",
"1016.08 -0.31 OFFCURVE",
"1022 -0.31 OFFCURVE",
"1027.81 -5.31 CURVE SMOOTH",
"1033.38 -10.31 LINE SMOOTH",
"1036.3 -12.96 OFFCURVE",
"1039.45 -14.18 OFFCURVE",
"1042.46 -14.18 CURVE SMOOTH",
"1047.4 -14.18 OFFCURVE",
"1051.95 -10.9 OFFCURVE",
"1054.49 -5.31 CURVE SMOOTH",
"1148.18 192.66 LINE",
"1150.02 195.79 OFFCURVE",
"1150.92 198.75 OFFCURVE",
"1150.92 201.5 CURVE SMOOTH",
"1150.92 206.36 OFFCURVE",
"1148.08 210.55 OFFCURVE",
"1142.53 213.77 CURVE SMOOTH"
);
},
{
closed = 1;
nodes = (
"529.8 660.97 LINE",
"529.8 326.25 LINE",
"342.21 326.25 LINE"
);
}
);
width = 1171;
}
);
leftKerningGroup = AE;
note = AE;
rightKerningGroup = AE;
unicode = 00C6;
},
{
glyphname = B;
layers = (
{
hints = (
{
horizontal = 1;
place = "{0, 60.23}";
type = Stem;
},
{
horizontal = 1;
place = "{377.37, 71}";
type = Stem;
},
{
horizontal = 1;
place = "{689.76, 60.28}";
type = Stem;
},
{
place = "{118.55, 159.8}";
type = Stem;
},
{
place = "{529.23, 150}";
type = Stem;
},
{
place = "{463.72, 150}";
type = Stem;
}
);
layerId = "6AD408C6-91F3-4F0B-A103-73D10F5280D9";
paths = (
{
closed = 1;
nodes = (
"45 750.04 LINE SMOOTH",
"35.25 750 OFFCURVE",
"30 744.51 OFFCURVE",
"30 734.76 CURVE SMOOTH",
"30 704.76 LINE SMOOTH",
"30 695.01 OFFCURVE",
"35.25 689.76 OFFCURVE",
"45 689.76 CURVE SMOOTH",
"46 689.76 LINE SMOOTH",
"100.89 689.76 OFFCURVE",
"118.55 649.03 OFFCURVE",
"118.55 594.68 CURVE SMOOTH",
"118.55 155.08 LINE SMOOTH",
"118.55 100.73 OFFCURVE",
"100.89 60 OFFCURVE",
"46.01 60 CURVE SMOOTH",
"45 60 LINE SMOOTH",
"35.25 60 OFFCURVE",
"30 54.75 OFFCURVE",
"30 45 CURVE SMOOTH",
"30 15 LINE SMOOTH",
"30 5.25 OFFCURVE",
"35.25 0 OFFCURVE",
"45 0 CURVE SMOOTH",
"412.42 0 LINE SMOOTH",
"574.62 0 OFFCURVE",
"679.23 106.95 OFFCURVE",
"679.23 221.3 CURVE SMOOTH",
"679.23 315.56 OFFCURVE",
"634.26 394.39 OFFCURVE",
"512.64 429.21 CURVE",
"585.02 464.93 OFFCURVE",
"613.72 518.71 OFFCURVE",
"613.72 568.97 CURVE SMOOTH",
"613.72 680.32 OFFCURVE",
"496.86 750.04 OFFCURVE",
"366.62 750.04 CURVE SMOOTH"
);
},
{
closed = 1;
nodes = (
"272.35 448.37 LINE",
"272.35 689.76 LINE",
"338.68 689.76 LINE SMOOTH",
"417.46 689.76 OFFCURVE",
"463.72 641.52 OFFCURVE",
"463.72 568.97 CURVE SMOOTH",
"463.72 502.42 OFFCURVE",
"430.8 448.37 OFFCURVE",
"335.15 448.37 CURVE SMOOTH"
);
},
{
closed = 1;
nodes = (
"343.94 60.23 LINE",
"294.5 63.58 OFFCURVE",
"278.35 103.1 OFFCURVE",
"278.35 155.08 CURVE SMOOTH",
"278.35 377.37 LINE",
"336.43 377.37 LINE SMOOTH",
"469.81 377.37 OFFCURVE",
"529.23 331.85 OFFCURVE",
"529.23 221.3 CURVE SMOOTH",
"529.23 128.74 OFFCURVE",
"468.69 60.23 OFFCURVE",
"368.71 60.23 CURVE SMOOTH"
);
}
);
width = 721;
}
);
leftKerningGroup = B;
note = B;
rightKerningGroup = B;
unicode = 0042;
},
{
glyphname = C;
layers = (
{
hints = (
{
horizontal = 1;
place = "{-10, 93.91}";
type = Stem;
},
{
horizontal = 1;
place = "{682.58, 78.64}";
type = Stem;
},
{
place = "{35.28, 170.56}";
type = Stem;
}
);
layerId = "6AD408C6-91F3-4F0B-A103-73D10F5280D9";
paths = (
{
closed = 1;
nodes = (
"694.64 255.98 LINE",
"690.17 258.56 OFFCURVE",
"685.91 259.86 OFFCURVE",
"681.99 259.86 CURVE SMOOTH",
"674.81 259.86 OFFCURVE",
"668.8 255.5 OFFCURVE",
"664.85 246.67 CURVE SMOOTH",
"632.69 174.66 OFFCURVE",
"571.37 83.91 OFFCURVE",
"422.72 83.91 CURVE SMOOTH",
"273.97 83.91 OFFCURVE",
"205.84 216.77 OFFCURVE",
"205.84 410.58 CURVE SMOOTH",
"205.84 522.6 OFFCURVE",
"253.33 682.58 OFFCURVE",
"395.6 682.58 CURVE SMOOTH",
"509.97 682.58 OFFCURVE",
"542.86 593.15 OFFCURVE",
"542.86 522.32 CURVE",
"542.15 504.36 LINE",
"540.39 489.12 LINE",
"539.39 482.82 OFFCURVE",
"543.81 478.81 OFFCURVE",
"551.92 478.81 CURVE SMOOTH",
"555.46 478.81 OFFCURVE",
"559.71 479.58 OFFCURVE",
"564.51 481.25 CURVE SMOOTH",
"692.57 525.94 LINE",
"703.77 528.92 OFFCURVE",
"709.92 535.62 OFFCURVE",
"709.92 545.56 CURVE",
"709.18 551.86 LINE",
"676.59 699.48 OFFCURVE",
"536.5 761.22 OFFCURVE",
"403.53 761.22 CURVE SMOOTH",
"116.22 761.22 OFFCURVE",
"35.28 533.5 OFFCURVE",
"35.28 367.02 CURVE SMOOTH",
"35.28 151.79 OFFCURVE",
"166.67 -10 OFFCURVE",
"407.34 -10 CURVE SMOOTH",
"600.27 -10 OFFCURVE",
"698.95 115.36 OFFCURVE",
"741.56 219.36 CURVE SMOOTH",
"746.65 231.79 OFFCURVE",
"739.12 235.43 OFFCURVE",
"730.03 239.63 CURVE SMOOTH"
);
}
);
width = 748;
}
);
leftKerningGroup = C;
note = C;
rightKerningGroup = C;
unicode = 0043;
},
{
glyphname = Cacute;
layers = (
{
hints = (
{
horizontal = 1;
place = "{-10, 93.91}";
type = Stem;
},
{
horizontal = 1;
place = "{682.58, 78.64}";
type = Stem;
},
{
place = "{35.28, 170.56}";
type = Stem;
}
);
layerId = "6AD408C6-91F3-4F0B-A103-73D10F5280D9";
paths = (
{
closed = 1;
nodes = (
"345.06 810.23 LINE SMOOTH",
"348.39 808.63 OFFCURVE",
"351.38 807.81 OFFCURVE",
"354.48 807.81 CURVE SMOOTH",
"356.67 807.81 OFFCURVE",
"358.92 808.22 OFFCURVE",
"361.37 809.06 CURVE SMOOTH",
"421.1 829.5 OFFCURVE",
"522.18 889.54 OFFCURVE",
"522.18 971.46 CURVE SMOOTH",
"522.18 1006.34 OFFCURVE",
"490.59 1022.36 OFFCURVE",
"452.39 1022.36 CURVE SMOOTH",
"446.15 1022.36 OFFCURVE",
"439.73 1021.93 OFFCURVE",
"433.25 1021.09 CURVE SMOOTH",
"423.2 1019.78 OFFCURVE",
"418.15 1015.19 OFFCURVE",
"415.59 1008.41 CURVE SMOOTH",
"390.66 942.93 OFFCURVE",
"372.03 908.74 OFFCURVE",
"308.67 827.73 CURVE"
);
},
{
closed = 1;
nodes = (
"694.64 255.98 LINE",
"690.17 258.56 OFFCURVE",
"685.91 259.86 OFFCURVE",
"681.99 259.86 CURVE SMOOTH",
"674.81 259.86 OFFCURVE",
"668.8 255.5 OFFCURVE",
"664.85 246.67 CURVE SMOOTH",
"632.69 174.66 OFFCURVE",
"571.37 83.91 OFFCURVE",
"422.72 83.91 CURVE SMOOTH",
"273.97 83.91 OFFCURVE",
"205.84 216.77 OFFCURVE",
"205.84 410.58 CURVE SMOOTH",
"205.84 522.6 OFFCURVE",
"253.33 682.58 OFFCURVE",
"395.6 682.58 CURVE SMOOTH",
"509.97 682.58 OFFCURVE",
"542.86 593.15 OFFCURVE",
"542.86 522.32 CURVE",
"542.15 504.36 LINE",
"540.39 489.12 LINE",
"539.39 482.82 OFFCURVE",
"543.81 478.81 OFFCURVE",
"551.92 478.81 CURVE SMOOTH",
"555.46 478.81 OFFCURVE",
"559.71 479.58 OFFCURVE",
"564.51 481.25 CURVE SMOOTH",
"692.57 525.94 LINE",
"703.77 528.92 OFFCURVE",
"709.92 535.62 OFFCURVE",
"709.92 545.56 CURVE",
"709.18 551.86 LINE",
"676.59 699.48 OFFCURVE",
"536.5 761.22 OFFCURVE",
"403.53 761.22 CURVE SMOOTH",
"116.22 761.22 OFFCURVE",
"35.28 533.5 OFFCURVE",
"35.28 367.02 CURVE SMOOTH",
"35.28 151.79 OFFCURVE",
"166.67 -10 OFFCURVE",
"407.34 -10 CURVE SMOOTH",
"600.27 -10 OFFCURVE",
"698.95 115.36 OFFCURVE",
"741.56 219.36 CURVE SMOOTH",
"746.65 231.79 OFFCURVE",
"739.12 235.43 OFFCURVE",
"730.03 239.63 CURVE SMOOTH"
);
}
);
width = 748;
}
);
leftKerningGroup = C;
note = Cacute;
rightKerningGroup = C;
unicode = 0106;
},
{
glyphname = Ccaron;
layers = (
{
hints = (
{
horizontal = 1;
place = "{-10, 93.91}";
type = Stem;
},
{
horizontal = 1;
place = "{682.58, 78.64}";
type = Stem;
},
{
place = "{35.28, 170.56}";
type = Stem;
}
);
layerId = "6AD408C6-91F3-4F0B-A103-73D10F5280D9";
paths = (
{
closed = 1;
nodes = (
"268.8 887.22 OFFCURVE",
"302.99 868.6 OFFCURVE",
"384 805.24 CURVE",
"465.01 868.6 OFFCURVE",
"499.2 887.22 OFFCURVE",
"564.68 912.15 CURVE SMOOTH",
"571.46 914.71 OFFCURVE",
"576.05 919.77 OFFCURVE",
"577.36 929.81 CURVE SMOOTH",
"578.2 936.29 OFFCURVE",
"578.63 942.71 OFFCURVE",
"578.63 948.95 CURVE SMOOTH",
"578.63 987.15 OFFCURVE",
"562.61 1018.74 OFFCURVE",
"527.73 1018.74 CURVE SMOOTH",
"463.55 1018.74 OFFCURVE",
"412.8 956.7 OFFCURVE",
"384 901.11 CURVE",
"355.2 956.7 OFFCURVE",
"304.45 1018.74 OFFCURVE",
"240.27 1018.74 CURVE SMOOTH",
"205.39 1018.74 OFFCURVE",
"189.37 987.15 OFFCURVE",
"189.37 948.95 CURVE SMOOTH",
"189.37 942.71 OFFCURVE",
"189.8 936.29 OFFCURVE",
"190.64 929.81 CURVE SMOOTH",
"191.95 919.77 OFFCURVE",
"196.54 914.71 OFFCURVE",
"203.32 912.15 CURVE SMOOTH"
);
},
{
closed = 1;
nodes = (
"694.64 255.98 LINE",
"690.17 258.56 OFFCURVE",
"685.91 259.86 OFFCURVE",
"681.99 259.86 CURVE SMOOTH",
"674.81 259.86 OFFCURVE",
"668.8 255.5 OFFCURVE",
"664.85 246.67 CURVE SMOOTH",
"632.69 174.66 OFFCURVE",
"571.37 83.91 OFFCURVE",
"422.72 83.91 CURVE SMOOTH",
"273.97 83.91 OFFCURVE",
"205.84 216.77 OFFCURVE",
"205.84 410.58 CURVE SMOOTH",
"205.84 522.6 OFFCURVE",
"253.33 682.58 OFFCURVE",
"395.6 682.58 CURVE SMOOTH",
"509.97 682.58 OFFCURVE",
"542.86 593.15 OFFCURVE",
"542.86 522.32 CURVE",
"542.15 504.36 LINE",
"540.39 489.12 LINE",
"539.39 482.82 OFFCURVE",
"543.81 478.81 OFFCURVE",
"551.92 478.81 CURVE SMOOTH",
"555.46 478.81 OFFCURVE",
"559.71 479.58 OFFCURVE",
"564.51 481.25 CURVE SMOOTH",
"692.57 525.94 LINE",
"703.77 528.92 OFFCURVE",
"709.92 535.62 OFFCURVE",
"709.92 545.56 CURVE",
"709.18 551.86 LINE",
"676.59 699.48 OFFCURVE",
"536.5 761.22 OFFCURVE",
"403.53 761.22 CURVE SMOOTH",
"116.22 761.22 OFFCURVE",
"35.28 533.5 OFFCURVE",
"35.28 367.02 CURVE SMOOTH",
"35.28 151.79 OFFCURVE",
"166.67 -10 OFFCURVE",
"407.34 -10 CURVE SMOOTH",
"600.27 -10 OFFCURVE",
"698.95 115.36 OFFCURVE",
"741.56 219.36 CURVE SMOOTH",
"746.65 231.79 OFFCURVE",
"739.12 235.43 OFFCURVE",
"730.03 239.63 CURVE SMOOTH"
);
}
);
width = 748;
}
);
leftKerningGroup = C;
note = Ccaron;
rightKerningGroup = C;
unicode = 010C;
},
{
glyphname = Ccedilla;
layers = (
{
hints = (
{
horizontal = 1;
place = "{-256, 71}";
type = Stem;
},
{
horizontal = 1;
place = "{-103, 51}";
type = Stem;
},
{
horizontal = 1;
place = "{-6.44, 21}";
target = up;
type = BottomGhost;
},
{
horizontal = 1;
place = "{682.58, 78.64}";
type = Stem;
},
{
place = "{35.28, 170.56}";
type = Stem;
},
{
place = "{437.36, 101.13}";
type = Stem;
}
);
layerId = "6AD408C6-91F3-4F0B-A103-73D10F5280D9";
paths = (
{
closed = 1;
nodes = (
"694.64 255.98 LINE",
"690.17 258.56 OFFCURVE",
"685.91 259.86 OFFCURVE",
"681.99 259.86 CURVE SMOOTH",
"674.81 259.86 OFFCURVE",
"668.8 255.5 OFFCURVE",
"664.85 246.67 CURVE SMOOTH",
"632.69 174.66 OFFCURVE",
"571.37 83.91 OFFCURVE",
"422.72 83.91 CURVE SMOOTH",
"273.97 83.91 OFFCURVE",
"205.84 216.77 OFFCURVE",
"205.84 410.58 CURVE SMOOTH",
"205.84 522.6 OFFCURVE",
"253.33 682.58 OFFCURVE",
"395.6 682.58 CURVE SMOOTH",
"509.97 682.58 OFFCURVE",
"542.86 593.15 OFFCURVE",
"542.86 522.32 CURVE",
"542.15 504.36 LINE",
"540.39 489.12 LINE",
"539.39 482.82 OFFCURVE",
"543.81 478.81 OFFCURVE",
"551.92 478.81 CURVE SMOOTH",
"555.46 478.81 OFFCURVE",
"559.71 479.58 OFFCURVE",
"564.51 481.25 CURVE SMOOTH",
"692.57 525.94 LINE",
"703.77 528.92 OFFCURVE",
"709.92 535.62 OFFCURVE",
"709.92 545.56 CURVE",
"709.18 551.86 LINE",
"676.59 699.48 OFFCURVE",
"536.5 761.22 OFFCURVE",
"403.53 761.22 CURVE SMOOTH",
"116.22 761.22 OFFCURVE",
"35.28 533.5 OFFCURVE",
"35.28 367.02 CURVE SMOOTH",
"35.28 170.41 OFFCURVE",
"144.92 18.4 OFFCURVE",
"347.34 -6.44 CURVE",
"296.44 -92 LINE SMOOTH",
"294.54 -95.34 OFFCURVE",
"293.64 -98.35 OFFCURVE",
"293.64 -100.88 CURVE SMOOTH",
"293.64 -105.9 OFFCURVE",
"297.19 -109 OFFCURVE",
"303.42 -109 CURVE SMOOTH",
"320.94 -109 OFFCURVE",
"340.32 -103 OFFCURVE",
"360.13 -103 CURVE SMOOTH",
"406.1 -103 OFFCURVE",
"437.36 -119 OFFCURVE",
"437.36 -153 CURVE SMOOTH",
"437.36 -177 OFFCURVE",
"416.23 -185 OFFCURVE",
"389.25 -185 CURVE SMOOTH",
"361.75 -185 OFFCURVE",
"328.18 -177 OFFCURVE",
"304.7 -169 CURVE",
"294.74 -166 OFFCURVE",
"288.39 -169 OFFCURVE",
"288.39 -178 CURVE SMOOTH",
"288.39 -198 OFFCURVE",
"289.3 -227 OFFCURVE",
"308.66 -235 CURVE SMOOTH",
"344.72 -250 OFFCURVE",
"378.47 -256 OFFCURVE",
"408.4 -256 CURVE SMOOTH",
"486.37 -256 OFFCURVE",
"538.49 -212 OFFCURVE",
"538.49 -153 CURVE SMOOTH",
"538.49 -82 OFFCURVE",
"478.87 -52 OFFCURVE",
"425.25 -52 CURVE SMOOTH",
"409.16 -52 OFFCURVE",
"393.49 -55 OFFCURVE",
"379.91 -60 CURVE",
"421.39 -9.77 LINE",
"605.09 -3.85 OFFCURVE",
"700 117.92 OFFCURVE",
"741.56 219.36 CURVE SMOOTH",
"746.65 231.79 OFFCURVE",
"739.12 235.43 OFFCURVE",
"730.03 239.63 CURVE SMOOTH"
);
}
);
width = 748;
}
);
leftKerningGroup = C;
note = Ccedilla;
rightKerningGroup = C;
unicode = 00C7;
},
{
glyphname = Cdotaccent;
layers = (
{
hints = (
{
horizontal = 1;
place = "{-10, 93.91}";
type = Stem;
},
{
horizontal = 1;
place = "{682.58, 78.64}";
type = Stem;
},
{
horizontal = 1;
place = "{839.69, 150.26}";
type = Stem;
},
{
place = "{35.28, 170.56}";
type = Stem;
},
{
place = "{308.87, 150.26}";
type = Stem;
}
);
layerId = "6AD408C6-91F3-4F0B-A103-73D10F5280D9";
paths = (
{
closed = 1;
nodes = (
"366.14 989.95 OFFCURVE",
"351.64 982.72 OFFCURVE",
"333.87 964.95 CURVE SMOOTH",
"316.1 947.18 OFFCURVE",
"308.87 932.68 OFFCURVE",
"308.87 914.82 CURVE SMOOTH",
"308.87 896.96 OFFCURVE",
"316.1 882.46 OFFCURVE",
"333.87 864.69 CURVE SMOOTH",
"351.64 846.92 OFFCURVE",
"366.14 839.69 OFFCURVE",
"384 839.69 CURVE SMOOTH",
"401.86 839.69 OFFCURVE",
"416.36 846.92 OFFCURVE",
"434.13 864.69 CURVE SMOOTH",
"451.9 882.46 OFFCURVE",
"459.13 896.96 OFFCURVE",
"459.13 914.82 CURVE SMOOTH",
"459.13 932.68 OFFCURVE",
"451.9 947.18 OFFCURVE",
"434.13 964.95 CURVE SMOOTH",
"416.36 982.72 OFFCURVE",
"401.86 989.95 OFFCURVE",
"384 989.95 CURVE SMOOTH"
);
},
{
closed = 1;
nodes = (
"694.64 255.98 LINE",
"690.17 258.56 OFFCURVE",
"685.91 259.86 OFFCURVE",
"681.99 259.86 CURVE SMOOTH",
"674.81 259.86 OFFCURVE",
"668.8 255.5 OFFCURVE",
"664.85 246.67 CURVE SMOOTH",
"632.69 174.66 OFFCURVE",
"571.37 83.91 OFFCURVE",
"422.72 83.91 CURVE SMOOTH",
"273.97 83.91 OFFCURVE",
"205.84 216.77 OFFCURVE",
"205.84 410.58 CURVE SMOOTH",
"205.84 522.6 OFFCURVE",
"253.33 682.58 OFFCURVE",
"395.6 682.58 CURVE SMOOTH",
"509.97 682.58 OFFCURVE",
"542.86 593.15 OFFCURVE",
"542.86 522.32 CURVE",
"542.15 504.36 LINE",
"540.39 489.12 LINE",
"539.39 482.82 OFFCURVE",
"543.81 478.81 OFFCURVE",
"551.92 478.81 CURVE SMOOTH",
"555.46 478.81 OFFCURVE",
"559.71 479.58 OFFCURVE",
"564.51 481.25 CURVE SMOOTH",
"692.57 525.94 LINE",
"703.77 528.92 OFFCURVE",
"709.92 535.62 OFFCURVE",
"709.92 545.56 CURVE",
"709.18 551.86 LINE",
"676.59 699.48 OFFCURVE",
"536.5 761.22 OFFCURVE",
"403.53 761.22 CURVE SMOOTH",
"116.22 761.22 OFFCURVE",
"35.28 533.5 OFFCURVE",
"35.28 367.02 CURVE SMOOTH",
"35.28 151.79 OFFCURVE",
"166.67 -10 OFFCURVE",
"407.34 -10 CURVE SMOOTH",
"600.27 -10 OFFCURVE",
"698.95 115.36 OFFCURVE",
"741.56 219.36 CURVE SMOOTH",
"746.65 231.79 OFFCURVE",
"739.12 235.43 OFFCURVE",
"730.03 239.63 CURVE SMOOTH"
);
}
);
width = 748;
}
);
leftKerningGroup = C;
note = Cdotaccent;
rightKerningGroup = C;
unicode = 010A;
},
{
glyphname = D;
layers = (
{
hints = (
{
horizontal = 1;
place = "{0, 65.23}";
type = Stem;
},
{
horizontal = 1;
place = "{689.76, 60}";
type = Stem;
},
{
place = "{118.55, 159.8}";
type = Stem;
},
{
place = "{603.23, 152}";
type = Stem;
},
{
horizontal = 1;
place = "{0, 60}";
type = Stem;
}
);
layerId = "6AD408C6-91F3-4F0B-A103-73D10F5280D9";
paths = (
{
closed = 1;
nodes = (
"45 749.76 LINE SMOOTH",
"35.25 750 OFFCURVE",
"30 744.51 OFFCURVE",
"30 734.76 CURVE SMOOTH",
"30 704.76 LINE SMOOTH",
"30 695.01 OFFCURVE",
"35.25 689.76 OFFCURVE",
"45 689.76 CURVE SMOOTH",
"46 689.76 LINE SMOOTH",
"100.89 689.76 OFFCURVE",
"118.55 649.03 OFFCURVE",
"118.55 594.68 CURVE SMOOTH",
"118.55 155.08 LINE SMOOTH",
"118.55 102.6 OFFCURVE",
"102.08 62.81 OFFCURVE",
"51.52 60.14 CURVE SMOOTH",
"45 60 LINE SMOOTH",
"35.25 60 OFFCURVE",
"30 54.75 OFFCURVE",
"30 45 CURVE SMOOTH",
"30 15 LINE SMOOTH",
"30 5.25 OFFCURVE",
"35.25 0 OFFCURVE",
"45 0 CURVE SMOOTH",
"380.61 0 LINE SMOOTH",
"642.8 0 OFFCURVE",
"755.23 166.94 OFFCURVE",
"755.23 376.29 CURVE SMOOTH",
"755.23 612.64 OFFCURVE",
"582.86 749.76 OFFCURVE",
"352.62 749.76 CURVE SMOOTH"
);
},
{
closed = 1;
nodes = (
"278.35 689.76 LINE",
"324.68 689.76 LINE SMOOTH",
"503.46 689.76 OFFCURVE",
"603.23 573.85 OFFCURVE",
"603.23 376.29 CURVE SMOOTH",
"603.23 179.74 OFFCURVE",
"547.35 65.23 OFFCURVE",
"352.37 65.23 CURVE SMOOTH",
"279.88 65.23 OFFCURVE",
"278.35 105.73 OFFCURVE",
"278.35 160.08 CURVE SMOOTH"
);
}
);
width = 790;
}
);
leftKerningGroup = B;
note = D;
rightKerningGroup = D;
unicode = 0044;
},
{
glyphname = Eth;
layers = (
{
hints = (
{
horizontal = 1;
place = "{0, 65.23}";
type = Stem;
},
{
horizontal = 1;
place = "{303.38, 116.64}";
type = Stem;
},
{
horizontal = 1;
place = "{689.76, 60}";
type = Stem;
},
{
place = "{118.55, 159.8}";
type = Stem;
},
{
place = "{603.23, 152}";
type = Stem;
},
{
horizontal = 1;
place = "{0, 60}";
type = Stem;
}
);
layerId = "6AD408C6-91F3-4F0B-A103-73D10F5280D9";
paths = (
{
closed = 1;
nodes = (
"45 749.76 LINE SMOOTH",
"35.25 750 OFFCURVE",
"30 744.51 OFFCURVE",
"30 734.76 CURVE SMOOTH",
"30 704.76 LINE SMOOTH",
"30 695.01 OFFCURVE",
"35.25 689.76 OFFCURVE",
"45 689.76 CURVE SMOOTH",
"46 689.76 LINE SMOOTH",
"100.89 689.76 OFFCURVE",
"118.55 649.03 OFFCURVE",
"118.55 594.68 CURVE SMOOTH",
"118.55 420.02 LINE",
"45 420.02 LINE SMOOTH",
"35.25 420.02 OFFCURVE",
"30 414.77 OFFCURVE",
"30 405.02 CURVE SMOOTH",
"30 318.38 LINE SMOOTH",
"30 308.63 OFFCURVE",
"35.25 303.38 OFFCURVE",
"45 303.38 CURVE SMOOTH",
"118.55 303.38 LINE",
"118.55 155.08 LINE SMOOTH",
"118.55 102.6 OFFCURVE",
"102.08 62.81 OFFCURVE",
"51.52 60.14 CURVE SMOOTH",
"45 60 LINE SMOOTH",
"35.25 60 OFFCURVE",
"30 54.75 OFFCURVE",
"30 45 CURVE SMOOTH",
"30 15 LINE SMOOTH",
"30 5.25 OFFCURVE",
"35.25 0 OFFCURVE",
"45 0 CURVE SMOOTH",
"380.61 0 LINE SMOOTH",
"642.8 0 OFFCURVE",
"755.23 166.94 OFFCURVE",
"755.23 376.29 CURVE SMOOTH",
"755.23 612.64 OFFCURVE",
"582.86 749.76 OFFCURVE",
"352.62 749.76 CURVE SMOOTH"
);
},
{
closed = 1;
nodes = (
"278.35 303.38 LINE",
"489.79 303.38 LINE SMOOTH",
"499.54 303.38 OFFCURVE",
"504.79 308.63 OFFCURVE",
"504.79 318.38 CURVE SMOOTH",
"504.79 405.02 LINE SMOOTH",
"504.79 414.77 OFFCURVE",
"499.54 420.02 OFFCURVE",
"489.79 420.02 CURVE SMOOTH",
"278.35 420.02 LINE",
"278.35 689.76 LINE",
"324.68 689.76 LINE SMOOTH",
"503.46 689.76 OFFCURVE",
"603.23 573.85 OFFCURVE",
"603.23 376.29 CURVE SMOOTH",
"603.23 179.74 OFFCURVE",
"547.35 65.23 OFFCURVE",
"352.37 65.23 CURVE SMOOTH",
"279.88 65.23 OFFCURVE",
"278.35 105.73 OFFCURVE",
"278.35 160.08 CURVE SMOOTH"
);
}
);
width = 790;
}
);
leftKerningGroup = B;
note = Eth;
rightKerningGroup = D;
unicode = 00D0;
},
{
glyphname = Dcaron;
layers = (
{
hints = (
{
horizontal = 1;
place = "{0, 65.23}";
type = Stem;
},
{
horizontal = 1;
place = "{689.76, 60}";
type = Stem;
},
{
place = "{118.55, 159.8}";
type = Stem;
},
{
place = "{603.23, 152}";
type = Stem;
},
{
horizontal = 1;
place = "{0, 60}";
type = Stem;
}
);
layerId = "6AD408C6-91F3-4F0B-A103-73D10F5280D9";
paths = (
{
closed = 1;
nodes = (
"204.86 887.22 OFFCURVE",
"239.04 868.6 OFFCURVE",
"320.06 805.24 CURVE",
"401.07 868.6 OFFCURVE",
"435.26 887.22 OFFCURVE",
"500.74 912.15 CURVE SMOOTH",
"507.52 914.71 OFFCURVE",
"512.11 919.77 OFFCURVE",
"513.42 929.81 CURVE SMOOTH",
"514.26 936.29 OFFCURVE",
"514.69 942.71 OFFCURVE",
"514.69 948.95 CURVE SMOOTH",
"514.69 987.15 OFFCURVE",
"498.67 1018.74 OFFCURVE",
"463.79 1018.74 CURVE SMOOTH",
"399.6 1018.74 OFFCURVE",
"348.85 956.7 OFFCURVE",
"320.06 901.11 CURVE",
"291.26 956.7 OFFCURVE",
"240.51 1018.74 OFFCURVE",
"176.33 1018.74 CURVE SMOOTH",
"141.45 1018.74 OFFCURVE",
"125.43 987.15 OFFCURVE",
"125.43 948.95 CURVE SMOOTH",
"125.43 942.71 OFFCURVE",
"125.86 936.29 OFFCURVE",
"126.7 929.81 CURVE SMOOTH",
"128.01 919.77 OFFCURVE",
"132.6 914.71 OFFCURVE",
"139.38 912.15 CURVE SMOOTH"
);
},
{
closed = 1;
nodes = (
"45 749.76 LINE SMOOTH",
"35.25 750 OFFCURVE",
"30 744.51 OFFCURVE",
"30 734.76 CURVE SMOOTH",
"30 704.76 LINE SMOOTH",
"30 695.01 OFFCURVE",
"35.25 689.76 OFFCURVE",
"45 689.76 CURVE SMOOTH",
"46 689.76 LINE SMOOTH",
"100.89 689.76 OFFCURVE",
"118.55 649.03 OFFCURVE",
"118.55 594.68 CURVE SMOOTH",
"118.55 155.08 LINE SMOOTH",
"118.55 102.6 OFFCURVE",
"102.08 62.81 OFFCURVE",
"51.52 60.14 CURVE SMOOTH",
"45 60 LINE SMOOTH",
"35.25 60 OFFCURVE",
"30 54.75 OFFCURVE",
"30 45 CURVE SMOOTH",
"30 15 LINE SMOOTH",
"30 5.25 OFFCURVE",
"35.25 0 OFFCURVE",
"45 0 CURVE SMOOTH",
"380.61 0 LINE SMOOTH",
"642.8 0 OFFCURVE",
"755.23 166.94 OFFCURVE",
"755.23 376.29 CURVE SMOOTH",
"755.23 612.64 OFFCURVE",
"582.86 749.76 OFFCURVE",
"352.62 749.76 CURVE SMOOTH"
);
},
{
closed = 1;
nodes = (
"278.35 689.76 LINE",
"324.68 689.76 LINE SMOOTH",
"503.46 689.76 OFFCURVE",
"603.23 573.85 OFFCURVE",
"603.23 376.29 CURVE SMOOTH",
"603.23 179.74 OFFCURVE",
"547.35 65.23 OFFCURVE",
"352.37 65.23 CURVE SMOOTH",
"279.88 65.23 OFFCURVE",
"278.35 105.73 OFFCURVE",
"278.35 160.08 CURVE SMOOTH"
);
}
);
width = 790;
}
);
leftKerningGroup = B;
note = Dcaron;
rightKerningGroup = D;
unicode = 010E;
},
{
glyphname = Dcroat;
layers = (
{
hints = (
{
horizontal = 1;
place = "{0, 65.23}";
type = Stem;
},
{
horizontal = 1;
place = "{303.38, 116.64}";
type = Stem;
},
{
horizontal = 1;
place = "{689.76, 60}";
type = Stem;
},
{
place = "{118.55, 159.8}";
type = Stem;
},
{
place = "{603.23, 152}";
type = Stem;
},
{
horizontal = 1;
place = "{0, 60}";
type = Stem;
}
);
layerId = "6AD408C6-91F3-4F0B-A103-73D10F5280D9";
paths = (
{
closed = 1;
nodes = (
"45 749.76 LINE SMOOTH",
"35.25 750 OFFCURVE",
"30 744.51 OFFCURVE",
"30 734.76 CURVE SMOOTH",
"30 704.76 LINE SMOOTH",
"30 695.01 OFFCURVE",
"35.25 689.76 OFFCURVE",
"45 689.76 CURVE SMOOTH",
"46 689.76 LINE SMOOTH",
"100.89 689.76 OFFCURVE",
"118.55 649.03 OFFCURVE",
"118.55 594.68 CURVE SMOOTH",
"118.55 420.02 LINE",
"45 420.02 LINE SMOOTH",
"35.25 420.02 OFFCURVE",
"30 414.77 OFFCURVE",
"30 405.02 CURVE SMOOTH",
"30 318.38 LINE SMOOTH",
"30 308.63 OFFCURVE",
"35.25 303.38 OFFCURVE",
"45 303.38 CURVE SMOOTH",
"118.55 303.38 LINE",
"118.55 155.08 LINE SMOOTH",
"118.55 102.6 OFFCURVE",
"102.08 62.81 OFFCURVE",
"51.52 60.14 CURVE SMOOTH",
"45 60 LINE SMOOTH",
"35.25 60 OFFCURVE",
"30 54.75 OFFCURVE",
"30 45 CURVE SMOOTH",
"30 15 LINE SMOOTH",
"30 5.25 OFFCURVE",
"35.25 0 OFFCURVE",
"45 0 CURVE SMOOTH",
"380.61 0 LINE SMOOTH",
"642.8 0 OFFCURVE",
"755.23 166.94 OFFCURVE",
"755.23 376.29 CURVE SMOOTH",
"755.23 612.64 OFFCURVE",
"582.86 749.76 OFFCURVE",
"352.62 749.76 CURVE SMOOTH"
);
},
{
closed = 1;
nodes = (
"278.35 303.38 LINE",
"489.79 303.38 LINE SMOOTH",
"499.54 303.38 OFFCURVE",
"504.79 308.63 OFFCURVE",
"504.79 318.38 CURVE SMOOTH",
"504.79 405.02 LINE SMOOTH",
"504.79 414.77 OFFCURVE",
"499.54 420.02 OFFCURVE",
"489.79 420.02 CURVE SMOOTH",
"278.35 420.02 LINE",
"278.35 689.76 LINE",
"324.68 689.76 LINE SMOOTH",
"503.46 689.76 OFFCURVE",
"603.23 573.85 OFFCURVE",
"603.23 376.29 CURVE SMOOTH",
"603.23 179.74 OFFCURVE",
"547.35 65.23 OFFCURVE",
"352.37 65.23 CURVE SMOOTH",
"279.88 65.23 OFFCURVE",
"278.35 105.73 OFFCURVE",
"278.35 160.08 CURVE SMOOTH"
);
}
);
width = 790;
}
);
leftKerningGroup = B;
note = Dcroat;
rightKerningGroup = D;
unicode = 0110;
},
{
glyphname = E;
layers = (
{
hints = (
{
horizontal = 1;
place = "{-0.31, 71.06}";
type = Stem;
},
{
horizontal = 1;
place = "{364.22, 79.8}";
type = Stem;
},
{
horizontal = 1;
place = "{678.63, 71.06}";
type = Stem;
},
{
place = "{118.55, 159.8}";
type = Stem;
},
{
place = "{460.82, 60.13}";
type = Stem;
},
{
horizontal = 1;
place = "{-0.31, 60}";
type = Stem;
},
{
horizontal = 1;
place = "{689.45, 60.24}";
type = Stem;
}
);
layerId = "6AD408C6-91F3-4F0B-A103-73D10F5280D9";
paths = (
{
closed = 1;
nodes = (
"694.45 232.55 LINE SMOOTH",
"691.34 234.35 OFFCURVE",
"688.4 235.25 OFFCURVE",
"685.67 235.25 CURVE SMOOTH",
"680.78 235.25 OFFCURVE",
"676.59 232.36 OFFCURVE",
"673.34 226.58 CURVE SMOOTH",
"670.12 221.05 LINE SMOOTH",
"582.78 77.58 OFFCURVE",
"502.87 70.75 OFFCURVE",
"411.91 70.75 CURVE SMOOTH",
"347.31 70.75 LINE SMOOTH",
"295.24 72.5 OFFCURVE",
"278.35 112.62 OFFCURVE",
"278.35 165.77 CURVE SMOOTH",
"278.35 364.22 LINE",
"365.87 364.22 LINE SMOOTH",
"418.44 364.22 OFFCURVE",
"458.27 347.7 OFFCURVE",
"460.82 296.92 CURVE",
"460.82 290.75 LINE SMOOTH",
"460.82 281 OFFCURVE",
"466.07 275.75 OFFCURVE",
"475.82 275.75 CURVE SMOOTH",
"505.95 275.75 LINE SMOOTH",
"515.7 275.75 OFFCURVE",
"520.95 281 OFFCURVE",
"520.95 290.75 CURVE SMOOTH",
"520.95 518.23 LINE SMOOTH",
"520.95 527.98 OFFCURVE",
"515.7 533.23 OFFCURVE",
"505.95 533.23 CURVE SMOOTH",
"475.82 533.23 LINE SMOOTH",
"466.07 533.23 OFFCURVE",
"460.82 527.98 OFFCURVE",
"460.82 518.23 CURVE SMOOTH",
"460.82 511.31 LINE",
"458.27 460.54 OFFCURVE",
"418.44 444.02 OFFCURVE",
"365.87 444.02 CURVE SMOOTH",
"272.35 444.02 LINE",
"272.35 678.63 LINE",
"440.3 678.63 LINE SMOOTH",
"521.45 678.63 OFFCURVE",
"561.88 651.16 OFFCURVE",
"599.62 586.33 CURVE SMOOTH",
"602.84 580.8 LINE SMOOTH",
"606.07 575.25 OFFCURVE",
"610.25 572.43 OFFCURVE",
"615.11 572.43 CURVE SMOOTH",
"617.85 572.43 OFFCURVE",
"620.81 573.33 OFFCURVE",
"623.95 575.15 CURVE SMOOTH",
"665.82 597.62 LINE SMOOTH",
"671.38 600.84 OFFCURVE",
"674.22 605.02 OFFCURVE",
"674.22 609.89 CURVE SMOOTH",
"674.22 612.64 OFFCURVE",
"673.32 615.6 OFFCURVE",
"671.48 618.73 CURVE SMOOTH",
"591.78 755.12 LINE SMOOTH",
"588.68 760.22 OFFCURVE",
"584.1 763.29 OFFCURVE",
"579.18 763.29 CURVE SMOOTH",
"576.38 763.29 OFFCURVE",
"573.47 762.3 OFFCURVE",
"570.67 760.12 CURVE",
"565.1 755.12 LINE SMOOTH",
"559.29 749.72 OFFCURVE",
"553.37 749.69 OFFCURVE",
"545.94 749.69 CURVE SMOOTH",
"45 749.69 LINE SMOOTH",
"35.25 749.69 OFFCURVE",
"30 744.2 OFFCURVE",
"30 734.45 CURVE SMOOTH",
"30 704.45 LINE SMOOTH",
"30 694.7 OFFCURVE",
"35.25 689.45 OFFCURVE",
"45 689.45 CURVE SMOOTH",
"46 689.45 LINE SMOOTH",
"100.89 689.45 OFFCURVE",
"118.55 648.72 OFFCURVE",
"118.55 594.37 CURVE SMOOTH",
"118.55 154.77 LINE SMOOTH",
"118.55 100.42 OFFCURVE",
"100.89 59.69 OFFCURVE",
"46 59.69 CURVE SMOOTH",
"45 59.69 LINE SMOOTH",
"35.25 59.69 OFFCURVE",
"30 54.44 OFFCURVE",
"30 44.69 CURVE SMOOTH",
"30 14.69 LINE SMOOTH",
"30 4.94 OFFCURVE",
"35.25 -0.31 OFFCURVE",
"45 -0.31 CURVE SMOOTH",
"592.44 -0.31 LINE SMOOTH",
"599.88 -0.31 OFFCURVE",
"605.79 -0.31 OFFCURVE",
"611.6 -5.31 CURVE SMOOTH",
"617.17 -10.31 LINE SMOOTH",
"620.1 -12.96 OFFCURVE",
"623.25 -14.18 OFFCURVE",
"626.26 -14.18 CURVE SMOOTH",
"631.19 -14.18 OFFCURVE",
"635.74 -10.9 OFFCURVE",
"638.28 -5.31 CURVE SMOOTH",
"731.98 192.66 LINE",
"733.82 195.79 OFFCURVE",
"734.72 198.75 OFFCURVE",
"734.72 201.49 CURVE SMOOTH",
"734.72 206.36 OFFCURVE",
"731.88 210.55 OFFCURVE",
"726.32 213.77 CURVE SMOOTH"
);
}
);
width = 755;
}
);
leftKerningGroup = B;
note = E;
rightKerningGroup = AE;
unicode = 0045;
},
{
glyphname = Eacute;
layers = (
{
hints = (
{
horizontal = 1;
place = "{-0.31, 71.06}";
type = Stem;
},
{
horizontal = 1;
place = "{364.22, 79.8}";
type = Stem;
},
{
horizontal = 1;
place = "{678.63, 71.06}";
type = Stem;
},
{
place = "{118.55, 159.8}";
type = Stem;
},
{
place = "{460.82, 60.13}";
type = Stem;
},
{
horizontal = 1;
place = "{-0.31, 60}";
type = Stem;
},
{
horizontal = 1;
place = "{689.45, 60.24}";
type = Stem;
}
);
layerId = "6AD408C6-91F3-4F0B-A103-73D10F5280D9";
paths = (
{
closed = 1;
nodes = (
"344.61 810.23 LINE SMOOTH",
"347.94 808.63 OFFCURVE",
"350.93 807.81 OFFCURVE",
"354.03 807.81 CURVE SMOOTH",
"356.22 807.81 OFFCURVE",
"358.47 808.22 OFFCURVE",
"360.92 809.06 CURVE SMOOTH",
"420.65 829.5 OFFCURVE",
"521.73 889.54 OFFCURVE",
"521.73 971.46 CURVE SMOOTH",
"521.73 1006.34 OFFCURVE",
"490.14 1022.36 OFFCURVE",
"451.94 1022.36 CURVE SMOOTH",
"445.7 1022.36 OFFCURVE",
"439.28 1021.93 OFFCURVE",
"432.8 1021.09 CURVE SMOOTH",
"422.75 1019.78 OFFCURVE",
"417.69 1015.19 OFFCURVE",
"415.14 1008.41 CURVE SMOOTH",
"390.21 942.93 OFFCURVE",
"371.58 908.74 OFFCURVE",
"308.22 827.73 CURVE"
);
},
{
closed = 1;
nodes = (
"694.45 232.55 LINE SMOOTH",
"691.34 234.35 OFFCURVE",
"688.4 235.25 OFFCURVE",
"685.67 235.25 CURVE SMOOTH",
"680.78 235.25 OFFCURVE",
"676.59 232.36 OFFCURVE",
"673.34 226.58 CURVE SMOOTH",
"670.12 221.05 LINE SMOOTH",
"582.78 77.58 OFFCURVE",
"502.87 70.75 OFFCURVE",
"411.91 70.75 CURVE SMOOTH",
"347.31 70.75 LINE SMOOTH",
"295.24 72.5 OFFCURVE",
"278.35 112.62 OFFCURVE",
"278.35 165.77 CURVE SMOOTH",
"278.35 364.22 LINE",
"365.87 364.22 LINE SMOOTH",
"418.44 364.22 OFFCURVE",
"458.27 347.7 OFFCURVE",
"460.82 296.92 CURVE",
"460.82 290.75 LINE SMOOTH",
"460.82 281 OFFCURVE",
"466.07 275.75 OFFCURVE",
"475.82 275.75 CURVE SMOOTH",
"505.95 275.75 LINE SMOOTH",
"515.7 275.75 OFFCURVE",
"520.95 281 OFFCURVE",
"520.95 290.75 CURVE SMOOTH",
"520.95 518.23 LINE SMOOTH",
"520.95 527.98 OFFCURVE",
"515.7 533.23 OFFCURVE",
"505.95 533.23 CURVE SMOOTH",
"475.82 533.23 LINE SMOOTH",
"466.07 533.23 OFFCURVE",
"460.82 527.98 OFFCURVE",
"460.82 518.23 CURVE SMOOTH",
"460.82 511.31 LINE",
"458.27 460.54 OFFCURVE",
"418.44 444.02 OFFCURVE",
"365.87 444.02 CURVE SMOOTH",
"272.35 444.02 LINE",
"272.35 678.63 LINE",
"440.3 678.63 LINE SMOOTH",
"521.45 678.63 OFFCURVE",
"561.88 651.16 OFFCURVE",
"599.62 586.33 CURVE SMOOTH",
"602.84 580.8 LINE SMOOTH",
"606.07 575.25 OFFCURVE",
"610.25 572.43 OFFCURVE",
"615.11 572.43 CURVE SMOOTH",
"617.85 572.43 OFFCURVE",
"620.81 573.33 OFFCURVE",
"623.95 575.15 CURVE SMOOTH",
"665.82 597.62 LINE SMOOTH",
"671.38 600.84 OFFCURVE",
"674.22 605.02 OFFCURVE",
"674.22 609.89 CURVE SMOOTH",
"674.22 612.64 OFFCURVE",
"673.32 615.6 OFFCURVE",
"671.48 618.73 CURVE SMOOTH",
"591.78 755.12 LINE SMOOTH",
"588.68 760.22 OFFCURVE",
"584.1 763.29 OFFCURVE",
"579.18 763.29 CURVE SMOOTH",
"576.38 763.29 OFFCURVE",
"573.47 762.3 OFFCURVE",
"570.67 760.12 CURVE",
"565.1 755.12 LINE SMOOTH",
"559.29 749.72 OFFCURVE",
"553.37 749.69 OFFCURVE",
"545.94 749.69 CURVE SMOOTH",
"45 749.69 LINE SMOOTH",
"35.25 749.69 OFFCURVE",
"30 744.2 OFFCURVE",
"30 734.45 CURVE SMOOTH",
"30 704.45 LINE SMOOTH",
"30 694.7 OFFCURVE",
"35.25 689.45 OFFCURVE",
"45 689.45 CURVE SMOOTH",
"46 689.45 LINE SMOOTH",
"100.89 689.45 OFFCURVE",
"118.55 648.72 OFFCURVE",
"118.55 594.37 CURVE SMOOTH",
"118.55 154.77 LINE SMOOTH",
"118.55 100.42 OFFCURVE",
"100.89 59.69 OFFCURVE",
"46 59.69 CURVE SMOOTH",
"45 59.69 LINE SMOOTH",
"35.25 59.69 OFFCURVE",
"30 54.44 OFFCURVE",
"30 44.69 CURVE SMOOTH",
"30 14.69 LINE SMOOTH",
"30 4.94 OFFCURVE",
"35.25 -0.31 OFFCURVE",
"45 -0.31 CURVE SMOOTH",
"592.44 -0.31 LINE SMOOTH",
"599.88 -0.31 OFFCURVE",
"605.79 -0.31 OFFCURVE",
"611.6 -5.31 CURVE SMOOTH",
"617.17 -10.31 LINE SMOOTH",
"620.1 -12.96 OFFCURVE",
"623.25 -14.18 OFFCURVE",
"626.26 -14.18 CURVE SMOOTH",
"631.19 -14.18 OFFCURVE",
"635.74 -10.9 OFFCURVE",
"638.28 -5.31 CURVE SMOOTH",
"731.98 192.66 LINE",
"733.82 195.79 OFFCURVE",
"734.72 198.75 OFFCURVE",
"734.72 201.49 CURVE SMOOTH",
"734.72 206.36 OFFCURVE",
"731.88 210.55 OFFCURVE",
"726.32 213.77 CURVE SMOOTH"
);
}
);
width = 755;
}
);
leftKerningGroup = B;
note = Eacute;
rightKerningGroup = AE;
unicode = 00C9;
},
{
glyphname = Ecaron;
layers = (
{
hints = (
{
horizontal = 1;
place = "{-0.31, 71.06}";
type = Stem;
},
{
horizontal = 1;
place = "{364.22, 79.8}";
type = Stem;
},
{
horizontal = 1;
place = "{678.63, 71.06}";
type = Stem;
},
{
place = "{118.55, 159.8}";
type = Stem;
},
{
place = "{460.82, 60.13}";
type = Stem;
},
{
horizontal = 1;
place = "{-0.31, 60}";
type = Stem;
},
{
horizontal = 1;
place = "{689.45, 60.24}";
type = Stem;
}
);
layerId = "6AD408C6-91F3-4F0B-A103-73D10F5280D9";
paths = (
{
closed = 1;
nodes = (
"268.35 887.22 OFFCURVE",
"302.54 868.6 OFFCURVE",
"383.55 805.24 CURVE",
"464.56 868.6 OFFCURVE",
"498.75 887.22 OFFCURVE",
"564.23 912.15 CURVE SMOOTH",
"571.01 914.71 OFFCURVE",
"575.6 919.77 OFFCURVE",
"576.91 929.81 CURVE SMOOTH",
"577.75 936.29 OFFCURVE",
"578.18 942.71 OFFCURVE",
"578.18 948.95 CURVE SMOOTH",
"578.18 987.15 OFFCURVE",
"562.16 1018.74 OFFCURVE",
"527.28 1018.74 CURVE SMOOTH",
"463.1 1018.74 OFFCURVE",
"412.35 956.7 OFFCURVE",
"383.55 901.11 CURVE",
"354.75 956.7 OFFCURVE",
"304 1018.74 OFFCURVE",
"239.82 1018.74 CURVE SMOOTH",
"204.94 1018.74 OFFCURVE",
"188.92 987.15 OFFCURVE",
"188.92 948.95 CURVE SMOOTH",
"188.92 942.71 OFFCURVE",
"189.35 936.29 OFFCURVE",
"190.19 929.81 CURVE SMOOTH",
"191.5 919.77 OFFCURVE",
"196.09 914.71 OFFCURVE",
"202.87 912.15 CURVE SMOOTH"
);
},
{
closed = 1;
nodes = (
"694.45 232.55 LINE SMOOTH",
"691.34 234.35 OFFCURVE",
"688.4 235.25 OFFCURVE",
"685.67 235.25 CURVE SMOOTH",
"680.78 235.25 OFFCURVE",
"676.59 232.36 OFFCURVE",
"673.34 226.58 CURVE SMOOTH",
"670.12 221.05 LINE SMOOTH",
"582.78 77.58 OFFCURVE",
"502.87 70.75 OFFCURVE",
"411.91 70.75 CURVE SMOOTH",
"347.31 70.75 LINE SMOOTH",
"295.24 72.5 OFFCURVE",
"278.35 112.62 OFFCURVE",
"278.35 165.77 CURVE SMOOTH",
"278.35 364.22 LINE",
"365.87 364.22 LINE SMOOTH",
"418.44 364.22 OFFCURVE",
"458.27 347.7 OFFCURVE",
"460.82 296.92 CURVE",
"460.82 290.75 LINE SMOOTH",
"460.82 281 OFFCURVE",
"466.07 275.75 OFFCURVE",
"475.82 275.75 CURVE SMOOTH",
"505.95 275.75 LINE SMOOTH",
"515.7 275.75 OFFCURVE",
"520.95 281 OFFCURVE",
"520.95 290.75 CURVE SMOOTH",
"520.95 518.23 LINE SMOOTH",
"520.95 527.98 OFFCURVE",
"515.7 533.23 OFFCURVE",
"505.95 533.23 CURVE SMOOTH",
"475.82 533.23 LINE SMOOTH",
"466.07 533.23 OFFCURVE",
"460.82 527.98 OFFCURVE",
"460.82 518.23 CURVE SMOOTH",
"460.82 511.31 LINE",
"458.27 460.54 OFFCURVE",
"418.44 444.02 OFFCURVE",
"365.87 444.02 CURVE SMOOTH",
"272.35 444.02 LINE",
"272.35 678.63 LINE",
"440.3 678.63 LINE SMOOTH",
"521.45 678.63 OFFCURVE",
"561.88 651.16 OFFCURVE",
"599.62 586.33 CURVE SMOOTH",
"602.84 580.8 LINE SMOOTH",
"606.07 575.25 OFFCURVE",
"610.25 572.43 OFFCURVE",
"615.11 572.43 CURVE SMOOTH",
"617.85 572.43 OFFCURVE",
"620.81 573.33 OFFCURVE",
"623.95 575.15 CURVE SMOOTH",
"665.82 597.62 LINE SMOOTH",
"671.38 600.84 OFFCURVE",
"674.22 605.02 OFFCURVE",
"674.22 609.89 CURVE SMOOTH",
"674.22 612.64 OFFCURVE",
"673.32 615.6 OFFCURVE",
"671.48 618.73 CURVE SMOOTH",
"591.78 755.12 LINE SMOOTH",
"588.68 760.22 OFFCURVE",
"584.1 763.29 OFFCURVE",
"579.18 763.29 CURVE SMOOTH",
"576.38 763.29 OFFCURVE",
"573.47 762.3 OFFCURVE",
"570.67 760.12 CURVE",
"565.1 755.12 LINE SMOOTH",
"559.29 749.72 OFFCURVE",
"553.37 749.69 OFFCURVE",
"545.94 749.69 CURVE SMOOTH",
"45 749.69 LINE SMOOTH",
"35.25 749.69 OFFCURVE",
"30 744.2 OFFCURVE",
"30 734.45 CURVE SMOOTH",
"30 704.45 LINE SMOOTH",
"30 694.7 OFFCURVE",
"35.25 689.45 OFFCURVE",
"45 689.45 CURVE SMOOTH",
"46 689.45 LINE SMOOTH",
"100.89 689.45 OFFCURVE",
"118.55 648.72 OFFCURVE",
"118.55 594.37 CURVE SMOOTH",
"118.55 154.77 LINE SMOOTH",
"118.55 100.42 OFFCURVE",
"100.89 59.69 OFFCURVE",
"46 59.69 CURVE SMOOTH",
"45 59.69 LINE SMOOTH",
"35.25 59.69 OFFCURVE",
"30 54.44 OFFCURVE",
"30 44.69 CURVE SMOOTH",
"30 14.69 LINE SMOOTH",
"30 4.94 OFFCURVE",
"35.25 -0.31 OFFCURVE",
"45 -0.31 CURVE SMOOTH",
"592.44 -0.31 LINE SMOOTH",
"599.88 -0.31 OFFCURVE",
"605.79 -0.31 OFFCURVE",
"611.6 -5.31 CURVE SMOOTH",
"617.17 -10.31 LINE SMOOTH",
"620.1 -12.96 OFFCURVE",
"623.25 -14.18 OFFCURVE",
"626.26 -14.18 CURVE SMOOTH",
"631.19 -14.18 OFFCURVE",
"635.74 -10.9 OFFCURVE",
"638.28 -5.31 CURVE SMOOTH",
"731.98 192.66 LINE",
"733.82 195.79 OFFCURVE",
"734.72 198.75 OFFCURVE",
"734.72 201.49 CURVE SMOOTH",
"734.72 206.36 OFFCURVE",
"731.88 210.55 OFFCURVE",
"726.32 213.77 CURVE SMOOTH"
);
}
);
width = 755;
}
);
leftKerningGroup = B;
note = Ecaron;
rightKerningGroup = AE;
unicode = 011A;
},
{
glyphname = Ecircumflex;
layers = (
{
hints = (
{
horizontal = 1;
place = "{-0.31, 71.06}";
type = Stem;
},
{
horizontal = 1;
place = "{364.22, 79.8}";
type = Stem;
},
{
horizontal = 1;
place = "{678.63, 71.06}";
type = Stem;
},
{
place = "{118.55, 159.8}";
type = Stem;
},
{
place = "{460.82, 60.13}";
type = Stem;
},
{
horizontal = 1;
place = "{-0.31, 60}";
type = Stem;
},
{
horizontal = 1;
place = "{689.45, 60.24}";
type = Stem;
}
);
layerId = "6AD408C6-91F3-4F0B-A103-73D10F5280D9";
paths = (
{
closed = 1;
nodes = (
"304 805.24 OFFCURVE",
"354.75 867.28 OFFCURVE",
"383.55 922.87 CURVE",
"412.35 867.28 OFFCURVE",
"463.1 805.24 OFFCURVE",
"527.28 805.24 CURVE SMOOTH",
"562.16 805.24 OFFCURVE",
"578.18 836.83 OFFCURVE",
"578.18 875.03 CURVE SMOOTH",
"578.18 881.27 OFFCURVE",
"577.75 887.69 OFFCURVE",
"576.91 894.17 CURVE SMOOTH",
"575.6 904.21 OFFCURVE",
"571.01 909.27 OFFCURVE",
"564.23 911.83 CURVE SMOOTH",
"498.75 936.76 OFFCURVE",
"464.56 955.38 OFFCURVE",
"383.55 1018.74 CURVE",
"302.54 955.38 OFFCURVE",
"268.35 936.76 OFFCURVE",
"202.87 911.83 CURVE SMOOTH",
"196.09 909.27 OFFCURVE",
"191.5 904.21 OFFCURVE",
"190.19 894.17 CURVE SMOOTH",
"189.35 887.69 OFFCURVE",
"188.92 881.27 OFFCURVE",
"188.92 875.03 CURVE SMOOTH",
"188.92 836.83 OFFCURVE",
"204.94 805.24 OFFCURVE",
"239.82 805.24 CURVE SMOOTH"
);
},
{
closed = 1;
nodes = (
"694.45 232.55 LINE SMOOTH",
"691.34 234.35 OFFCURVE",
"688.4 235.25 OFFCURVE",
"685.67 235.25 CURVE SMOOTH",
"680.78 235.25 OFFCURVE",
"676.59 232.36 OFFCURVE",
"673.34 226.58 CURVE SMOOTH",
"670.12 221.05 LINE SMOOTH",
"582.78 77.58 OFFCURVE",
"502.87 70.75 OFFCURVE",
"411.91 70.75 CURVE SMOOTH",
"347.31 70.75 LINE SMOOTH",
"295.24 72.5 OFFCURVE",
"278.35 112.62 OFFCURVE",
"278.35 165.77 CURVE SMOOTH",
"278.35 364.22 LINE",
"365.87 364.22 LINE SMOOTH",
"418.44 364.22 OFFCURVE",
"458.27 347.7 OFFCURVE",
"460.82 296.92 CURVE",
"460.82 290.75 LINE SMOOTH",
"460.82 281 OFFCURVE",
"466.07 275.75 OFFCURVE",
"475.82 275.75 CURVE SMOOTH",
"505.95 275.75 LINE SMOOTH",
"515.7 275.75 OFFCURVE",
"520.95 281 OFFCURVE",
"520.95 290.75 CURVE SMOOTH",
"520.95 518.23 LINE SMOOTH",
"520.95 527.98 OFFCURVE",
"515.7 533.23 OFFCURVE",
"505.95 533.23 CURVE SMOOTH",
"475.82 533.23 LINE SMOOTH",
"466.07 533.23 OFFCURVE",
"460.82 527.98 OFFCURVE",
"460.82 518.23 CURVE SMOOTH",
"460.82 511.31 LINE",
"458.27 460.54 OFFCURVE",
"418.44 444.02 OFFCURVE",
"365.87 444.02 CURVE SMOOTH",
"272.35 444.02 LINE",
"272.35 678.63 LINE",
"440.3 678.63 LINE SMOOTH",
"521.45 678.63 OFFCURVE",
"561.88 651.16 OFFCURVE",
"599.62 586.33 CURVE SMOOTH",
"602.84 580.8 LINE SMOOTH",
"606.07 575.25 OFFCURVE",
"610.25 572.43 OFFCURVE",
"615.11 572.43 CURVE SMOOTH",
"617.85 572.43 OFFCURVE",
"620.81 573.33 OFFCURVE",
"623.95 575.15 CURVE SMOOTH",
"665.82 597.62 LINE SMOOTH",
"671.38 600.84 OFFCURVE",
"674.22 605.02 OFFCURVE",
"674.22 609.89 CURVE SMOOTH",
"674.22 612.64 OFFCURVE",
"673.32 615.6 OFFCURVE",
"671.48 618.73 CURVE SMOOTH",
"591.78 755.12 LINE SMOOTH",
"588.68 760.22 OFFCURVE",
"584.1 763.29 OFFCURVE",
"579.18 763.29 CURVE SMOOTH",
"576.38 763.29 OFFCURVE",
"573.47 762.3 OFFCURVE",
"570.67 760.12 CURVE",
"565.1 755.12 LINE SMOOTH",
"559.29 749.72 OFFCURVE",
"553.37 749.69 OFFCURVE",
"545.94 749.69 CURVE SMOOTH",
"45 749.69 LINE SMOOTH",
"35.25 749.69 OFFCURVE",
"30 744.2 OFFCURVE",
"30 734.45 CURVE SMOOTH",
"30 704.45 LINE SMOOTH",
"30 694.7 OFFCURVE",
"35.25 689.45 OFFCURVE",
"45 689.45 CURVE SMOOTH",
"46 689.45 LINE SMOOTH",
"100.89 689.45 OFFCURVE",
"118.55 648.72 OFFCURVE",
"118.55 594.37 CURVE SMOOTH",
"118.55 154.77 LINE SMOOTH",
"118.55 100.42 OFFCURVE",
"100.89 59.69 OFFCURVE",
"46 59.69 CURVE SMOOTH",
"45 59.69 LINE SMOOTH",
"35.25 59.69 OFFCURVE",
"30 54.44 OFFCURVE",
"30 44.69 CURVE SMOOTH",
"30 14.69 LINE SMOOTH",
"30 4.94 OFFCURVE",
"35.25 -0.31 OFFCURVE",
"45 -0.31 CURVE SMOOTH",
"592.44 -0.31 LINE SMOOTH",
"599.88 -0.31 OFFCURVE",
"605.79 -0.31 OFFCURVE",
"611.6 -5.31 CURVE SMOOTH",
"617.17 -10.31 LINE SMOOTH",
"620.1 -12.96 OFFCURVE",
"623.25 -14.18 OFFCURVE",
"626.26 -14.18 CURVE SMOOTH",
"631.19 -14.18 OFFCURVE",
"635.74 -10.9 OFFCURVE",
"638.28 -5.31 CURVE SMOOTH",
"731.98 192.66 LINE",
"733.82 195.79 OFFCURVE",
"734.72 198.75 OFFCURVE",
"734.72 201.49 CURVE SMOOTH",
"734.72 206.36 OFFCURVE",
"731.88 210.55 OFFCURVE",
"726.32 213.77 CURVE SMOOTH"
);
}
);
width = 755;
}
);
leftKerningGroup = B;
note = Ecircumflex;
rightKerningGroup = AE;
unicode = 00CA;
},
{
glyphname = Edieresis;
layers = (
{
hints = (
{
horizontal = 1;
place = "{-0.31, 71.06}";
type = Stem;
},
{
horizontal = 1;
place = "{364.22, 79.8}";
type = Stem;
},
{
horizontal = 1;
place = "{678.63, 71.06}";
type = Stem;
},
{
horizontal = 1;
place = "{839.69, 150.26}";
type = Stem;
},
{
place = "{193.51, 150.26}";
type = Stem;
},
{
place = "{426.22, 150.27}";
type = Stem;
},
{
place = "{118.55, 159.8}";
type = Stem;
},
{
place = "{460.82, 60.13}";
type = Stem;
},
{
horizontal = 1;
place = "{-0.31, 60}";
type = Stem;
},
{
horizontal = 1;
place = "{689.45, 60.24}";
type = Stem;
}
);
layerId = "6AD408C6-91F3-4F0B-A103-73D10F5280D9";
paths = (
{
closed = 1;
nodes = (
"286.5 839.69 OFFCURVE",
"301 846.92 OFFCURVE",
"318.77 864.69 CURVE SMOOTH",
"336.54 882.46 OFFCURVE",
"343.77 896.96 OFFCURVE",
"343.77 914.82 CURVE SMOOTH",
"343.77 932.68 OFFCURVE",
"336.54 947.18 OFFCURVE",
"318.77 964.95 CURVE SMOOTH",
"301 982.72 OFFCURVE",
"286.5 989.95 OFFCURVE",
"268.64 989.95 CURVE SMOOTH",
"250.78 989.95 OFFCURVE",
"236.28 982.72 OFFCURVE",
"218.51 964.95 CURVE SMOOTH",
"200.74 947.18 OFFCURVE",
"193.51 932.68 OFFCURVE",
"193.51 914.82 CURVE SMOOTH",
"193.51 896.96 OFFCURVE",
"200.74 882.46 OFFCURVE",
"218.51 864.69 CURVE SMOOTH",
"236.28 846.92 OFFCURVE",
"250.78 839.69 OFFCURVE",
"268.64 839.69 CURVE SMOOTH"
);
},
{
closed = 1;
nodes = (
"519.22 839.69 OFFCURVE",
"533.72 846.92 OFFCURVE",
"551.49 864.69 CURVE SMOOTH",
"569.25 882.46 OFFCURVE",
"576.49 896.96 OFFCURVE",
"576.49 914.82 CURVE SMOOTH",
"576.49 932.68 OFFCURVE",
"569.25 947.18 OFFCURVE",
"551.49 964.95 CURVE SMOOTH",
"533.72 982.72 OFFCURVE",
"519.22 989.95 OFFCURVE",
"501.35 989.95 CURVE SMOOTH",
"483.49 989.95 OFFCURVE",
"468.99 982.72 OFFCURVE",
"451.22 964.95 CURVE SMOOTH",
"433.46 947.18 OFFCURVE",
"426.22 932.68 OFFCURVE",
"426.22 914.82 CURVE SMOOTH",
"426.22 896.96 OFFCURVE",
"433.45 882.46 OFFCURVE",
"451.22 864.69 CURVE SMOOTH",
"468.99 846.92 OFFCURVE",
"483.49 839.69 OFFCURVE",
"501.35 839.69 CURVE SMOOTH"
);
},
{
closed = 1;
nodes = (
"694.45 232.55 LINE SMOOTH",
"691.34 234.35 OFFCURVE",
"688.4 235.25 OFFCURVE",
"685.67 235.25 CURVE SMOOTH",
"680.78 235.25 OFFCURVE",
"676.59 232.36 OFFCURVE",
"673.34 226.58 CURVE SMOOTH",
"670.12 221.05 LINE SMOOTH",
"582.78 77.58 OFFCURVE",
"502.87 70.75 OFFCURVE",
"411.91 70.75 CURVE SMOOTH",
"347.31 70.75 LINE SMOOTH",
"295.24 72.5 OFFCURVE",
"278.35 112.62 OFFCURVE",
"278.35 165.77 CURVE SMOOTH",
"278.35 364.22 LINE",
"365.87 364.22 LINE SMOOTH",
"418.44 364.22 OFFCURVE",
"458.27 347.7 OFFCURVE",
"460.82 296.92 CURVE",
"460.82 290.75 LINE SMOOTH",
"460.82 281 OFFCURVE",
"466.07 275.75 OFFCURVE",
"475.82 275.75 CURVE SMOOTH",
"505.95 275.75 LINE SMOOTH",
"515.7 275.75 OFFCURVE",
"520.95 281 OFFCURVE",
"520.95 290.75 CURVE SMOOTH",
"520.95 518.23 LINE SMOOTH",
"520.95 527.98 OFFCURVE",
"515.7 533.23 OFFCURVE",
"505.95 533.23 CURVE SMOOTH",
"475.82 533.23 LINE SMOOTH",
"466.07 533.23 OFFCURVE",
"460.82 527.98 OFFCURVE",
"460.82 518.23 CURVE SMOOTH",
"460.82 511.31 LINE",
"458.27 460.54 OFFCURVE",
"418.44 444.02 OFFCURVE",
"365.87 444.02 CURVE SMOOTH",
"272.35 444.02 LINE",
"272.35 678.63 LINE",
"440.3 678.63 LINE SMOOTH",
"521.45 678.63 OFFCURVE",
"561.88 651.16 OFFCURVE",
"599.62 586.33 CURVE SMOOTH",
"602.84 580.8 LINE SMOOTH",
"606.07 575.25 OFFCURVE",
"610.25 572.43 OFFCURVE",
"615.11 572.43 CURVE SMOOTH",
"617.85 572.43 OFFCURVE",
"620.81 573.33 OFFCURVE",
"623.95 575.15 CURVE SMOOTH",
"665.82 597.62 LINE SMOOTH",
"671.38 600.84 OFFCURVE",
"674.22 605.02 OFFCURVE",
"674.22 609.89 CURVE SMOOTH",
"674.22 612.64 OFFCURVE",
"673.32 615.6 OFFCURVE",
"671.48 618.73 CURVE SMOOTH",
"591.78 755.12 LINE SMOOTH",
"588.68 760.22 OFFCURVE",
"584.1 763.29 OFFCURVE",
"579.18 763.29 CURVE SMOOTH",
"576.38 763.29 OFFCURVE",
"573.47 762.3 OFFCURVE",
"570.67 760.12 CURVE",
"565.1 755.12 LINE SMOOTH",
"559.29 749.72 OFFCURVE",
"553.37 749.69 OFFCURVE",
"545.94 749.69 CURVE SMOOTH",
"45 749.69 LINE SMOOTH",
"35.25 749.69 OFFCURVE",
"30 744.2 OFFCURVE",
"30 734.45 CURVE SMOOTH",
"30 704.45 LINE SMOOTH",
"30 694.7 OFFCURVE",
"35.25 689.45 OFFCURVE",
"45 689.45 CURVE SMOOTH",
"46 689.45 LINE SMOOTH",
"100.89 689.45 OFFCURVE",
"118.55 648.72 OFFCURVE",
"118.55 594.37 CURVE SMOOTH",
"118.55 154.77 LINE SMOOTH",
"118.55 100.42 OFFCURVE",
"100.89 59.69 OFFCURVE",
"46 59.69 CURVE SMOOTH",
"45 59.69 LINE SMOOTH",
"35.25 59.69 OFFCURVE",
"30 54.44 OFFCURVE",
"30 44.69 CURVE SMOOTH",
"30 14.69 LINE SMOOTH",
"30 4.94 OFFCURVE",
"35.25 -0.31 OFFCURVE",
"45 -0.31 CURVE SMOOTH",
"592.44 -0.31 LINE SMOOTH",
"599.88 -0.31 OFFCURVE",
"605.79 -0.31 OFFCURVE",
"611.6 -5.31 CURVE SMOOTH",
"617.17 -10.31 LINE SMOOTH",
"620.1 -12.96 OFFCURVE",
"623.25 -14.18 OFFCURVE",
"626.26 -14.18 CURVE SMOOTH",
"631.19 -14.18 OFFCURVE",
"635.74 -10.9 OFFCURVE",
"638.28 -5.31 CURVE SMOOTH",
"731.98 192.66 LINE",
"733.82 195.79 OFFCURVE",
"734.72 198.75 OFFCURVE",
"734.72 201.49 CURVE SMOOTH",
"734.72 206.36 OFFCURVE",
"731.88 210.55 OFFCURVE",
"726.32 213.77 CURVE SMOOTH"
);
}
);
width = 755;
}
);
leftKerningGroup = B;
note = Edieresis;
rightKerningGroup = AE;
unicode = 00CB;
},
{
glyphname = Edotaccent;
layers = (
{
hints = (
{
horizontal = 1;
place = "{-0.31, 71.06}";
type = Stem;
},
{
horizontal = 1;
place = "{364.22, 79.8}";
type = Stem;
},
{
horizontal = 1;
place = "{678.63, 71.06}";
type = Stem;
},
{
horizontal = 1;
place = "{839.69, 150.26}";
type = Stem;
},
{
place = "{118.55, 159.8}";
type = Stem;
},
{
place = "{308.42, 150.26}";
type = Stem;
},
{
place = "{460.82, 60.13}";
type = Stem;
},
{
horizontal = 1;
place = "{-0.31, 60}";
type = Stem;
},
{
horizontal = 1;
place = "{689.45, 60.24}";
type = Stem;
}
);
layerId = "6AD408C6-91F3-4F0B-A103-73D10F5280D9";
paths = (
{
closed = 1;
nodes = (
"401.41 839.69 OFFCURVE",
"415.91 846.92 OFFCURVE",
"433.68 864.69 CURVE SMOOTH",
"451.45 882.46 OFFCURVE",
"458.68 896.96 OFFCURVE",
"458.68 914.82 CURVE SMOOTH",
"458.68 932.68 OFFCURVE",
"451.45 947.18 OFFCURVE",
"433.68 964.95 CURVE SMOOTH",
"415.91 982.72 OFFCURVE",
"401.41 989.95 OFFCURVE",
"383.55 989.95 CURVE SMOOTH",
"365.69 989.95 OFFCURVE",
"351.19 982.72 OFFCURVE",
"333.42 964.95 CURVE SMOOTH",
"315.65 947.18 OFFCURVE",
"308.42 932.68 OFFCURVE",
"308.42 914.82 CURVE SMOOTH",
"308.42 896.96 OFFCURVE",
"315.65 882.46 OFFCURVE",
"333.42 864.69 CURVE SMOOTH",
"351.19 846.92 OFFCURVE",
"365.69 839.69 OFFCURVE",
"383.55 839.69 CURVE SMOOTH"
);
},
{
closed = 1;
nodes = (
"694.45 232.55 LINE SMOOTH",
"691.34 234.35 OFFCURVE",
"688.4 235.25 OFFCURVE",
"685.67 235.25 CURVE SMOOTH",
"680.78 235.25 OFFCURVE",
"676.59 232.36 OFFCURVE",
"673.34 226.58 CURVE SMOOTH",
"670.12 221.05 LINE SMOOTH",
"582.78 77.58 OFFCURVE",
"502.87 70.75 OFFCURVE",
"411.91 70.75 CURVE SMOOTH",
"347.31 70.75 LINE SMOOTH",
"295.24 72.5 OFFCURVE",
"278.35 112.62 OFFCURVE",
"278.35 165.77 CURVE SMOOTH",
"278.35 364.22 LINE",
"365.87 364.22 LINE SMOOTH",
"418.44 364.22 OFFCURVE",
"458.27 347.7 OFFCURVE",
"460.82 296.92 CURVE",
"460.82 290.75 LINE SMOOTH",
"460.82 281 OFFCURVE",
"466.07 275.75 OFFCURVE",
"475.82 275.75 CURVE SMOOTH",
"505.95 275.75 LINE SMOOTH",
"515.7 275.75 OFFCURVE",
"520.95 281 OFFCURVE",
"520.95 290.75 CURVE SMOOTH",
"520.95 518.23 LINE SMOOTH",
"520.95 527.98 OFFCURVE",
"515.7 533.23 OFFCURVE",
"505.95 533.23 CURVE SMOOTH",
"475.82 533.23 LINE SMOOTH",
"466.07 533.23 OFFCURVE",
"460.82 527.98 OFFCURVE",
"460.82 518.23 CURVE SMOOTH",
"460.82 511.31 LINE",
"458.27 460.54 OFFCURVE",
"418.44 444.02 OFFCURVE",
"365.87 444.02 CURVE SMOOTH",
"272.35 444.02 LINE",
"272.35 678.63 LINE",
"440.3 678.63 LINE SMOOTH",
"521.45 678.63 OFFCURVE",
"561.88 651.16 OFFCURVE",
"599.62 586.33 CURVE SMOOTH",
"602.84 580.8 LINE SMOOTH",
"606.07 575.25 OFFCURVE",
"610.25 572.43 OFFCURVE",
"615.11 572.43 CURVE SMOOTH",
"617.85 572.43 OFFCURVE",
"620.81 573.33 OFFCURVE",
"623.95 575.15 CURVE SMOOTH",
"665.82 597.62 LINE SMOOTH",
"671.38 600.84 OFFCURVE",
"674.22 605.02 OFFCURVE",
"674.22 609.89 CURVE SMOOTH",
"674.22 612.64 OFFCURVE",
"673.32 615.6 OFFCURVE",
"671.48 618.73 CURVE SMOOTH",
"591.78 755.12 LINE SMOOTH",
"588.68 760.22 OFFCURVE",
"584.1 763.29 OFFCURVE",
"579.18 763.29 CURVE SMOOTH",
"576.38 763.29 OFFCURVE",
"573.47 762.3 OFFCURVE",
"570.67 760.12 CURVE",
"565.1 755.12 LINE SMOOTH",
"559.29 749.72 OFFCURVE",
"553.37 749.69 OFFCURVE",
"545.94 749.69 CURVE SMOOTH",
"45 749.69 LINE SMOOTH",
"35.25 749.69 OFFCURVE",
"30 744.2 OFFCURVE",
"30 734.45 CURVE SMOOTH",
"30 704.45 LINE SMOOTH",
"30 694.7 OFFCURVE",
"35.25 689.45 OFFCURVE",
"45 689.45 CURVE SMOOTH",
"46 689.45 LINE SMOOTH",
"100.89 689.45 OFFCURVE",
"118.55 648.72 OFFCURVE",
"118.55 594.37 CURVE SMOOTH",
"118.55 154.77 LINE SMOOTH",
"118.55 100.42 OFFCURVE",
"100.89 59.69 OFFCURVE",
"46 59.69 CURVE SMOOTH",
"45 59.69 LINE SMOOTH",
"35.25 59.69 OFFCURVE",
"30 54.44 OFFCURVE",
"30 44.69 CURVE SMOOTH",
"30 14.69 LINE SMOOTH",
"30 4.94 OFFCURVE",
"35.25 -0.31 OFFCURVE",
"45 -0.31 CURVE SMOOTH",
"592.44 -0.31 LINE SMOOTH",
"599.88 -0.31 OFFCURVE",
"605.79 -0.31 OFFCURVE",
"611.6 -5.31 CURVE SMOOTH",
"617.17 -10.31 LINE SMOOTH",
"620.1 -12.96 OFFCURVE",
"623.25 -14.18 OFFCURVE",
"626.26 -14.18 CURVE SMOOTH",
"631.19 -14.18 OFFCURVE",
"635.74 -10.9 OFFCURVE",
"638.28 -5.31 CURVE SMOOTH",
"731.98 192.66 LINE",
"733.82 195.79 OFFCURVE",
"734.72 198.75 OFFCURVE",
"734.72 201.49 CURVE SMOOTH",
"734.72 206.36 OFFCURVE",
"731.88 210.55 OFFCURVE",
"726.32 213.77 CURVE SMOOTH"
);
}
);
width = 755;
}
);
leftKerningGroup = B;
note = Edotaccent;
rightKerningGroup = AE;
unicode = 0116;
},
{
glyphname = Egrave;
layers = (
{
hints = (
{
horizontal = 1;
place = "{-0.31, 71.06}";
type = Stem;
},
{
horizontal = 1;
place = "{364.22, 79.8}";
type = Stem;
},
{
horizontal = 1;
place = "{678.63, 71.06}";
type = Stem;
},
{
place = "{118.55, 159.8}";
type = Stem;
},
{
place = "{460.82, 60.13}";
type = Stem;
},
{
horizontal = 1;
place = "{-0.31, 60}";
type = Stem;
},
{
horizontal = 1;
place = "{689.45, 60.24}";
type = Stem;
}
);
layerId = "6AD408C6-91F3-4F0B-A103-73D10F5280D9";
paths = (
{
closed = 1;
nodes = (
"456.94 827.73 LINE",
"393.58 908.74 OFFCURVE",
"374.95 942.93 OFFCURVE",
"350.02 1008.41 CURVE SMOOTH",
"347.47 1015.19 OFFCURVE",
"342.41 1019.78 OFFCURVE",
"332.36 1021.09 CURVE SMOOTH",
"325.88 1021.93 OFFCURVE",
"319.46 1022.36 OFFCURVE",
"313.22 1022.36 CURVE SMOOTH",
"275.02 1022.36 OFFCURVE",
"243.43 1006.34 OFFCURVE",
"243.43 971.46 CURVE SMOOTH",
"243.43 889.54 OFFCURVE",
"344.51 829.5 OFFCURVE",
"404.24 809.06 CURVE SMOOTH",
"410.14 807.04 OFFCURVE",
"414.86 807.49 OFFCURVE",
"420.55 810.23 CURVE SMOOTH"
);
},
{
closed = 1;
nodes = (
"694.45 232.55 LINE SMOOTH",
"691.34 234.35 OFFCURVE",
"688.4 235.25 OFFCURVE",
"685.67 235.25 CURVE SMOOTH",
"680.78 235.25 OFFCURVE",
"676.59 232.36 OFFCURVE",
"673.34 226.58 CURVE SMOOTH",
"670.12 221.05 LINE SMOOTH",
"582.78 77.58 OFFCURVE",
"502.87 70.75 OFFCURVE",
"411.91 70.75 CURVE SMOOTH",
"347.31 70.75 LINE SMOOTH",
"295.24 72.5 OFFCURVE",
"278.35 112.62 OFFCURVE",
"278.35 165.77 CURVE SMOOTH",
"278.35 364.22 LINE",
"365.87 364.22 LINE SMOOTH",
"418.44 364.22 OFFCURVE",
"458.27 347.7 OFFCURVE",
"460.82 296.92 CURVE",
"460.82 290.75 LINE SMOOTH",
"460.82 281 OFFCURVE",
"466.07 275.75 OFFCURVE",
"475.82 275.75 CURVE SMOOTH",
"505.95 275.75 LINE SMOOTH",
"515.7 275.75 OFFCURVE",
"520.95 281 OFFCURVE",
"520.95 290.75 CURVE SMOOTH",
"520.95 518.23 LINE SMOOTH",
"520.95 527.98 OFFCURVE",
"515.7 533.23 OFFCURVE",
"505.95 533.23 CURVE SMOOTH",
"475.82 533.23 LINE SMOOTH",
"466.07 533.23 OFFCURVE",
"460.82 527.98 OFFCURVE",
"460.82 518.23 CURVE SMOOTH",
"460.82 511.31 LINE",
"458.27 460.54 OFFCURVE",
"418.44 444.02 OFFCURVE",
"365.87 444.02 CURVE SMOOTH",
"272.35 444.02 LINE",
"272.35 678.63 LINE",
"440.3 678.63 LINE SMOOTH",
"521.45 678.63 OFFCURVE",
"561.88 651.16 OFFCURVE",
"599.62 586.33 CURVE SMOOTH",
"602.84 580.8 LINE SMOOTH",
"606.07 575.25 OFFCURVE",
"610.25 572.43 OFFCURVE",
"615.11 572.43 CURVE SMOOTH",
"617.85 572.43 OFFCURVE",
"620.81 573.33 OFFCURVE",
"623.95 575.15 CURVE SMOOTH",
"665.82 597.62 LINE SMOOTH",
"671.38 600.84 OFFCURVE",
"674.22 605.02 OFFCURVE",
"674.22 609.89 CURVE SMOOTH",
"674.22 612.64 OFFCURVE",
"673.32 615.6 OFFCURVE",
"671.48 618.73 CURVE SMOOTH",
"591.78 755.12 LINE SMOOTH",
"588.68 760.22 OFFCURVE",
"584.1 763.29 OFFCURVE",
"579.18 763.29 CURVE SMOOTH",
"576.38 763.29 OFFCURVE",
"573.47 762.3 OFFCURVE",
"570.67 760.12 CURVE",
"565.1 755.12 LINE SMOOTH",
"559.29 749.72 OFFCURVE",
"553.37 749.69 OFFCURVE",
"545.94 749.69 CURVE SMOOTH",
"45 749.69 LINE SMOOTH",
"35.25 749.69 OFFCURVE",
"30 744.2 OFFCURVE",
"30 734.45 CURVE SMOOTH",
"30 704.45 LINE SMOOTH",
"30 694.7 OFFCURVE",
"35.25 689.45 OFFCURVE",
"45 689.45 CURVE SMOOTH",
"46 689.45 LINE SMOOTH",
"100.89 689.45 OFFCURVE",
"118.55 648.72 OFFCURVE",
"118.55 594.37 CURVE SMOOTH",
"118.55 154.77 LINE SMOOTH",
"118.55 100.42 OFFCURVE",
"100.89 59.69 OFFCURVE",
"46 59.69 CURVE SMOOTH",
"45 59.69 LINE SMOOTH",
"35.25 59.69 OFFCURVE",
"30 54.44 OFFCURVE",
"30 44.69 CURVE SMOOTH",
"30 14.69 LINE SMOOTH",
"30 4.94 OFFCURVE",
"35.25 -0.31 OFFCURVE",
"45 -0.31 CURVE SMOOTH",
"592.44 -0.31 LINE SMOOTH",
"599.88 -0.31 OFFCURVE",
"605.79 -0.31 OFFCURVE",
"611.6 -5.31 CURVE SMOOTH",
"617.17 -10.31 LINE SMOOTH",
"620.1 -12.96 OFFCURVE",
"623.25 -14.18 OFFCURVE",
"626.26 -14.18 CURVE SMOOTH",
"631.19 -14.18 OFFCURVE",
"635.74 -10.9 OFFCURVE",
"638.28 -5.31 CURVE SMOOTH",
"731.98 192.66 LINE",
"733.82 195.79 OFFCURVE",
"734.72 198.75 OFFCURVE",
"734.72 201.49 CURVE SMOOTH",
"734.72 206.36 OFFCURVE",
"731.88 210.55 OFFCURVE",
"726.32 213.77 CURVE SMOOTH"
);
}
);
width = 755;
}
);
leftKerningGroup = B;
note = Egrave;
rightKerningGroup = AE;
unicode = 00C8;
},
{
glyphname = Emacron;
layers = (
{
hints = (
{
horizontal = 1;
place = "{-0.31, 71.06}";
type = Stem;
},
{
horizontal = 1;
place = "{364.22, 79.8}";
type = Stem;
},
{
horizontal = 1;
place = "{678.63, 71.06}";
type = Stem;
},
{
horizontal = 1;
place = "{859.88, 90.12}";
type = Stem;
},
{
place = "{118.55, 159.8}";
type = Stem;
},
{
place = "{460.82, 60.13}";
type = Stem;
},
{
horizontal = 1;
place = "{-0.31, 60}";
type = Stem;
},
{
horizontal = 1;
place = "{689.45, 60.24}";
type = Stem;
}
);
layerId = "6AD408C6-91F3-4F0B-A103-73D10F5280D9";
paths = (
{
closed = 1;
nodes = (
"518.2 859.88 LINE SMOOTH",
"527.95 859.88 OFFCURVE",
"533.2 865.13 OFFCURVE",
"533.2 874.88 CURVE SMOOTH",
"533.2 935 LINE SMOOTH",
"533.2 944.75 OFFCURVE",
"527.95 950 OFFCURVE",
"518.2 950 CURVE SMOOTH",
"250.73 950 LINE SMOOTH",
"240.98 950 OFFCURVE",
"235.73 944.75 OFFCURVE",
"235.73 935 CURVE SMOOTH",
"235.73 874.88 LINE SMOOTH",
"235.73 865.13 OFFCURVE",
"240.98 859.88 OFFCURVE",
"250.73 859.88 CURVE SMOOTH"
);
},
{
closed = 1;
nodes = (
"694.45 232.55 LINE SMOOTH",
"691.34 234.35 OFFCURVE",
"688.4 235.25 OFFCURVE",
"685.67 235.25 CURVE SMOOTH",
"680.78 235.25 OFFCURVE",
"676.59 232.36 OFFCURVE",
"673.34 226.58 CURVE SMOOTH",
"670.12 221.05 LINE SMOOTH",
"582.78 77.58 OFFCURVE",
"502.87 70.75 OFFCURVE",
"411.91 70.75 CURVE SMOOTH",
"347.31 70.75 LINE SMOOTH",
"295.24 72.5 OFFCURVE",
"278.35 112.62 OFFCURVE",
"278.35 165.77 CURVE SMOOTH",
"278.35 364.22 LINE",
"365.87 364.22 LINE SMOOTH",
"418.44 364.22 OFFCURVE",
"458.27 347.7 OFFCURVE",
"460.82 296.92 CURVE",
"460.82 290.75 LINE SMOOTH",
"460.82 281 OFFCURVE",
"466.07 275.75 OFFCURVE",
"475.82 275.75 CURVE SMOOTH",
"505.95 275.75 LINE SMOOTH",
"515.7 275.75 OFFCURVE",
"520.95 281 OFFCURVE",
"520.95 290.75 CURVE SMOOTH",
"520.95 518.23 LINE SMOOTH",
"520.95 527.98 OFFCURVE",
"515.7 533.23 OFFCURVE",
"505.95 533.23 CURVE SMOOTH",
"475.82 533.23 LINE SMOOTH",
"466.07 533.23 OFFCURVE",
"460.82 527.98 OFFCURVE",
"460.82 518.23 CURVE SMOOTH",
"460.82 511.31 LINE",
"458.27 460.54 OFFCURVE",
"418.44 444.02 OFFCURVE",
"365.87 444.02 CURVE SMOOTH",
"272.35 444.02 LINE",
"272.35 678.63 LINE",
"440.3 678.63 LINE SMOOTH",
"521.45 678.63 OFFCURVE",
"561.88 651.16 OFFCURVE",
"599.62 586.33 CURVE SMOOTH",
"602.84 580.8 LINE SMOOTH",
"606.07 575.25 OFFCURVE",
"610.25 572.43 OFFCURVE",
"615.11 572.43 CURVE SMOOTH",
"617.85 572.43 OFFCURVE",
"620.81 573.33 OFFCURVE",
"623.95 575.15 CURVE SMOOTH",
"665.82 597.62 LINE SMOOTH",
"671.38 600.84 OFFCURVE",
"674.22 605.02 OFFCURVE",
"674.22 609.89 CURVE SMOOTH",
"674.22 612.64 OFFCURVE",
"673.32 615.6 OFFCURVE",
"671.48 618.73 CURVE SMOOTH",
"591.78 755.12 LINE SMOOTH",
"588.68 760.22 OFFCURVE",
"584.1 763.29 OFFCURVE",
"579.18 763.29 CURVE SMOOTH",
"576.38 763.29 OFFCURVE",
"573.47 762.3 OFFCURVE",
"570.67 760.12 CURVE",
"565.1 755.12 LINE SMOOTH",
"559.29 749.72 OFFCURVE",
"553.37 749.69 OFFCURVE",
"545.94 749.69 CURVE SMOOTH",
"45 749.69 LINE SMOOTH",
"35.25 749.69 OFFCURVE",
"30 744.2 OFFCURVE",
"30 734.45 CURVE SMOOTH",
"30 704.45 LINE SMOOTH",
"30 694.7 OFFCURVE",
"35.25 689.45 OFFCURVE",
"45 689.45 CURVE SMOOTH",
"46 689.45 LINE SMOOTH",
"100.89 689.45 OFFCURVE",
"118.55 648.72 OFFCURVE",
"118.55 594.37 CURVE SMOOTH",
"118.55 154.77 LINE SMOOTH",
"118.55 100.42 OFFCURVE",
"100.89 59.69 OFFCURVE",
"46 59.69 CURVE SMOOTH",
"45 59.69 LINE SMOOTH",
"35.25 59.69 OFFCURVE",
"30 54.44 OFFCURVE",
"30 44.69 CURVE SMOOTH",
"30 14.69 LINE SMOOTH",
"30 4.94 OFFCURVE",
"35.25 -0.31 OFFCURVE",
"45 -0.31 CURVE SMOOTH",
"592.44 -0.31 LINE SMOOTH",
"599.88 -0.31 OFFCURVE",
"605.79 -0.31 OFFCURVE",
"611.6 -5.31 CURVE SMOOTH",
"617.17 -10.31 LINE SMOOTH",
"620.1 -12.96 OFFCURVE",
"623.25 -14.18 OFFCURVE",
"626.26 -14.18 CURVE SMOOTH",
"631.19 -14.18 OFFCURVE",
"635.74 -10.9 OFFCURVE",
"638.28 -5.31 CURVE SMOOTH",
"731.98 192.66 LINE",
"733.82 195.79 OFFCURVE",
"734.72 198.75 OFFCURVE",
"734.72 201.49 CURVE SMOOTH",
"734.72 206.36 OFFCURVE",
"731.88 210.55 OFFCURVE",
"726.32 213.77 CURVE SMOOTH"
);
}
);
width = 755;
}
);
leftKerningGroup = B;
note = Emacron;
rightKerningGroup = AE;
unicode = 0112;
},
{
glyphname = Eogonek;
layers = (
{
hints = (
{
horizontal = 1;
place = "{-252.72, 77}";
type = Stem;
},
{
horizontal = 1;
place = "{-13.87, 21}";
target = up;
type = BottomGhost;
},
{
horizontal = 1;
place = "{364.22, 79.8}";
type = Stem;
},
{
horizontal = 1;
place = "{678.63, 71.06}";
type = Stem;
},
{
place = "{118.55, 159.8}";
type = Stem;
},
{
place = "{460.82, 60.13}";
type = Stem;
},
{
horizontal = 1;
place = "{-0.31, 71.06}";
type = Stem;
},
{
horizontal = 1;
place = "{-0.31, 60}";
type = Stem;
},
{
horizontal = 1;
place = "{689.45, 60.24}";
type = Stem;
},
{
place = "{398.8, 99.12}";
type = Stem;
}
);
layerId = "6AD408C6-91F3-4F0B-A103-73D10F5280D9";
paths = (
{
closed = 1;
nodes = (
"617.17 -10 LINE",
"620.1 -12.65 OFFCURVE",
"623.25 -13.87 OFFCURVE",
"626.26 -13.87 CURVE SMOOTH",
"631.19 -13.87 OFFCURVE",
"635.74 -10.59 OFFCURVE",
"638.28 -5 CURVE SMOOTH",
"731.98 192.97 LINE",
"733.82 196.1 OFFCURVE",
"734.72 199.06 OFFCURVE",
"734.72 201.8 CURVE SMOOTH",
"734.72 206.67 OFFCURVE",
"731.88 210.86 OFFCURVE",
"726.32 214.08 CURVE SMOOTH",
"694.45 232.55 LINE SMOOTH",
"691.34 234.35 OFFCURVE",
"688.4 235.25 OFFCURVE",
"685.67 235.25 CURVE SMOOTH",
"680.78 235.25 OFFCURVE",
"676.59 232.36 OFFCURVE",
"673.34 226.58 CURVE SMOOTH",
"670.12 221.05 LINE SMOOTH",
"582.78 77.58 OFFCURVE",
"502.87 70.75 OFFCURVE",
"411.91 70.75 CURVE SMOOTH",
"347.31 70.75 LINE SMOOTH",
"295.24 72.5 OFFCURVE",
"278.35 112.62 OFFCURVE",
"278.35 165.77 CURVE SMOOTH",
"278.35 364.22 LINE",
"365.87 364.22 LINE SMOOTH",
"418.44 364.22 OFFCURVE",
"458.27 347.7 OFFCURVE",
"460.82 296.92 CURVE",
"460.82 290.75 LINE SMOOTH",
"460.82 281 OFFCURVE",
"466.07 275.75 OFFCURVE",
"475.82 275.75 CURVE SMOOTH",
"505.95 275.75 LINE SMOOTH",
"515.7 275.75 OFFCURVE",
"520.95 281 OFFCURVE",
"520.95 290.75 CURVE SMOOTH",
"520.95 518.23 LINE SMOOTH",
"520.95 527.98 OFFCURVE",
"515.7 533.23 OFFCURVE",
"505.95 533.23 CURVE SMOOTH",
"475.82 533.23 LINE SMOOTH",
"466.07 533.23 OFFCURVE",
"460.82 527.98 OFFCURVE",
"460.82 518.23 CURVE SMOOTH",
"460.82 511.31 LINE",
"458.27 460.54 OFFCURVE",
"418.44 444.02 OFFCURVE",
"365.87 444.02 CURVE SMOOTH",
"272.35 444.02 LINE",
"272.35 678.63 LINE",
"440.3 678.63 LINE SMOOTH",
"521.45 678.63 OFFCURVE",
"561.88 651.16 OFFCURVE",
"599.62 586.33 CURVE SMOOTH",
"602.84 580.8 LINE SMOOTH",
"606.07 575.25 OFFCURVE",
"610.25 572.43 OFFCURVE",
"615.11 572.43 CURVE SMOOTH",
"617.85 572.43 OFFCURVE",
"620.81 573.33 OFFCURVE",
"623.95 575.15 CURVE SMOOTH",
"665.82 597.62 LINE SMOOTH",
"671.38 600.84 OFFCURVE",
"674.22 605.02 OFFCURVE",
"674.22 609.89 CURVE SMOOTH",
"674.22 612.64 OFFCURVE",
"673.32 615.6 OFFCURVE",
"671.48 618.73 CURVE SMOOTH",
"591.78 755.12 LINE SMOOTH",
"588.68 760.22 OFFCURVE",
"584.1 763.29 OFFCURVE",
"579.18 763.29 CURVE SMOOTH",
"576.38 763.29 OFFCURVE",
"573.47 762.3 OFFCURVE",
"570.67 760.12 CURVE",
"565.1 755.12 LINE SMOOTH",
"559.29 749.72 OFFCURVE",
"553.37 749.69 OFFCURVE",
"545.94 749.69 CURVE SMOOTH",
"45 749.69 LINE SMOOTH",
"35.25 749.69 OFFCURVE",
"30 744.2 OFFCURVE",
"30 734.45 CURVE SMOOTH",
"30 704.45 LINE SMOOTH",
"30 694.7 OFFCURVE",
"35.25 689.45 OFFCURVE",
"45 689.45 CURVE SMOOTH",
"46 689.45 LINE SMOOTH",
"100.89 689.45 OFFCURVE",
"118.55 648.72 OFFCURVE",
"118.55 594.37 CURVE SMOOTH",
"118.55 154.77 LINE SMOOTH",
"118.55 100.42 OFFCURVE",
"100.89 59.69 OFFCURVE",
"46 59.69 CURVE SMOOTH",
"45 59.69 LINE SMOOTH",
"35.25 59.69 OFFCURVE",
"30 54.44 OFFCURVE",
"30 44.69 CURVE SMOOTH",
"30 14.69 LINE SMOOTH",
"30 4.94 OFFCURVE",
"35.25 -0.31 OFFCURVE",
"45 -0.31 CURVE SMOOTH",
"446.44 -0.31 LINE",
"419.37 -24.09 OFFCURVE",
"398.8 -57.82 OFFCURVE",
"398.8 -104.72 CURVE SMOOTH",
"398.8 -165.72 OFFCURVE",
"447.75 -252.72 OFFCURVE",
"556.83 -252.72 CURVE SMOOTH",
"592.04 -252.72 OFFCURVE",
"629.99 -241.72 OFFCURVE",
"667.12 -217.72 CURVE SMOOTH",
"673.52 -213.72 OFFCURVE",
"675.98 -208.72 OFFCURVE",
"675.98 -201.72 CURVE",
"674.17 -161.72 LINE SMOOTH",
"673.75 -153.72 OFFCURVE",
"670.25 -149.72 OFFCURVE",
"664.97 -149.72 CURVE SMOOTH",
"654.46 -149.72 OFFCURVE",
"614.06 -175.72 OFFCURVE",
"577.45 -175.72 CURVE SMOOTH",
"526.75 -175.72 OFFCURVE",
"497.92 -140.72 OFFCURVE",
"497.92 -93.72 CURVE SMOOTH",
"497.92 -43.46 OFFCURVE",
"541.92 -8.64 OFFCURVE",
"592.71 -0.31 CURVE",
"600.02 -0.31 OFFCURVE",
"605.86 -0.37 OFFCURVE",
"611.6 -5.31 CURVE SMOOTH"
);
}
);
width = 755;
}
);
leftKerningGroup = B;
note = Eogonek;
rightKerningGroup = AE;
unicode = 0118;
},
{
glyphname = F;
layers = (
{
hints = (
{
horizontal = 1;
place = "{0, 60.12}";
type = Stem;
},
{
horizontal = 1;
place = "{354.53, 79.8}";
type = Stem;
},
{
horizontal = 1;
place = "{678.94, 71.06}";
type = Stem;
},
{
place = "{118.55, 159.8}";
type = Stem;
},
{
place = "{460.82, 60.13}";
type = Stem;
},
{
horizontal = 1;
place = "{689.76, 60.24}";
type = Stem;
}
);
layerId = "6AD408C6-91F3-4F0B-A103-73D10F5280D9";
paths = (
{
closed = 1;
nodes = (
"591.78 755.43 LINE SMOOTH",
"588.68 760.53 OFFCURVE",
"584.1 763.6 OFFCURVE",
"579.18 763.6 CURVE SMOOTH",
"576.38 763.6 OFFCURVE",
"573.47 762.61 OFFCURVE",
"570.67 760.43 CURVE",
"565.1 755.43 LINE SMOOTH",
"559.29 750.03 OFFCURVE",
"553.37 750 OFFCURVE",
"545.94 750 CURVE SMOOTH",
"45 750 LINE SMOOTH",
"35.25 750 OFFCURVE",
"30 744.51 OFFCURVE",
"30 734.76 CURVE SMOOTH",
"30 704.76 LINE SMOOTH",
"30 695.01 OFFCURVE",
"35.25 689.76 OFFCURVE",
"45 689.76 CURVE SMOOTH",
"46 689.76 LINE SMOOTH",
"100.89 689.76 OFFCURVE",
"118.55 649.03 OFFCURVE",
"118.55 594.68 CURVE SMOOTH",
"118.55 155.08 LINE SMOOTH",
"118.55 102.44 OFFCURVE",
"101.98 62.57 OFFCURVE",
"51.07 60.12 CURVE",
"45.09 60.12 LINE SMOOTH",
"35.34 60.12 OFFCURVE",
"30.09 54.87 OFFCURVE",
"30.09 45.12 CURVE SMOOTH",
"30.09 15 LINE SMOOTH",
"30.09 5.25 OFFCURVE",
"35.34 0 OFFCURVE",
"45.09 0 CURVE SMOOTH",
"352.56 0 LINE SMOOTH",
"362.31 0 OFFCURVE",
"367.56 5.25 OFFCURVE",
"367.56 15 CURVE SMOOTH",
"367.56 45.12 LINE SMOOTH",
"367.56 54.87 OFFCURVE",
"362.31 60.12 OFFCURVE",
"352.56 60.12 CURVE SMOOTH",
"345.83 60.12 LINE",
"294.92 62.57 OFFCURVE",
"278.35 102.44 OFFCURVE",
"278.35 155.08 CURVE SMOOTH",
"278.35 354.53 LINE",
"365.87 354.53 LINE SMOOTH",
"418.44 354.53 OFFCURVE",
"458.27 338.01 OFFCURVE",
"460.82 287.23 CURVE",
"460.82 281.06 LINE SMOOTH",
"460.82 271.31 OFFCURVE",
"466.07 266.06 OFFCURVE",
"475.82 266.06 CURVE SMOOTH",
"505.95 266.06 LINE SMOOTH",
"515.7 266.06 OFFCURVE",
"520.95 271.31 OFFCURVE",
"520.95 281.06 CURVE SMOOTH",
"520.95 508.54 LINE SMOOTH",
"520.95 518.29 OFFCURVE",
"515.7 523.54 OFFCURVE",
"505.95 523.54 CURVE SMOOTH",
"475.82 523.54 LINE SMOOTH",
"466.07 523.54 OFFCURVE",
"460.82 518.29 OFFCURVE",
"460.82 508.54 CURVE SMOOTH",
"460.82 501.62 LINE",
"458.27 450.85 OFFCURVE",
"418.44 434.33 OFFCURVE",
"365.87 434.33 CURVE SMOOTH",
"272.35 434.33 LINE",
"272.35 678.94 LINE",
"420.3 678.94 LINE SMOOTH",
"501.45 678.94 OFFCURVE",
"561.88 651.47 OFFCURVE",
"599.62 586.64 CURVE SMOOTH",
"602.84 581.11 LINE SMOOTH",
"606.07 575.56 OFFCURVE",
"610.25 572.74 OFFCURVE",
"615.11 572.74 CURVE SMOOTH",
"617.85 572.74 OFFCURVE",
"620.81 573.64 OFFCURVE",
"623.95 575.46 CURVE SMOOTH",
"665.82 597.93 LINE SMOOTH",
"671.38 601.15 OFFCURVE",
"674.22 605.33 OFFCURVE",
"674.22 610.2 CURVE SMOOTH",
"674.22 612.95 OFFCURVE",
"673.32 615.91 OFFCURVE",
"671.48 619.04 CURVE SMOOTH"
);
}
);
width = 694;
}
);
leftKerningGroup = B;
note = F;
rightKerningGroup = F;
unicode = 0046;
},
{
glyphname = G;
layers = (
{
hints = (
{
horizontal = 1;
place = "{-10.21, 94.12}";
type = Stem;
},
{
horizontal = 1;
place = "{311.82, 60.13}";
type = Stem;
},
{
horizontal = 1;
place = "{682.58, 78.43}";
type = Stem;
},
{
place = "{35, 170.57}";
type = Stem;
},
{
place = "{535.88, 166.67}";
type = Stem;
}
);
layerId = "6AD408C6-91F3-4F0B-A103-73D10F5280D9";
paths = (
{
closed = 1;
nodes = (
"422.42 371.95 LINE SMOOTH",
"412.67 371.95 OFFCURVE",
"407.42 366.7 OFFCURVE",
"407.42 356.95 CURVE SMOOTH",
"407.42 326.82 LINE SMOOTH",
"407.42 317.07 OFFCURVE",
"412.67 311.82 OFFCURVE",
"422.42 311.82 CURVE SMOOTH",
"429.41 311.82 LINE",
"480.98 309.59 OFFCURVE",
"535.88 309.91 OFFCURVE",
"535.88 196.87 CURVE SMOOTH",
"535.88 144.98 LINE SMOOTH",
"535.88 98.24 OFFCURVE",
"473.22 83.91 OFFCURVE",
"422.45 83.91 CURVE SMOOTH",
"273.69 83.91 OFFCURVE",
"205.57 255.88 OFFCURVE",
"205.57 410.58 CURVE SMOOTH",
"205.57 522.6 OFFCURVE",
"253.05 682.58 OFFCURVE",
"395.33 682.58 CURVE SMOOTH",
"509.7 682.58 OFFCURVE",
"542.59 593.12 OFFCURVE",
"542.59 522.29 CURVE",
"541.88 504.15 LINE",
"540.12 488.91 LINE",
"539.11 482.61 OFFCURVE",
"543.54 478.6 OFFCURVE",
"551.65 478.6 CURVE SMOOTH",
"555.19 478.6 OFFCURVE",
"559.43 479.37 OFFCURVE",
"564.24 481.04 CURVE SMOOTH",
"692.3 525.73 LINE",
"703.5 528.71 OFFCURVE",
"709.64 535.41 OFFCURVE",
"709.64 545.35 CURVE",
"708.91 551.65 LINE",
"676.31 699.27 OFFCURVE",
"536.22 761.01 OFFCURVE",
"403.25 761.01 CURVE SMOOTH",
"115.94 761.01 OFFCURVE",
"35 533.29 OFFCURVE",
"35 366.81 CURVE SMOOTH",
"35 151.58 OFFCURVE",
"178.27 -10.21 OFFCURVE",
"396.66 -10.21 CURVE SMOOTH",
"520.41 -10.21 OFFCURVE",
"607.3 35.05 OFFCURVE",
"668.53 112.07 CURVE SMOOTH",
"680.98 127.72 OFFCURVE",
"696.55 154.77 OFFCURVE",
"702.55 170.66 CURVE",
"702.55 279.43 LINE SMOOTH",
"702.55 301.61 OFFCURVE",
"709.61 311.61 OFFCURVE",
"728.91 311.61 CURVE SMOOTH",
"736.9 311.61 LINE SMOOTH",
"746.65 311.61 OFFCURVE",
"751.9 316.86 OFFCURVE",
"751.9 326.61 CURVE SMOOTH",
"751.9 356.74 LINE SMOOTH",
"751.9 366.49 OFFCURVE",
"746.65 371.74 OFFCURVE",
"736.9 371.74 CURVE SMOOTH"
);
}
);
width = 772;
}
);
leftKerningGroup = C;
note = G;
rightKerningGroup = G;
unicode = 0047;
},
{
glyphname = Gbreve;
layers = (
{
hints = (
{
horizontal = 1;
place = "{-10.21, 94.12}";
type = Stem;
},
{
horizontal = 1;
place = "{311.82, 60.13}";
type = Stem;
},
{
horizontal = 1;
place = "{682.58, 78.43}";
type = Stem;
},
{
horizontal = 1;
place = "{831.12, 81.17}";
type = Stem;
},
{
place = "{35, 170.57}";
type = Stem;
},
{
place = "{535.88, 166.67}";
type = Stem;
}
);
layerId = "6AD408C6-91F3-4F0B-A103-73D10F5280D9";
paths = (
{
closed = 1;
nodes = (
"297.26 992.05 LINE",
"239.17 984.5 LINE SMOOTH",
"228.89 983.17 OFFCURVE",
"222.73 977.53 OFFCURVE",
"222.73 968.08 CURVE",
"222.96 964.77 LINE",
"233.01 891.33 OFFCURVE",
"305.24 831.12 OFFCURVE",
"388 831.12 CURVE SMOOTH",
"470.76 831.12 OFFCURVE",
"542.99 891.33 OFFCURVE",
"553.04 964.77 CURVE SMOOTH",
"554.6 976.21 OFFCURVE",
"548.26 983.02 OFFCURVE",
"536.82 984.5 CURVE SMOOTH",
"478.73 992.05 LINE SMOOTH",
"467.18 993.55 OFFCURVE",
"460.54 988.37 OFFCURVE",
"458.53 976.78 CURVE SMOOTH",
"450.17 928.46 OFFCURVE",
"421.99 912.29 OFFCURVE",
"388 912.29 CURVE SMOOTH",
"354 912.29 OFFCURVE",
"325.82 928.46 OFFCURVE",
"317.46 976.78 CURVE SMOOTH",
"315.69 987.07 OFFCURVE",
"310.26 992.3 OFFCURVE",
"300.98 992.3 CURVE"
);
},
{
closed = 1;
nodes = (
"422.42 371.95 LINE SMOOTH",
"412.67 371.95 OFFCURVE",
"407.42 366.7 OFFCURVE",
"407.42 356.95 CURVE SMOOTH",
"407.42 326.82 LINE SMOOTH",
"407.42 317.07 OFFCURVE",
"412.67 311.82 OFFCURVE",
"422.42 311.82 CURVE SMOOTH",
"429.41 311.82 LINE",
"480.98 309.59 OFFCURVE",
"535.88 309.91 OFFCURVE",
"535.88 196.87 CURVE SMOOTH",
"535.88 144.98 LINE SMOOTH",
"535.88 98.24 OFFCURVE",
"473.22 83.91 OFFCURVE",
"422.45 83.91 CURVE SMOOTH",
"273.69 83.91 OFFCURVE",
"205.57 255.88 OFFCURVE",
"205.57 410.58 CURVE SMOOTH",
"205.57 522.6 OFFCURVE",
"253.05 682.58 OFFCURVE",
"395.33 682.58 CURVE SMOOTH",
"509.7 682.58 OFFCURVE",
"542.59 593.12 OFFCURVE",
"542.59 522.29 CURVE",
"541.88 504.15 LINE",
"540.12 488.91 LINE",
"539.11 482.61 OFFCURVE",
"543.54 478.6 OFFCURVE",
"551.65 478.6 CURVE SMOOTH",
"555.19 478.6 OFFCURVE",
"559.43 479.37 OFFCURVE",
"564.24 481.04 CURVE SMOOTH",
"692.3 525.73 LINE",
"703.5 528.71 OFFCURVE",
"709.64 535.41 OFFCURVE",
"709.64 545.35 CURVE",
"708.91 551.65 LINE",
"676.31 699.27 OFFCURVE",
"536.22 761.01 OFFCURVE",
"403.25 761.01 CURVE SMOOTH",
"115.94 761.01 OFFCURVE",
"35 533.29 OFFCURVE",
"35 366.81 CURVE SMOOTH",
"35 151.58 OFFCURVE",
"178.27 -10.21 OFFCURVE",
"396.66 -10.21 CURVE SMOOTH",
"520.41 -10.21 OFFCURVE",
"607.3 35.05 OFFCURVE",
"668.53 112.07 CURVE SMOOTH",
"680.98 127.72 OFFCURVE",
"696.55 154.77 OFFCURVE",
"702.55 170.66 CURVE",
"702.55 279.43 LINE SMOOTH",
"702.55 301.61 OFFCURVE",
"709.61 311.61 OFFCURVE",
"728.91 311.61 CURVE SMOOTH",
"736.9 311.61 LINE SMOOTH",
"746.65 311.61 OFFCURVE",
"751.9 316.86 OFFCURVE",
"751.9 326.61 CURVE SMOOTH",
"751.9 356.74 LINE SMOOTH",
"751.9 366.49 OFFCURVE",
"746.65 371.74 OFFCURVE",
"736.9 371.74 CURVE SMOOTH"
);
}
);
width = 772;
}
);
leftKerningGroup = C;
note = Gbreve;
rightKerningGroup = G;
unicode = 011E;
},
{
glyphname = Gcommaaccent;
layers = (
{
hints = (
{
horizontal = 1;
place = "{-10.21, 94.12}";
type = Stem;
},
{
horizontal = 1;
place = "{311.82, 60.13}";
type = Stem;
},
{
horizontal = 1;
place = "{682.58, 78.43}";
type = Stem;
},
{
place = "{35, 170.57}";
type = Stem;
},
{
place = "{308.76, 177.11}";
type = Stem;
},
{
place = "{535.88, 166.67}";
type = Stem;
}
);
layerId = "6AD408C6-91F3-4F0B-A103-73D10F5280D9";
paths = (
{
closed = 1;
nodes = (
"422.42 371.95 LINE SMOOTH",
"412.67 371.95 OFFCURVE",
"407.42 366.7 OFFCURVE",
"407.42 356.95 CURVE SMOOTH",
"407.42 326.82 LINE SMOOTH",
"407.42 317.07 OFFCURVE",
"412.67 311.82 OFFCURVE",
"422.42 311.82 CURVE SMOOTH",
"429.41 311.82 LINE",
"480.98 309.59 OFFCURVE",
"535.88 309.91 OFFCURVE",
"535.88 196.87 CURVE SMOOTH",
"535.88 144.98 LINE SMOOTH",
"535.88 98.24 OFFCURVE",
"473.22 83.91 OFFCURVE",
"422.45 83.91 CURVE SMOOTH",
"273.69 83.91 OFFCURVE",
"205.57 255.88 OFFCURVE",
"205.57 410.58 CURVE SMOOTH",
"205.57 522.6 OFFCURVE",
"253.05 682.58 OFFCURVE",
"395.33 682.58 CURVE SMOOTH",
"509.7 682.58 OFFCURVE",
"542.59 593.12 OFFCURVE",
"542.59 522.29 CURVE",
"541.88 504.15 LINE",
"540.12 488.91 LINE",
"539.11 482.61 OFFCURVE",
"543.54 478.6 OFFCURVE",
"551.65 478.6 CURVE SMOOTH",
"555.19 478.6 OFFCURVE",
"559.43 479.37 OFFCURVE",
"564.24 481.04 CURVE SMOOTH",
"692.3 525.73 LINE",
"703.5 528.71 OFFCURVE",
"709.64 535.41 OFFCURVE",
"709.64 545.35 CURVE",
"708.91 551.65 LINE",
"676.31 699.27 OFFCURVE",
"536.22 761.01 OFFCURVE",
"403.25 761.01 CURVE SMOOTH",
"115.94 761.01 OFFCURVE",
"35 533.29 OFFCURVE",
"35 366.81 CURVE SMOOTH",
"35 151.58 OFFCURVE",
"178.27 -10.21 OFFCURVE",
"396.66 -10.21 CURVE SMOOTH",
"520.41 -10.21 OFFCURVE",
"607.3 35.05 OFFCURVE",
"668.53 112.07 CURVE SMOOTH",
"680.98 127.72 OFFCURVE",
"696.55 154.77 OFFCURVE",
"702.55 170.66 CURVE",
"702.55 279.43 LINE SMOOTH",
"702.55 301.61 OFFCURVE",
"709.61 311.61 OFFCURVE",
"728.91 311.61 CURVE SMOOTH",
"736.9 311.61 LINE SMOOTH",
"746.65 311.61 OFFCURVE",
"751.9 316.86 OFFCURVE",
"751.9 326.61 CURVE SMOOTH",
"751.9 356.74 LINE SMOOTH",
"751.9 366.49 OFFCURVE",
"746.65 371.74 OFFCURVE",
"736.9 371.74 CURVE SMOOTH"
);
},
{
closed = 1;
nodes = (
"425.64 -56.21 LINE SMOOTH",
"412.96 -43.53 OFFCURVE",
"399.8 -37.21 OFFCURVE",
"386.64 -37.21 CURVE SMOOTH",
"373.55 -37.21 OFFCURVE",
"360.46 -43.46 OFFCURVE",
"347.86 -55.93 CURVE SMOOTH",
"308.76 -95.02 LINE SMOOTH",
"296.12 -107.66 OFFCURVE",
"289.8 -120.79 OFFCURVE",
"289.8 -133.91 CURVE SMOOTH",
"289.8 -147.04 OFFCURVE",
"296.12 -160.17 OFFCURVE",
"308.76 -172.8 CURVE SMOOTH",
"347.86 -211.9 LINE SMOOTH",
"353.59 -217.63 OFFCURVE",
"356.26 -225.44 OFFCURVE",
"356.26 -234.67 CURVE SMOOTH",
"356.26 -266.16 OFFCURVE",
"325.04 -314.05 OFFCURVE",
"277.17 -351.18 CURVE",
"306.08 -364.18 OFFCURVE",
"311.95 -366.18 OFFCURVE",
"316.86 -366.18 CURVE SMOOTH",
"339.9 -366.18 OFFCURVE",
"466.16 -259.18 OFFCURVE",
"482.57 -180.18 CURVE SMOOTH",
"484.85 -169.19 OFFCURVE",
"485.87 -159.36 OFFCURVE",
"485.87 -150.53 CURVE SMOOTH",
"485.87 -124.47 OFFCURVE",
"476.91 -107.21 OFFCURVE",
"464.73 -95.11 CURVE SMOOTH"
);
}
);
width = 772;
}
);
leftKerningGroup = C;
note = Gcommaaccent;
rightKerningGroup = G;
unicode = 0122;
},
{
glyphname = Gdotaccent;
layers = (
{
hints = (
{
horizontal = 1;
place = "{-10.21, 94.12}";
type = Stem;
},
{
horizontal = 1;
place = "{311.82, 60.13}";
type = Stem;
},
{
horizontal = 1;
place = "{682.58, 78.43}";
type = Stem;
},
{
horizontal = 1;
place = "{839.69, 150.26}";
type = Stem;
},
{
place = "{35, 170.57}";
type = Stem;
},
{
place = "{312.87, 150.26}";
type = Stem;
},
{
place = "{535.88, 166.67}";
type = Stem;
}
);
layerId = "6AD408C6-91F3-4F0B-A103-73D10F5280D9";
paths = (
{
closed = 1;
nodes = (
"370.14 989.95 OFFCURVE",
"355.63 982.72 OFFCURVE",
"337.87 964.95 CURVE SMOOTH",
"320.1 947.18 OFFCURVE",
"312.87 932.68 OFFCURVE",
"312.87 914.82 CURVE SMOOTH",
"312.87 896.96 OFFCURVE",
"320.1 882.46 OFFCURVE",
"337.87 864.69 CURVE SMOOTH",
"355.63 846.92 OFFCURVE",
"370.14 839.69 OFFCURVE",
"388 839.69 CURVE SMOOTH",
"405.86 839.69 OFFCURVE",
"420.36 846.92 OFFCURVE",
"438.13 864.69 CURVE SMOOTH",
"455.9 882.46 OFFCURVE",
"463.13 896.96 OFFCURVE",
"463.13 914.82 CURVE SMOOTH",
"463.13 932.68 OFFCURVE",
"455.9 947.18 OFFCURVE",
"438.13 964.95 CURVE SMOOTH",
"420.36 982.72 OFFCURVE",
"405.86 989.95 OFFCURVE",
"388 989.95 CURVE SMOOTH"
);
},
{
closed = 1;
nodes = (
"422.42 371.95 LINE SMOOTH",
"412.67 371.95 OFFCURVE",
"407.42 366.7 OFFCURVE",
"407.42 356.95 CURVE SMOOTH",
"407.42 326.82 LINE SMOOTH",
"407.42 317.07 OFFCURVE",
"412.67 311.82 OFFCURVE",
"422.42 311.82 CURVE SMOOTH",
"429.41 311.82 LINE",
"480.98 309.59 OFFCURVE",
"535.88 309.91 OFFCURVE",
"535.88 196.87 CURVE SMOOTH",
"535.88 144.98 LINE SMOOTH",
"535.88 98.24 OFFCURVE",
"473.22 83.91 OFFCURVE",
"422.45 83.91 CURVE SMOOTH",
"273.69 83.91 OFFCURVE",
"205.57 255.88 OFFCURVE",
"205.57 410.58 CURVE SMOOTH",
"205.57 522.6 OFFCURVE",
"253.05 682.58 OFFCURVE",
"395.33 682.58 CURVE SMOOTH",
"509.7 682.58 OFFCURVE",
"542.59 593.12 OFFCURVE",
"542.59 522.29 CURVE",
"541.88 504.15 LINE",
"540.12 488.91 LINE",
"539.11 482.61 OFFCURVE",
"543.54 478.6 OFFCURVE",
"551.65 478.6 CURVE SMOOTH",
"555.19 478.6 OFFCURVE",
"559.43 479.37 OFFCURVE",
"564.24 481.04 CURVE SMOOTH",
"692.3 525.73 LINE",
"703.5 528.71 OFFCURVE",
"709.64 535.41 OFFCURVE",
"709.64 545.35 CURVE",
"708.91 551.65 LINE",
"676.31 699.27 OFFCURVE",
"536.22 761.01 OFFCURVE",
"403.25 761.01 CURVE SMOOTH",
"115.94 761.01 OFFCURVE",
"35 533.29 OFFCURVE",
"35 366.81 CURVE SMOOTH",
"35 151.58 OFFCURVE",
"178.27 -10.21 OFFCURVE",
"396.66 -10.21 CURVE SMOOTH",
"520.41 -10.21 OFFCURVE",
"607.3 35.05 OFFCURVE",
"668.53 112.07 CURVE SMOOTH",
"680.98 127.72 OFFCURVE",
"696.55 154.77 OFFCURVE",
"702.55 170.66 CURVE",
"702.55 279.43 LINE SMOOTH",
"702.55 301.61 OFFCURVE",
"709.61 311.61 OFFCURVE",
"728.91 311.61 CURVE SMOOTH",
"736.9 311.61 LINE SMOOTH",
"746.65 311.61 OFFCURVE",
"751.9 316.86 OFFCURVE",
"751.9 326.61 CURVE SMOOTH",
"751.9 356.74 LINE SMOOTH",
"751.9 366.49 OFFCURVE",
"746.65 371.74 OFFCURVE",
"736.9 371.74 CURVE SMOOTH"
);
}
);
width = 772;
}
);
leftKerningGroup = C;
note = Gdotaccent;
rightKerningGroup = G;
unicode = 0120;
},
{
glyphname = H;
layers = (
{
hints = (
{
horizontal = 1;
place = "{0, 60.12}";
type = Stem;
},
{
horizontal = 1;
place = "{344.53, 79.8}";
type = Stem;
},
{
horizontal = 1;
place = "{689.88, 60.12}";
type = Stem;
},
{
place = "{118.46, 159.8}";
type = Stem;
},
{
place = "{619.79, 159.8}";
type = Stem;
}
);
layerId = "6AD408C6-91F3-4F0B-A103-73D10F5280D9";
paths = (
{
closed = 1;
nodes = (
"779.59 594.92 LINE SMOOTH",
"779.59 647.56 OFFCURVE",
"796.16 687.43 OFFCURVE",
"847.07 689.88 CURVE",
"853.05 689.88 LINE SMOOTH",
"862.8 689.88 OFFCURVE",
"868.05 695.13 OFFCURVE",
"868.05 704.88 CURVE SMOOTH",
"868.05 735 LINE SMOOTH",
"868.05 744.75 OFFCURVE",
"862.8 750 OFFCURVE",
"853.05 750 CURVE SMOOTH",
"545.57 750 LINE SMOOTH",
"535.82 750 OFFCURVE",
"530.57 744.75 OFFCURVE",
"530.57 735 CURVE SMOOTH",
"530.57 704.88 LINE SMOOTH",
"530.57 695.13 OFFCURVE",
"535.82 689.88 OFFCURVE",
"545.57 689.88 CURVE SMOOTH",
"552.31 689.88 LINE",
"603.22 687.43 OFFCURVE",
"619.79 647.56 OFFCURVE",
"619.79 594.92 CURVE SMOOTH",
"619.79 424.33 LINE",
"278.26 424.33 LINE",
"278.26 594.92 LINE SMOOTH",
"278.26 647.56 OFFCURVE",
"294.83 687.43 OFFCURVE",
"345.74 689.88 CURVE",
"352.48 689.88 LINE SMOOTH",
"362.23 689.88 OFFCURVE",
"367.48 695.13 OFFCURVE",
"367.48 704.88 CURVE SMOOTH",
"367.48 735 LINE SMOOTH",
"367.48 744.75 OFFCURVE",
"362.23 750 OFFCURVE",
"352.48 750 CURVE SMOOTH",
"45 750 LINE SMOOTH",
"35.25 750 OFFCURVE",
"30 744.75 OFFCURVE",
"30 735 CURVE SMOOTH",
"30 704.88 LINE SMOOTH",
"30 695.13 OFFCURVE",
"35.25 689.88 OFFCURVE",
"45 689.88 CURVE SMOOTH",
"50.98 689.88 LINE",
"101.89 687.43 OFFCURVE",
"118.46 647.56 OFFCURVE",
"118.46 594.92 CURVE SMOOTH",
"118.46 155.08 LINE SMOOTH",
"118.46 102.44 OFFCURVE",
"101.89 62.57 OFFCURVE",
"50.98 60.12 CURVE",
"45 60.12 LINE SMOOTH",
"35.25 60.12 OFFCURVE",
"30 54.87 OFFCURVE",
"30 45.12 CURVE SMOOTH",
"30 15 LINE SMOOTH",
"30 5.25 OFFCURVE",
"35.25 0 OFFCURVE",
"45 0 CURVE SMOOTH",
"352.48 0 LINE SMOOTH",
"362.23 0 OFFCURVE",
"367.48 5.25 OFFCURVE",
"367.48 15 CURVE SMOOTH",
"367.48 45.12 LINE SMOOTH",
"367.48 54.87 OFFCURVE",
"362.23 60.12 OFFCURVE",
"352.48 60.12 CURVE SMOOTH",
"345.74 60.12 LINE",
"294.83 62.57 OFFCURVE",
"278.26 102.44 OFFCURVE",
"278.26 155.08 CURVE SMOOTH",
"278.26 344.53 LINE",
"619.79 344.53 LINE",
"619.79 155.08 LINE SMOOTH",
"619.79 102.44 OFFCURVE",
"603.22 62.57 OFFCURVE",
"552.31 60.12 CURVE",
"545.57 60.12 LINE SMOOTH",
"535.82 60.12 OFFCURVE",
"530.57 54.87 OFFCURVE",
"530.57 45.12 CURVE SMOOTH",
"530.57 15 LINE SMOOTH",
"530.57 5.25 OFFCURVE",
"535.82 0 OFFCURVE",
"545.57 0 CURVE SMOOTH",
"853.05 0 LINE SMOOTH",
"862.8 0 OFFCURVE",
"868.05 5.25 OFFCURVE",
"868.05 15 CURVE SMOOTH",
"868.05 45.12 LINE SMOOTH",
"868.05 54.87 OFFCURVE",
"862.8 60.12 OFFCURVE",
"853.05 60.12 CURVE SMOOTH",
"847.07 60.12 LINE",
"796.16 62.57 OFFCURVE",
"779.59 102.44 OFFCURVE",
"779.59 155.08 CURVE SMOOTH"
);
}
);
width = 898;
}
);
leftKerningGroup = B;
note = H;
rightKerningGroup = H;
unicode = 0048;
},
{
glyphname = Hbar;
layers = (
{
hints = (
{
horizontal = 1;
place = "{0, 60.12}";
type = Stem;
},
{
horizontal = 1;
place = "{344.53, 79.8}";
type = Stem;
},
{
horizontal = 1;
place = "{500.01, 80.12}";
type = Stem;
},
{
horizontal = 1;
place = "{689.88, 60.12}";
type = Stem;
},
{
place = "{137.94, 159.8}";
type = Stem;
},
{
place = "{639.27, 159.8}";
type = Stem;
}
);
layerId = "6AD408C6-91F3-4F0B-A103-73D10F5280D9";
paths = (
{
closed = 1;
nodes = (
"872.53 689.88 LINE SMOOTH",
"882.28 689.88 OFFCURVE",
"887.53 695.13 OFFCURVE",
"887.53 704.88 CURVE SMOOTH",
"887.53 735 LINE SMOOTH",
"887.53 744.75 OFFCURVE",
"882.28 750 OFFCURVE",
"872.53 750 CURVE SMOOTH",
"565.05 750 LINE SMOOTH",
"555.3 750 OFFCURVE",
"550.05 744.75 OFFCURVE",
"550.05 735 CURVE SMOOTH",
"550.05 704.88 LINE SMOOTH",
"550.05 695.13 OFFCURVE",
"555.3 689.88 OFFCURVE",
"565.05 689.88 CURVE SMOOTH",
"571.79 689.88 LINE",
"622.7 687.43 OFFCURVE",
"639.27 647.56 OFFCURVE",
"639.27 594.92 CURVE SMOOTH",
"639.27 580.13 LINE",
"297.74 580.13 LINE",
"297.74 594.92 LINE SMOOTH",
"297.74 647.56 OFFCURVE",
"314.31 687.43 OFFCURVE",
"365.22 689.88 CURVE",
"371.95 689.88 LINE SMOOTH",
"381.7 689.88 OFFCURVE",
"386.95 695.13 OFFCURVE",
"386.95 704.88 CURVE SMOOTH",
"386.95 735 LINE SMOOTH",
"386.95 744.75 OFFCURVE",
"381.7 750 OFFCURVE",
"371.95 750 CURVE SMOOTH",
"64.48 750 LINE SMOOTH",
"54.73 750 OFFCURVE",
"49.48 744.75 OFFCURVE",
"49.48 735 CURVE SMOOTH",
"49.48 704.88 LINE SMOOTH",
"49.48 695.13 OFFCURVE",
"54.73 689.88 OFFCURVE",
"64.48 689.88 CURVE SMOOTH",
"70.46 689.88 LINE",
"121.37 687.43 OFFCURVE",
"137.94 647.56 OFFCURVE",
"137.94 594.92 CURVE SMOOTH",
"137.94 580.13 LINE",
"45 580.13 LINE SMOOTH",
"35.25 580.13 OFFCURVE",
"30 574.88 OFFCURVE",
"30 565.13 CURVE SMOOTH",
"30 515.01 LINE SMOOTH",
"30 505.26 OFFCURVE",
"35.25 500.01 OFFCURVE",
"45 500.01 CURVE SMOOTH",
"137.94 500.01 LINE",
"137.94 155.08 LINE SMOOTH",
"137.94 102.44 OFFCURVE",
"121.37 62.57 OFFCURVE",
"70.46 60.12 CURVE",
"64.48 60.12 LINE SMOOTH",
"54.73 60.12 OFFCURVE",
"49.48 54.87 OFFCURVE",
"49.48 45.12 CURVE SMOOTH",
"49.48 15 LINE SMOOTH",
"49.48 5.25 OFFCURVE",
"54.73 0 OFFCURVE",
"64.48 0 CURVE SMOOTH",
"371.95 0 LINE SMOOTH",
"381.7 0 OFFCURVE",
"386.95 5.25 OFFCURVE",
"386.95 15 CURVE SMOOTH",
"386.95 45.12 LINE SMOOTH",
"386.95 54.87 OFFCURVE",
"381.7 60.12 OFFCURVE",
"371.95 60.12 CURVE SMOOTH",
"365.22 60.12 LINE",
"314.31 62.57 OFFCURVE",
"297.74 102.44 OFFCURVE",
"297.74 155.08 CURVE SMOOTH",
"297.74 344.53 LINE",
"639.27 344.53 LINE",
"639.27 155.08 LINE SMOOTH",
"639.27 102.44 OFFCURVE",
"622.7 62.57 OFFCURVE",
"571.79 60.12 CURVE",
"565.05 60.12 LINE SMOOTH",
"555.3 60.12 OFFCURVE",
"550.05 54.87 OFFCURVE",
"550.05 45.12 CURVE SMOOTH",
"550.05 15 LINE SMOOTH",
"550.05 5.25 OFFCURVE",
"555.3 0 OFFCURVE",
"565.05 0 CURVE SMOOTH",
"872.53 0 LINE SMOOTH",
"882.28 0 OFFCURVE",
"887.53 5.25 OFFCURVE",
"887.53 15 CURVE SMOOTH",
"887.53 45.12 LINE SMOOTH",
"887.53 54.87 OFFCURVE",
"882.28 60.12 OFFCURVE",
"872.53 60.12 CURVE SMOOTH",
"866.55 60.12 LINE",
"815.64 62.57 OFFCURVE",
"799.07 102.44 OFFCURVE",
"799.07 155.08 CURVE SMOOTH",
"799.07 500.01 LINE",
"865.96 500.01 LINE SMOOTH",
"875.71 500.01 OFFCURVE",
"880.96 505.26 OFFCURVE",
"880.96 515.01 CURVE SMOOTH",
"880.96 565.13 LINE SMOOTH",
"880.96 574.88 OFFCURVE",
"875.71 580.13 OFFCURVE",
"865.96 580.13 CURVE SMOOTH",
"799.07 580.13 LINE",
"799.07 594.92 LINE SMOOTH",
"799.07 647.56 OFFCURVE",
"815.64 687.43 OFFCURVE",
"866.55 689.88 CURVE"
);
},
{
closed = 1;
nodes = (
"297.74 500.01 LINE",
"639.27 500.01 LINE",
"639.27 424.33 LINE",
"297.74 424.33 LINE"
);
}
);
width = 918;
}
);
leftKerningGroup = B;
note = Hbar;
rightKerningGroup = H;
unicode = 0126;
},
{
glyphname = I;
layers = (
{
hints = (
{
horizontal = 1;
place = "{0, 60.12}";
type = Stem;
},
{
horizontal = 1;
place = "{689.88, 60.12}";
type = Stem;
},
{
place = "{124.21, 159.8}";
type = Stem;
}
);
layerId = "6AD408C6-91F3-4F0B-A103-73D10F5280D9";
paths = (
{
closed = 1;
nodes = (
"284.01 594.92 LINE SMOOTH",
"284.01 647.56 OFFCURVE",
"300.58 687.43 OFFCURVE",
"351.49 689.88 CURVE",
"357.48 689.88 LINE SMOOTH",
"367.23 689.88 OFFCURVE",
"372.48 695.13 OFFCURVE",
"372.48 704.88 CURVE SMOOTH",
"372.48 735 LINE SMOOTH",
"372.48 744.75 OFFCURVE",
"367.23 750 OFFCURVE",
"357.48 750 CURVE SMOOTH",
"50 750 LINE SMOOTH",
"40.25 750 OFFCURVE",
"35 744.75 OFFCURVE",
"35 735 CURVE SMOOTH",
"35 704.88 LINE SMOOTH",
"35 695.13 OFFCURVE",
"40.25 689.88 OFFCURVE",
"50 689.88 CURVE SMOOTH",
"56.73 689.88 LINE",
"107.64 687.43 OFFCURVE",
"124.21 647.56 OFFCURVE",
"124.21 594.92 CURVE SMOOTH",
"124.21 155.08 LINE SMOOTH",
"124.21 102.44 OFFCURVE",
"107.64 62.57 OFFCURVE",
"56.73 60.12 CURVE",
"50 60.12 LINE SMOOTH",
"40.25 60.12 OFFCURVE",
"35 54.87 OFFCURVE",
"35 45.12 CURVE SMOOTH",
"35 15 LINE SMOOTH",
"35 5.25 OFFCURVE",
"40.25 0 OFFCURVE",
"50 0 CURVE SMOOTH",
"357.48 0 LINE SMOOTH",
"367.23 0 OFFCURVE",
"372.48 5.25 OFFCURVE",
"372.48 15 CURVE SMOOTH",
"372.48 45.12 LINE SMOOTH",
"372.48 54.87 OFFCURVE",
"367.23 60.12 OFFCURVE",
"357.48 60.12 CURVE SMOOTH",
"351.49 60.12 LINE",
"300.58 62.57 OFFCURVE",
"284.01 102.44 OFFCURVE",
"284.01 155.08 CURVE SMOOTH"
);
}
);
width = 407;
}
);
leftKerningGroup = I;
note = I;
rightKerningGroup = I;
unicode = 0049;
},
{
glyphname = IJ;
layers = (
{
hints = (
{
horizontal = 1;
place = "{0, 60.12}";
type = Stem;
},
{
horizontal = 1;
place = "{689.88, 60.12}";
type = Stem;
},
{
place = "{124.21, 159.8}";
type = Stem;
},
{
place = "{649.09, 159.8}";
type = Stem;
},
{
horizontal = 1;
place = "{-11.15, 65.12}";
type = Stem;
},
{
place = "{402.48, 130.14}";
type = Stem;
}
);
layerId = "6AD408C6-91F3-4F0B-A103-73D10F5280D9";
paths = (
{
closed = 1;
nodes = (
"50 750 LINE SMOOTH",
"40.25 750 OFFCURVE",
"35 744.75 OFFCURVE",
"35 735 CURVE SMOOTH",
"35 704.88 LINE SMOOTH",
"35 695.13 OFFCURVE",
"40.25 689.88 OFFCURVE",
"50 689.88 CURVE SMOOTH",
"56.73 689.88 LINE",
"107.64 687.43 OFFCURVE",
"124.21 647.56 OFFCURVE",
"124.21 594.92 CURVE SMOOTH",
"124.21 155.08 LINE SMOOTH",
"124.21 102.44 OFFCURVE",
"107.64 62.57 OFFCURVE",
"56.73 60.12 CURVE",
"50 60.12 LINE SMOOTH",
"40.25 60.12 OFFCURVE",
"35 54.87 OFFCURVE",
"35 45.12 CURVE SMOOTH",
"35 15 LINE SMOOTH",
"35 5.25 OFFCURVE",
"40.25 0 OFFCURVE",
"50 0 CURVE SMOOTH",
"357.48 0 LINE SMOOTH",
"367.23 0 OFFCURVE",
"372.48 5.25 OFFCURVE",
"372.48 15 CURVE SMOOTH",
"372.48 45.12 LINE SMOOTH",
"372.48 54.87 OFFCURVE",
"367.23 60.12 OFFCURVE",
"357.48 60.12 CURVE SMOOTH",
"351.49 60.12 LINE",
"300.58 62.57 OFFCURVE",
"284.01 102.44 OFFCURVE",
"284.01 155.08 CURVE SMOOTH",
"284.01 594.92 LINE SMOOTH",
"284.01 647.56 OFFCURVE",
"300.58 687.43 OFFCURVE",
"351.49 689.88 CURVE",
"357.48 689.88 LINE SMOOTH",
"367.23 689.88 OFFCURVE",
"372.48 695.13 OFFCURVE",
"372.48 704.88 CURVE SMOOTH",
"372.48 735 LINE SMOOTH",
"372.48 744.75 OFFCURVE",
"367.23 750 OFFCURVE",
"357.48 750 CURVE SMOOTH"
);
},
{
closed = 1;
nodes = (
"574.88 750 LINE SMOOTH",
"565.13 750 OFFCURVE",
"559.88 744.75 OFFCURVE",
"559.88 735 CURVE SMOOTH",
"559.88 704.88 LINE SMOOTH",
"559.88 695.13 OFFCURVE",
"565.13 689.88 OFFCURVE",
"574.88 689.88 CURVE SMOOTH",
"581.61 689.88 LINE",
"632.52 687.43 OFFCURVE",
"649.09 647.56 OFFCURVE",
"649.09 594.92 CURVE SMOOTH",
"649.09 127.59 LINE SMOOTH",
"649.14 85.87 OFFCURVE",
"635.26 53.97 OFFCURVE",
"588.13 53.97 CURVE SMOOTH",
"546.09 53.97 OFFCURVE",
"532.62 99.97 OFFCURVE",
"532.62 145.97 CURVE SMOOTH",
"532.62 158.98 OFFCURVE",
"533.69 171.99 OFFCURVE",
"535.49 184 CURVE",
"536.43 196.1 OFFCURVE",
"530.32 201.99 OFFCURVE",
"523.56 201.99 CURVE SMOOTH",
"521.52 201.99 OFFCURVE",
"519.42 201.45 OFFCURVE",
"517.44 200.38 CURVE SMOOTH",
"418.42 147.02 LINE SMOOTH",
"407.33 141.05 OFFCURVE",
"402.48 131.33 OFFCURVE",
"402.48 122.84 CURVE SMOOTH",
"402.48 96.19 OFFCURVE",
"444.82 -11.15 OFFCURVE",
"578.52 -11.15 CURVE SMOOTH",
"773.99 -11.15 OFFCURVE",
"808.89 113.2 OFFCURVE",
"808.89 218.35 CURVE SMOOTH",
"808.89 594.77 LINE SMOOTH",
"808.89 647.41 OFFCURVE",
"825.46 687.28 OFFCURVE",
"876.37 689.73 CURVE",
"882.35 689.73 LINE SMOOTH",
"892.1 689.73 OFFCURVE",
"897.35 694.98 OFFCURVE",
"897.35 704.73 CURVE SMOOTH",
"897.35 734.85 LINE SMOOTH",
"897.35 744.6 OFFCURVE",
"892.1 749.85 OFFCURVE",
"882.35 749.85 CURVE SMOOTH"
);
}
);
width = 922;
}
);
leftKerningGroup = I;
note = IJ;
rightKerningGroup = IJ;
unicode = 0132;
},
{
glyphname = Iacute;
layers = (
{
hints = (
{
horizontal = 1;
place = "{0, 60.12}";
type = Stem;
},
{
horizontal = 1;
place = "{689.88, 60.12}";
type = Stem;
},
{
place = "{124.21, 159.8}";
type = Stem;
}
);
layerId = "6AD408C6-91F3-4F0B-A103-73D10F5280D9";
paths = (
{
closed = 1;
nodes = (
"165.06 810.23 LINE SMOOTH",
"168.39 808.63 OFFCURVE",
"171.38 807.81 OFFCURVE",
"174.48 807.81 CURVE SMOOTH",
"176.67 807.81 OFFCURVE",
"178.92 808.22 OFFCURVE",
"181.37 809.06 CURVE SMOOTH",
"241.1 829.5 OFFCURVE",
"342.18 889.54 OFFCURVE",
"342.18 971.46 CURVE SMOOTH",
"342.18 1006.34 OFFCURVE",
"310.59 1022.36 OFFCURVE",
"272.39 1022.36 CURVE SMOOTH",
"266.15 1022.36 OFFCURVE",
"259.73 1021.93 OFFCURVE",
"253.25 1021.09 CURVE SMOOTH",
"243.2 1019.78 OFFCURVE",
"238.14 1015.19 OFFCURVE",
"235.59 1008.41 CURVE SMOOTH",
"210.66 942.93 OFFCURVE",
"192.03 908.74 OFFCURVE",
"128.67 827.73 CURVE"
);
},
{
closed = 1;
nodes = (
"284.01 594.92 LINE SMOOTH",
"284.01 647.56 OFFCURVE",
"300.58 687.43 OFFCURVE",
"351.49 689.88 CURVE",
"357.48 689.88 LINE SMOOTH",
"367.23 689.88 OFFCURVE",
"372.48 695.13 OFFCURVE",
"372.48 704.88 CURVE SMOOTH",
"372.48 735 LINE SMOOTH",
"372.48 744.75 OFFCURVE",
"367.23 750 OFFCURVE",
"357.48 750 CURVE SMOOTH",
"50 750 LINE SMOOTH",
"40.25 750 OFFCURVE",
"35 744.75 OFFCURVE",
"35 735 CURVE SMOOTH",
"35 704.88 LINE SMOOTH",
"35 695.13 OFFCURVE",
"40.25 689.88 OFFCURVE",
"50 689.88 CURVE SMOOTH",
"56.73 689.88 LINE",
"107.64 687.43 OFFCURVE",
"124.21 647.56 OFFCURVE",
"124.21 594.92 CURVE SMOOTH",
"124.21 155.08 LINE SMOOTH",
"124.21 102.44 OFFCURVE",
"107.64 62.57 OFFCURVE",
"56.73 60.12 CURVE",
"50 60.12 LINE SMOOTH",
"40.25 60.12 OFFCURVE",
"35 54.87 OFFCURVE",
"35 45.12 CURVE SMOOTH",
"35 15 LINE SMOOTH",
"35 5.25 OFFCURVE",
"40.25 0 OFFCURVE",
"50 0 CURVE SMOOTH",
"357.48 0 LINE SMOOTH",
"367.23 0 OFFCURVE",
"372.48 5.25 OFFCURVE",
"372.48 15 CURVE SMOOTH",
"372.48 45.12 LINE SMOOTH",
"372.48 54.87 OFFCURVE",
"367.23 60.12 OFFCURVE",
"357.48 60.12 CURVE SMOOTH",
"351.49 60.12 LINE",
"300.58 62.57 OFFCURVE",
"284.01 102.44 OFFCURVE",
"284.01 155.08 CURVE SMOOTH"
);
}
);
width = 407;
}
);
leftKerningGroup = I;
note = Iacute;
rightKerningGroup = I;
unicode = 00CD;
},
{
glyphname = Icircumflex;
layers = (
{
hints = (
{
horizontal = 1;
place = "{0, 60.12}";
type = Stem;
},
{
horizontal = 1;
place = "{689.88, 60.12}";
type = Stem;
},
{
place = "{124.21, 159.8}";
type = Stem;
}
);
layerId = "6AD408C6-91F3-4F0B-A103-73D10F5280D9";
paths = (
{
closed = 1;
nodes = (
"396.05 904.21 OFFCURVE",
"391.46 909.27 OFFCURVE",
"384.68 911.83 CURVE SMOOTH",
"319.2 936.76 OFFCURVE",
"285.01 955.38 OFFCURVE",
"204 1018.74 CURVE",
"122.99 955.38 OFFCURVE",
"88.8 936.76 OFFCURVE",
"23.32 911.83 CURVE SMOOTH",
"16.54 909.27 OFFCURVE",
"11.95 904.21 OFFCURVE",
"10.64 894.17 CURVE SMOOTH",
"9.8 887.69 OFFCURVE",
"9.37 881.27 OFFCURVE",
"9.37 875.03 CURVE SMOOTH",
"9.37 836.83 OFFCURVE",
"25.39 805.24 OFFCURVE",
"60.27 805.24 CURVE SMOOTH",
"124.45 805.24 OFFCURVE",
"175.2 867.28 OFFCURVE",
"204 922.87 CURVE",
"232.8 867.28 OFFCURVE",
"283.55 805.24 OFFCURVE",
"347.73 805.24 CURVE SMOOTH",
"382.61 805.24 OFFCURVE",
"398.63 836.83 OFFCURVE",
"398.63 875.03 CURVE SMOOTH",
"398.63 881.27 OFFCURVE",
"398.2 887.69 OFFCURVE",
"397.36 894.17 CURVE SMOOTH"
);
},
{
closed = 1;
nodes = (
"50 750 LINE SMOOTH",
"40.25 750 OFFCURVE",
"35 744.75 OFFCURVE",
"35 735 CURVE SMOOTH",
"35 704.88 LINE SMOOTH",
"35 695.13 OFFCURVE",
"40.25 689.88 OFFCURVE",
"50 689.88 CURVE SMOOTH",
"56.73 689.88 LINE",
"107.64 687.43 OFFCURVE",
"124.21 647.56 OFFCURVE",
"124.21 594.92 CURVE SMOOTH",
"124.21 155.08 LINE SMOOTH",
"124.21 102.44 OFFCURVE",
"107.64 62.57 OFFCURVE",
"56.73 60.12 CURVE",
"50 60.12 LINE SMOOTH",
"40.25 60.12 OFFCURVE",
"35 54.87 OFFCURVE",
"35 45.12 CURVE SMOOTH",
"35 15 LINE SMOOTH",
"35 5.25 OFFCURVE",
"40.25 0 OFFCURVE",
"50 0 CURVE SMOOTH",
"357.48 0 LINE SMOOTH",
"367.23 0 OFFCURVE",
"372.48 5.25 OFFCURVE",
"372.48 15 CURVE SMOOTH",
"372.48 45.12 LINE SMOOTH",
"372.48 54.87 OFFCURVE",
"367.23 60.12 OFFCURVE",
"357.48 60.12 CURVE SMOOTH",
"351.49 60.12 LINE",
"300.58 62.57 OFFCURVE",
"284.01 102.44 OFFCURVE",
"284.01 155.08 CURVE SMOOTH",
"284.01 594.92 LINE SMOOTH",
"284.01 647.56 OFFCURVE",
"300.58 687.43 OFFCURVE",
"351.49 689.88 CURVE",
"357.48 689.88 LINE SMOOTH",
"367.23 689.88 OFFCURVE",
"372.48 695.13 OFFCURVE",
"372.48 704.88 CURVE SMOOTH",
"372.48 735 LINE SMOOTH",
"372.48 744.75 OFFCURVE",
"367.23 750 OFFCURVE",
"357.48 750 CURVE SMOOTH"
);
}
);
width = 407;
}
);
leftKerningGroup = I;
note = Icircumflex;
rightKerningGroup = I;
unicode = 00CE;
},
{
glyphname = Idieresis;
layers = (
{
hints = (
{
horizontal = 1;
place = "{0, 60.12}";
type = Stem;
},
{
horizontal = 1;
place = "{689.88, 60.12}";
type = Stem;
},
{
horizontal = 1;
place = "{839.69, 150.26}";
type = Stem;
},
{
place = "{13.96, 150.26}";
type = Stem;
},
{
place = "{246.67, 150.27}";
type = Stem;
},
{
place = "{124.21, 159.8}";
type = Stem;
}
);
layerId = "6AD408C6-91F3-4F0B-A103-73D10F5280D9";
paths = (
{
closed = 1;
nodes = (
"106.95 839.69 OFFCURVE",
"121.45 846.92 OFFCURVE",
"139.22 864.69 CURVE SMOOTH",
"156.99 882.46 OFFCURVE",
"164.22 896.96 OFFCURVE",
"164.22 914.82 CURVE SMOOTH",
"164.22 932.68 OFFCURVE",
"156.99 947.18 OFFCURVE",
"139.22 964.95 CURVE SMOOTH",
"121.45 982.72 OFFCURVE",
"106.95 989.95 OFFCURVE",
"89.09 989.95 CURVE SMOOTH",
"71.23 989.95 OFFCURVE",
"56.73 982.72 OFFCURVE",
"38.96 964.95 CURVE SMOOTH",
"21.19 947.18 OFFCURVE",
"13.96 932.68 OFFCURVE",
"13.96 914.82 CURVE SMOOTH",
"13.96 896.96 OFFCURVE",
"21.19 882.46 OFFCURVE",
"38.96 864.69 CURVE SMOOTH",
"56.73 846.92 OFFCURVE",
"71.23 839.69 OFFCURVE",
"89.09 839.69 CURVE SMOOTH"
);
},
{
closed = 1;
nodes = (
"339.67 839.69 OFFCURVE",
"354.17 846.92 OFFCURVE",
"371.94 864.69 CURVE SMOOTH",
"389.7 882.46 OFFCURVE",
"396.94 896.96 OFFCURVE",
"396.94 914.82 CURVE SMOOTH",
"396.94 932.68 OFFCURVE",
"389.7 947.18 OFFCURVE",
"371.94 964.95 CURVE SMOOTH",
"354.17 982.72 OFFCURVE",
"339.67 989.95 OFFCURVE",
"321.8 989.95 CURVE SMOOTH",
"303.94 989.95 OFFCURVE",
"289.44 982.72 OFFCURVE",
"271.67 964.95 CURVE SMOOTH",
"253.91 947.18 OFFCURVE",
"246.67 932.68 OFFCURVE",
"246.67 914.82 CURVE SMOOTH",
"246.67 896.96 OFFCURVE",
"253.9 882.46 OFFCURVE",
"271.67 864.69 CURVE SMOOTH",
"289.44 846.92 OFFCURVE",
"303.94 839.69 OFFCURVE",
"321.8 839.69 CURVE SMOOTH"
);
},
{
closed = 1;
nodes = (
"50 750 LINE SMOOTH",
"40.25 750 OFFCURVE",
"35 744.75 OFFCURVE",
"35 735 CURVE SMOOTH",
"35 704.88 LINE SMOOTH",
"35 695.13 OFFCURVE",
"40.25 689.88 OFFCURVE",
"50 689.88 CURVE SMOOTH",
"56.73 689.88 LINE",
"107.64 687.43 OFFCURVE",
"124.21 647.56 OFFCURVE",
"124.21 594.92 CURVE SMOOTH",
"124.21 155.08 LINE SMOOTH",
"124.21 102.44 OFFCURVE",
"107.64 62.57 OFFCURVE",
"56.73 60.12 CURVE",
"50 60.12 LINE SMOOTH",
"40.25 60.12 OFFCURVE",
"35 54.87 OFFCURVE",
"35 45.12 CURVE SMOOTH",
"35 15 LINE SMOOTH",
"35 5.25 OFFCURVE",
"40.25 0 OFFCURVE",
"50 0 CURVE SMOOTH",
"357.48 0 LINE SMOOTH",
"367.23 0 OFFCURVE",
"372.48 5.25 OFFCURVE",
"372.48 15 CURVE SMOOTH",
"372.48 45.12 LINE SMOOTH",
"372.48 54.87 OFFCURVE",
"367.23 60.12 OFFCURVE",
"357.48 60.12 CURVE SMOOTH",
"351.49 60.12 LINE",
"300.58 62.57 OFFCURVE",
"284.01 102.44 OFFCURVE",
"284.01 155.08 CURVE SMOOTH",
"284.01 594.92 LINE SMOOTH",
"284.01 647.56 OFFCURVE",
"300.58 687.43 OFFCURVE",
"351.49 689.88 CURVE",
"357.48 689.88 LINE SMOOTH",
"367.23 689.88 OFFCURVE",
"372.48 695.13 OFFCURVE",
"372.48 704.88 CURVE SMOOTH",
"372.48 735 LINE SMOOTH",
"372.48 744.75 OFFCURVE",
"367.23 750 OFFCURVE",
"357.48 750 CURVE SMOOTH"
);
}
);
width = 407;
}
);
leftKerningGroup = I;
note = Idieresis;
rightKerningGroup = I;
unicode = 00CF;
},
{
glyphname = Idotaccent;
layers = (
{
hints = (
{
horizontal = 1;
place = "{0, 60.12}";
type = Stem;
},
{
horizontal = 1;
place = "{689.88, 60.12}";
type = Stem;
},
{
horizontal = 1;
place = "{839.69, 150.26}";
type = Stem;
},
{
place = "{128.87, 150.26}";
type = Stem;
},
{
place = "{124.21, 159.8}";
type = Stem;
}
);
layerId = "6AD408C6-91F3-4F0B-A103-73D10F5280D9";
paths = (
{
closed = 1;
nodes = (
"221.86 839.69 OFFCURVE",
"236.36 846.92 OFFCURVE",
"254.13 864.69 CURVE SMOOTH",
"271.9 882.46 OFFCURVE",
"279.13 896.96 OFFCURVE",
"279.13 914.82 CURVE SMOOTH",
"279.13 932.68 OFFCURVE",
"271.9 947.18 OFFCURVE",
"254.13 964.95 CURVE SMOOTH",
"236.36 982.72 OFFCURVE",
"221.86 989.95 OFFCURVE",
"204 989.95 CURVE SMOOTH",
"186.14 989.95 OFFCURVE",
"171.64 982.72 OFFCURVE",
"153.87 964.95 CURVE SMOOTH",
"136.1 947.18 OFFCURVE",
"128.87 932.68 OFFCURVE",
"128.87 914.82 CURVE SMOOTH",
"128.87 896.96 OFFCURVE",
"136.1 882.46 OFFCURVE",
"153.87 864.69 CURVE SMOOTH",
"171.64 846.92 OFFCURVE",
"186.14 839.69 OFFCURVE",
"204 839.69 CURVE SMOOTH"
);
},
{
closed = 1;
nodes = (
"284.01 594.92 LINE SMOOTH",
"284.01 647.56 OFFCURVE",
"300.58 687.43 OFFCURVE",
"351.49 689.88 CURVE",
"357.48 689.88 LINE SMOOTH",
"367.23 689.88 OFFCURVE",
"372.48 695.13 OFFCURVE",
"372.48 704.88 CURVE SMOOTH",
"372.48 735 LINE SMOOTH",
"372.48 744.75 OFFCURVE",
"367.23 750 OFFCURVE",
"357.48 750 CURVE SMOOTH",
"50 750 LINE SMOOTH",
"40.25 750 OFFCURVE",
"35 744.75 OFFCURVE",
"35 735 CURVE SMOOTH",
"35 704.88 LINE SMOOTH",
"35 695.13 OFFCURVE",
"40.25 689.88 OFFCURVE",
"50 689.88 CURVE SMOOTH",
"56.73 689.88 LINE",
"107.64 687.43 OFFCURVE",
"124.21 647.56 OFFCURVE",
"124.21 594.92 CURVE SMOOTH",
"124.21 155.08 LINE SMOOTH",
"124.21 102.44 OFFCURVE",
"107.64 62.57 OFFCURVE",
"56.73 60.12 CURVE",
"50 60.12 LINE SMOOTH",
"40.25 60.12 OFFCURVE",
"35 54.87 OFFCURVE",
"35 45.12 CURVE SMOOTH",
"35 15 LINE SMOOTH",
"35 5.25 OFFCURVE",
"40.25 0 OFFCURVE",
"50 0 CURVE SMOOTH",
"357.48 0 LINE SMOOTH",
"367.23 0 OFFCURVE",
"372.48 5.25 OFFCURVE",
"372.48 15 CURVE SMOOTH",
"372.48 45.12 LINE SMOOTH",
"372.48 54.87 OFFCURVE",
"367.23 60.12 OFFCURVE",
"357.48 60.12 CURVE SMOOTH",
"351.49 60.12 LINE",
"300.58 62.57 OFFCURVE",
"284.01 102.44 OFFCURVE",
"284.01 155.08 CURVE SMOOTH"
);
}
);
width = 407;
}
);
leftKerningGroup = I;
note = Idotaccent;
rightKerningGroup = I;
unicode = 0130;
},
{
glyphname = Igrave;
layers = (
{
hints = (
{
horizontal = 1;
place = "{0, 60.12}";
type = Stem;
},
{
horizontal = 1;
place = "{689.88, 60.12}";
type = Stem;
},
{
place = "{124.21, 159.8}";
type = Stem;
}
);
layerId = "6AD408C6-91F3-4F0B-A103-73D10F5280D9";
paths = (
{
closed = 1;
nodes = (
"277.39 827.73 LINE",
"214.03 908.74 OFFCURVE",
"195.4 942.93 OFFCURVE",
"170.47 1008.41 CURVE SMOOTH",
"167.92 1015.19 OFFCURVE",
"162.86 1019.78 OFFCURVE",
"152.81 1021.09 CURVE SMOOTH",
"146.33 1021.93 OFFCURVE",
"139.91 1022.36 OFFCURVE",
"133.67 1022.36 CURVE SMOOTH",
"95.47 1022.36 OFFCURVE",
"63.88 1006.34 OFFCURVE",
"63.88 971.46 CURVE SMOOTH",
"63.88 889.54 OFFCURVE",
"164.96 829.5 OFFCURVE",
"224.69 809.06 CURVE SMOOTH",
"230.59 807.04 OFFCURVE",
"235.31 807.49 OFFCURVE",
"241 810.23 CURVE SMOOTH"
);
},
{
closed = 1;
nodes = (
"284.01 594.92 LINE SMOOTH",
"284.01 647.56 OFFCURVE",
"300.58 687.43 OFFCURVE",
"351.49 689.88 CURVE",
"357.48 689.88 LINE SMOOTH",
"367.23 689.88 OFFCURVE",
"372.48 695.13 OFFCURVE",
"372.48 704.88 CURVE SMOOTH",
"372.48 735 LINE SMOOTH",
"372.48 744.75 OFFCURVE",
"367.23 750 OFFCURVE",
"357.48 750 CURVE SMOOTH",
"50 750 LINE SMOOTH",
"40.25 750 OFFCURVE",
"35 744.75 OFFCURVE",
"35 735 CURVE SMOOTH",
"35 704.88 LINE SMOOTH",
"35 695.13 OFFCURVE",
"40.25 689.88 OFFCURVE",
"50 689.88 CURVE SMOOTH",
"56.73 689.88 LINE",
"107.64 687.43 OFFCURVE",
"124.21 647.56 OFFCURVE",
"124.21 594.92 CURVE SMOOTH",
"124.21 155.08 LINE SMOOTH",
"124.21 102.44 OFFCURVE",
"107.64 62.57 OFFCURVE",
"56.73 60.12 CURVE",
"50 60.12 LINE SMOOTH",
"40.25 60.12 OFFCURVE",
"35 54.87 OFFCURVE",
"35 45.12 CURVE SMOOTH",
"35 15 LINE SMOOTH",
"35 5.25 OFFCURVE",
"40.25 0 OFFCURVE",
"50 0 CURVE SMOOTH",
"357.48 0 LINE SMOOTH",
"367.23 0 OFFCURVE",
"372.48 5.25 OFFCURVE",
"372.48 15 CURVE SMOOTH",
"372.48 45.12 LINE SMOOTH",
"372.48 54.87 OFFCURVE",
"367.23 60.12 OFFCURVE",
"357.48 60.12 CURVE SMOOTH",
"351.49 60.12 LINE",
"300.58 62.57 OFFCURVE",
"284.01 102.44 OFFCURVE",
"284.01 155.08 CURVE SMOOTH"
);
}
);
width = 407;
}
);
leftKerningGroup = I;
note = Igrave;
rightKerningGroup = I;
unicode = 00CC;
},
{
glyphname = Imacron;
layers = (
{
hints = (
{
horizontal = 1;
place = "{0, 60.12}";
type = Stem;
},
{
horizontal = 1;
place = "{689.88, 60.12}";
type = Stem;
},
{
horizontal = 1;
place = "{859.88, 90.12}";
type = Stem;
},
{
place = "{124.21, 159.8}";
type = Stem;
}
);
layerId = "6AD408C6-91F3-4F0B-A103-73D10F5280D9";
paths = (
{
closed = 1;
nodes = (
"338.65 859.88 LINE SMOOTH",
"348.4 859.88 OFFCURVE",
"353.65 865.13 OFFCURVE",
"353.65 874.88 CURVE SMOOTH",
"353.65 935 LINE SMOOTH",
"353.65 944.75 OFFCURVE",
"348.4 950 OFFCURVE",
"338.65 950 CURVE SMOOTH",
"71.18 950 LINE SMOOTH",
"61.43 950 OFFCURVE",
"56.18 944.75 OFFCURVE",
"56.18 935 CURVE SMOOTH",
"56.18 874.88 LINE SMOOTH",
"56.18 865.13 OFFCURVE",
"61.43 859.88 OFFCURVE",
"71.18 859.88 CURVE SMOOTH"
);
},
{
closed = 1;
nodes = (
"284.01 594.92 LINE SMOOTH",
"284.01 647.56 OFFCURVE",
"300.58 687.43 OFFCURVE",
"351.49 689.88 CURVE",
"357.48 689.88 LINE SMOOTH",
"367.23 689.88 OFFCURVE",
"372.48 695.13 OFFCURVE",
"372.48 704.88 CURVE SMOOTH",
"372.48 735 LINE SMOOTH",
"372.48 744.75 OFFCURVE",
"367.23 750 OFFCURVE",
"357.48 750 CURVE SMOOTH",
"50 750 LINE SMOOTH",
"40.25 750 OFFCURVE",
"35 744.75 OFFCURVE",
"35 735 CURVE SMOOTH",
"35 704.88 LINE SMOOTH",
"35 695.13 OFFCURVE",
"40.25 689.88 OFFCURVE",
"50 689.88 CURVE SMOOTH",
"56.73 689.88 LINE",
"107.64 687.43 OFFCURVE",
"124.21 647.56 OFFCURVE",
"124.21 594.92 CURVE SMOOTH",
"124.21 155.08 LINE SMOOTH",
"124.21 102.44 OFFCURVE",
"107.64 62.57 OFFCURVE",
"56.73 60.12 CURVE",
"50 60.12 LINE SMOOTH",
"40.25 60.12 OFFCURVE",
"35 54.87 OFFCURVE",
"35 45.12 CURVE SMOOTH",
"35 15 LINE SMOOTH",
"35 5.25 OFFCURVE",
"40.25 0 OFFCURVE",
"50 0 CURVE SMOOTH",
"357.48 0 LINE SMOOTH",
"367.23 0 OFFCURVE",
"372.48 5.25 OFFCURVE",
"372.48 15 CURVE SMOOTH",
"372.48 45.12 LINE SMOOTH",
"372.48 54.87 OFFCURVE",
"367.23 60.12 OFFCURVE",
"357.48 60.12 CURVE SMOOTH",
"351.49 60.12 LINE",
"300.58 62.57 OFFCURVE",
"284.01 102.44 OFFCURVE",
"284.01 155.08 CURVE SMOOTH"
);
}
);
width = 407;
}
);
leftKerningGroup = I;
note = Imacron;
rightKerningGroup = I;
unicode = 012A;
},
{
glyphname = Iogonek;
layers = (
{
hints = (
{
horizontal = 1;
place = "{-253.58, 77}";
type = Stem;
},
{
horizontal = 1;
place = "{0, 60.12}";
type = Stem;
},
{
horizontal = 1;
place = "{689.88, 60.12}";
type = Stem;
},
{
place = "{124.21, 159.8}";
type = Stem;
},
{
place = "{161.37, 99.12}";
type = Stem;
}
);
layerId = "6AD408C6-91F3-4F0B-A103-73D10F5280D9";
paths = (
{
closed = 1;
nodes = (
"372.48 45.12 LINE SMOOTH",
"372.48 54.87 OFFCURVE",
"367.23 60.12 OFFCURVE",
"357.48 60.12 CURVE SMOOTH",
"351.49 60.12 LINE",
"300.58 62.57 OFFCURVE",
"284.01 102.44 OFFCURVE",
"284.01 155.08 CURVE SMOOTH",
"284.01 594.92 LINE SMOOTH",
"284.01 647.56 OFFCURVE",
"300.58 687.43 OFFCURVE",
"351.49 689.88 CURVE",
"357.48 689.88 LINE SMOOTH",
"367.23 689.88 OFFCURVE",
"372.48 695.13 OFFCURVE",
"372.48 704.88 CURVE SMOOTH",
"372.48 735 LINE SMOOTH",
"372.48 744.75 OFFCURVE",
"367.23 750 OFFCURVE",
"357.48 750 CURVE SMOOTH",
"50 750 LINE SMOOTH",
"40.25 750 OFFCURVE",
"35 744.75 OFFCURVE",
"35 735 CURVE SMOOTH",
"35 704.88 LINE SMOOTH",
"35 695.13 OFFCURVE",
"40.25 689.88 OFFCURVE",
"50 689.88 CURVE SMOOTH",
"56.73 689.88 LINE",
"107.64 687.43 OFFCURVE",
"124.21 647.56 OFFCURVE",
"124.21 594.92 CURVE SMOOTH",
"124.21 155.08 LINE SMOOTH",
"124.21 102.44 OFFCURVE",
"107.64 62.57 OFFCURVE",
"56.73 60.12 CURVE",
"50 60.12 LINE SMOOTH",
"40.25 60.12 OFFCURVE",
"35 54.87 OFFCURVE",
"35 45.12 CURVE SMOOTH",
"35 15 LINE SMOOTH",
"35 5.25 OFFCURVE",
"40.25 0 OFFCURVE",
"50 0 CURVE SMOOTH",
"210.35 0 LINE",
"182.62 -23.84 OFFCURVE",
"161.37 -57.91 OFFCURVE",
"161.37 -105.58 CURVE SMOOTH",
"161.37 -166.58 OFFCURVE",
"210.32 -253.58 OFFCURVE",
"319.39 -253.58 CURVE SMOOTH",
"354.61 -253.58 OFFCURVE",
"392.56 -242.58 OFFCURVE",
"429.69 -218.58 CURVE SMOOTH",
"436.09 -214.58 OFFCURVE",
"438.55 -209.58 OFFCURVE",
"438.55 -202.58 CURVE",
"436.74 -162.58 LINE SMOOTH",
"436.32 -154.58 OFFCURVE",
"432.82 -150.58 OFFCURVE",
"427.54 -150.58 CURVE SMOOTH",
"417.03 -150.58 OFFCURVE",
"376.62 -176.58 OFFCURVE",
"340.02 -176.58 CURVE SMOOTH",
"289.32 -176.58 OFFCURVE",
"260.49 -141.58 OFFCURVE",
"260.49 -94.58 CURVE SMOOTH",
"260.49 -43.58 OFFCURVE",
"305.79 -8.48 OFFCURVE",
"357.52 -0.81 CURVE",
"363.69 0.89 LINE",
"369.44 2.77 OFFCURVE",
"372.48 7.58 OFFCURVE",
"372.48 15 CURVE SMOOTH"
);
}
);
width = 407;
}
);
leftKerningGroup = I;
note = Iogonek;
rightKerningGroup = I;
unicode = 012E;
},
{
glyphname = J;
layers = (
{
hints = (
{
horizontal = 1;
place = "{-11.16, 65.13}";
type = Stem;
},
{
horizontal = 1;
place = "{689.88, 60.12}";
type = Stem;
},
{
place = "{5, 130.14}";
type = Stem;
},
{
place = "{251.61, 159.8}";
type = Stem;
}
);
layerId = "6AD408C6-91F3-4F0B-A103-73D10F5280D9";
paths = (
{
closed = 1;
nodes = (
"177.4 750 LINE SMOOTH",
"167.65 750 OFFCURVE",
"162.4 744.75 OFFCURVE",
"162.4 735 CURVE SMOOTH",
"162.4 704.88 LINE SMOOTH",
"162.4 695.13 OFFCURVE",
"167.65 689.88 OFFCURVE",
"177.4 689.88 CURVE SMOOTH",
"184.13 689.88 LINE",
"235.04 687.43 OFFCURVE",
"251.61 647.56 OFFCURVE",
"251.61 594.92 CURVE SMOOTH",
"251.61 127.59 LINE SMOOTH",
"251.67 85.87 OFFCURVE",
"237.78 53.97 OFFCURVE",
"190.65 53.97 CURVE SMOOTH",
"148.61 53.97 OFFCURVE",
"135.14 99.97 OFFCURVE",
"135.14 145.97 CURVE SMOOTH",
"135.14 158.97 OFFCURVE",
"136.21 171.99 OFFCURVE",
"138.01 183.99 CURVE",
"138.95 196.09 OFFCURVE",
"132.84 201.98 OFFCURVE",
"126.09 201.98 CURVE SMOOTH",
"124.05 201.98 OFFCURVE",
"121.94 201.44 OFFCURVE",
"119.96 200.37 CURVE SMOOTH",
"20.94 147.01 LINE SMOOTH",
"9.86 141.04 OFFCURVE",
"5 131.32 OFFCURVE",
"5 122.83 CURVE SMOOTH",
"5 96.18 OFFCURVE",
"47.34 -11.16 OFFCURVE",
"181.04 -11.16 CURVE SMOOTH",
"376.52 -11.16 OFFCURVE",
"411.41 113.19 OFFCURVE",
"411.41 218.34 CURVE SMOOTH",
"411.41 594.76 LINE SMOOTH",
"411.41 647.4 OFFCURVE",
"427.98 687.27 OFFCURVE",
"478.89 689.72 CURVE",
"484.88 689.72 LINE SMOOTH",
"494.63 689.72 OFFCURVE",
"499.88 694.97 OFFCURVE",
"499.88 704.72 CURVE SMOOTH",
"499.88 734.84 LINE SMOOTH",
"499.88 744.59 OFFCURVE",
"494.63 749.84 OFFCURVE",
"484.88 749.84 CURVE SMOOTH"
);
}
);
width = 525;
}
);
leftKerningGroup = J;
note = J;
rightKerningGroup = IJ;
unicode = 004A;
},
{
glyphname = K;
layers = (
{
hints = (
{
horizontal = 1;
place = "{0, 60.12}";
type = Stem;
},
{
horizontal = 1;
place = "{689.88, 60.12}";
type = Stem;
},
{
place = "{119.22, 159.8}";
type = Stem;
},
{
horizontal = 1;
place = "{690.65, 60}";
type = Stem;
}
);
layerId = "6AD408C6-91F3-4F0B-A103-73D10F5280D9";
paths = (
{
closed = 1;
nodes = (
"769.31 60.12 LINE",
"718.45 62.63 OFFCURVE",
"703.86 104.32 OFFCURVE",
"670 155.08 CURVE SMOOTH",
"462.33 466.48 LINE",
"609.32 625.17 LINE SMOOTH",
"657.83 677.53 OFFCURVE",
"680 690.65 OFFCURVE",
"719.7 690.65 CURVE SMOOTH",
"731.64 690.65 LINE SMOOTH",
"739.39 690.65 OFFCURVE",
"744.64 695.9 OFFCURVE",
"744.64 705.65 CURVE SMOOTH",
"744.64 735.65 LINE",
"743.99 745.38 OFFCURVE",
"739.39 750.65 OFFCURVE",
"729.64 750.65 CURVE SMOOTH",
"477.28 750.65 LINE SMOOTH",
"467.53 750.65 OFFCURVE",
"462.28 745.4 OFFCURVE",
"462.28 735.65 CURVE SMOOTH",
"462.28 705.65 LINE",
"461.64 695.92 OFFCURVE",
"467.53 690.65 OFFCURVE",
"475.28 690.65 CURVE SMOOTH",
"495.62 690.65 LINE SMOOTH",
"509.64 690.65 OFFCURVE",
"515.66 682.92 OFFCURVE",
"515.66 673.19 CURVE SMOOTH",
"515.66 665.58 OFFCURVE",
"511.98 656.76 OFFCURVE",
"505.57 649.45 CURVE SMOOTH",
"475.01 614.62 LINE",
"279.02 397.12 LINE",
"279.02 593.93 LINE SMOOTH",
"279.02 646.33 OFFCURVE",
"295.44 687.03 OFFCURVE",
"345.81 689.88 CURVE",
"352.7 689.88 LINE SMOOTH",
"362.45 689.88 OFFCURVE",
"367.7 695.13 OFFCURVE",
"367.7 704.88 CURVE SMOOTH",
"367.7 735 LINE SMOOTH",
"367.7 744.75 OFFCURVE",
"362.45 750 OFFCURVE",
"352.7 750 CURVE SMOOTH",
"45.22 750 LINE SMOOTH",
"35.47 750 OFFCURVE",
"30.22 744.75 OFFCURVE",
"30.22 735 CURVE SMOOTH",
"30.22 704.88 LINE SMOOTH",
"30.22 695.13 OFFCURVE",
"35.47 689.88 OFFCURVE",
"45.22 689.88 CURVE SMOOTH",
"52.5 689.88 LINE",
"102.82 687.07 OFFCURVE",
"119.22 647.34 OFFCURVE",
"119.22 594.96 CURVE SMOOTH",
"119.22 155.08 LINE SMOOTH",
"119.21 102.44 OFFCURVE",
"102.64 62.57 OFFCURVE",
"51.73 60.12 CURVE",
"45 60.12 LINE SMOOTH",
"35.25 60.12 OFFCURVE",
"30 54.87 OFFCURVE",
"30 45.12 CURVE SMOOTH",
"30 15 LINE SMOOTH",
"30 5.25 OFFCURVE",
"35.25 0 OFFCURVE",
"45 0 CURVE SMOOTH",
"352.48 0 LINE SMOOTH",
"362.23 0 OFFCURVE",
"367.48 5.25 OFFCURVE",
"367.48 15 CURVE SMOOTH",
"367.48 45.12 LINE SMOOTH",
"367.48 54.87 OFFCURVE",
"362.23 60.12 OFFCURVE",
"352.48 60.12 CURVE SMOOTH",
"346.49 60.12 LINE",
"295.58 62.57 OFFCURVE",
"279.01 102.44 OFFCURVE",
"279.01 155.08 CURVE SMOOTH",
"279.01 269.32 LINE",
"364.39 361.34 LINE",
"510.2 155.08 LINE SMOOTH",
"522.33 137.93 OFFCURVE",
"527.91 121.6 OFFCURVE",
"527.91 107.48 CURVE SMOOTH",
"527.91 80.68 OFFCURVE",
"507.83 61.78 OFFCURVE",
"474.25 60.12 CURVE",
"467.68 60.12 LINE SMOOTH",
"457.93 60.12 OFFCURVE",
"452.68 54.87 OFFCURVE",
"452.68 45.12 CURVE SMOOTH",
"452.68 15 LINE SMOOTH",
"452.68 5.25 OFFCURVE",
"457.93 0 OFFCURVE",
"467.68 0 CURVE SMOOTH",
"775.16 0 LINE SMOOTH",
"784.91 0 OFFCURVE",
"790.16 5.25 OFFCURVE",
"790.16 15 CURVE SMOOTH",
"790.16 45.12 LINE SMOOTH",
"790.16 54.87 OFFCURVE",
"784.91 60.12 OFFCURVE",
"775.16 60.12 CURVE SMOOTH"
);
}
);
width = 798;
}
);
leftKerningGroup = B;
note = K;
rightKerningGroup = K;
unicode = 004B;
},
{
glyphname = Kcommaaccent;
layers = (
{
hints = (
{
horizontal = 1;
place = "{0, 60.12}";
type = Stem;
},
{
horizontal = 1;
place = "{689.88, 60.12}";
type = Stem;
},
{
place = "{119.22, 159.8}";
type = Stem;
},
{
horizontal = 1;
place = "{690.65, 60}";
type = Stem;
},
{
place = "{331.98, 177.11}";
type = Stem;
}
);
layerId = "6AD408C6-91F3-4F0B-A103-73D10F5280D9";
paths = (
{
closed = 1;
nodes = (
"769.31 60.12 LINE",
"718.45 62.63 OFFCURVE",
"703.86 104.32 OFFCURVE",
"670 155.08 CURVE SMOOTH",
"462.33 466.48 LINE",
"609.32 625.17 LINE SMOOTH",
"657.83 677.53 OFFCURVE",
"680 690.65 OFFCURVE",
"719.7 690.65 CURVE SMOOTH",
"731.64 690.65 LINE SMOOTH",
"739.39 690.65 OFFCURVE",
"744.64 695.9 OFFCURVE",
"744.64 705.65 CURVE SMOOTH",
"744.64 735.65 LINE",
"743.99 745.38 OFFCURVE",
"739.39 750.65 OFFCURVE",
"729.64 750.65 CURVE SMOOTH",
"477.28 750.65 LINE SMOOTH",
"467.53 750.65 OFFCURVE",
"462.28 745.4 OFFCURVE",
"462.28 735.65 CURVE SMOOTH",
"462.28 705.65 LINE",
"461.64 695.92 OFFCURVE",
"467.53 690.65 OFFCURVE",
"475.28 690.65 CURVE SMOOTH",
"495.62 690.65 LINE SMOOTH",
"509.64 690.65 OFFCURVE",
"515.66 682.92 OFFCURVE",
"515.66 673.19 CURVE SMOOTH",
"515.66 665.58 OFFCURVE",
"511.98 656.76 OFFCURVE",
"505.57 649.45 CURVE SMOOTH",
"475.01 614.62 LINE",
"279.02 397.12 LINE",
"279.02 593.93 LINE SMOOTH",
"279.02 646.33 OFFCURVE",
"295.44 687.03 OFFCURVE",
"345.81 689.88 CURVE",
"352.7 689.88 LINE SMOOTH",
"362.45 689.88 OFFCURVE",
"367.7 695.13 OFFCURVE",
"367.7 704.88 CURVE SMOOTH",
"367.7 735 LINE SMOOTH",
"367.7 744.75 OFFCURVE",
"362.45 750 OFFCURVE",
"352.7 750 CURVE SMOOTH",
"45.22 750 LINE SMOOTH",
"35.47 750 OFFCURVE",
"30.22 744.75 OFFCURVE",
"30.22 735 CURVE SMOOTH",
"30.22 704.88 LINE SMOOTH",
"30.22 695.13 OFFCURVE",
"35.47 689.88 OFFCURVE",
"45.22 689.88 CURVE SMOOTH",
"52.5 689.88 LINE",
"102.82 687.07 OFFCURVE",
"119.22 647.34 OFFCURVE",
"119.22 594.96 CURVE SMOOTH",
"119.22 155.08 LINE SMOOTH",
"119.21 102.44 OFFCURVE",
"102.64 62.57 OFFCURVE",
"51.73 60.12 CURVE",
"45 60.12 LINE SMOOTH",
"35.25 60.12 OFFCURVE",
"30 54.87 OFFCURVE",
"30 45.12 CURVE SMOOTH",
"30 15 LINE SMOOTH",
"30 5.25 OFFCURVE",
"35.25 0 OFFCURVE",
"45 0 CURVE SMOOTH",
"352.48 0 LINE SMOOTH",
"362.23 0 OFFCURVE",
"367.48 5.25 OFFCURVE",
"367.48 15 CURVE SMOOTH",
"367.48 45.12 LINE SMOOTH",
"367.48 54.87 OFFCURVE",
"362.23 60.12 OFFCURVE",
"352.48 60.12 CURVE SMOOTH",
"346.49 60.12 LINE",
"295.58 62.57 OFFCURVE",
"279.01 102.44 OFFCURVE",
"279.01 155.08 CURVE SMOOTH",
"279.01 269.32 LINE",
"364.39 361.34 LINE",
"510.2 155.08 LINE SMOOTH",
"522.33 137.93 OFFCURVE",
"527.91 121.6 OFFCURVE",
"527.91 107.48 CURVE SMOOTH",
"527.91 80.68 OFFCURVE",
"507.83 61.78 OFFCURVE",
"474.25 60.12 CURVE",
"467.68 60.12 LINE SMOOTH",
"457.93 60.12 OFFCURVE",
"452.68 54.87 OFFCURVE",
"452.68 45.12 CURVE SMOOTH",
"452.68 15 LINE SMOOTH",
"452.68 5.25 OFFCURVE",
"457.93 0 OFFCURVE",
"467.68 0 CURVE SMOOTH",
"775.16 0 LINE SMOOTH",
"784.91 0 OFFCURVE",
"790.16 5.25 OFFCURVE",
"790.16 15 CURVE SMOOTH",
"790.16 45.12 LINE SMOOTH",
"790.16 54.87 OFFCURVE",
"784.91 60.12 OFFCURVE",
"775.16 60.12 CURVE SMOOTH"
);
},
{
closed = 1;
nodes = (
"448.86 -56 LINE SMOOTH",
"436.18 -43.32 OFFCURVE",
"423.02 -37 OFFCURVE",
"409.86 -37 CURVE SMOOTH",
"396.77 -37 OFFCURVE",
"383.68 -43.25 OFFCURVE",
"371.08 -55.72 CURVE SMOOTH",
"331.98 -94.81 LINE SMOOTH",
"319.34 -107.45 OFFCURVE",
"313.02 -120.58 OFFCURVE",
"313.02 -133.7 CURVE SMOOTH",
"313.02 -146.83 OFFCURVE",
"319.34 -159.96 OFFCURVE",
"331.98 -172.59 CURVE SMOOTH",
"370.11 -210.71 LINE",
"371.08 -211.69 LINE SMOOTH",
"376.81 -217.42 OFFCURVE",
"379.48 -225.23 OFFCURVE",
"379.48 -234.46 CURVE SMOOTH",
"379.48 -265.95 OFFCURVE",
"348.26 -313.84 OFFCURVE",
"300.39 -350.97 CURVE",
"329.3 -363.97 OFFCURVE",
"335.17 -365.97 OFFCURVE",
"340.08 -365.97 CURVE SMOOTH",
"363.12 -365.97 OFFCURVE",
"489.39 -258.97 OFFCURVE",
"505.79 -179.97 CURVE SMOOTH",
"508.07 -168.98 OFFCURVE",
"509.09 -159.14 OFFCURVE",
"509.09 -150.31 CURVE SMOOTH",
"509.09 -124.25 OFFCURVE",
"500.14 -107 OFFCURVE",
"487.95 -94.9 CURVE SMOOTH"
);
}
);
width = 798;
}
);
leftKerningGroup = B;
note = Kcommaaccent;
rightKerningGroup = K;
unicode = 0136;
},
{
glyphname = L;
layers = (
{
hints = (
{
horizontal = 1;
place = "{-0.31, 71.06}";
type = Stem;
},
{
horizontal = 1;
place = "{689.45, 60.24}";
type = Stem;
},
{
place = "{118.55, 159.8}";
type = Stem;
},
{
horizontal = 1;
place = "{-0.31, 60}";
type = Stem;
}
);
layerId = "6AD408C6-91F3-4F0B-A103-73D10F5280D9";
paths = (
{
closed = 1;
nodes = (
"648.45 232.55 LINE SMOOTH",
"645.34 234.35 OFFCURVE",
"642.4 235.25 OFFCURVE",
"639.67 235.25 CURVE SMOOTH",
"634.78 235.25 OFFCURVE",
"630.59 232.36 OFFCURVE",
"627.34 226.58 CURVE SMOOTH",
"624.12 221.05 LINE SMOOTH",
"536.78 77.58 OFFCURVE",
"456.87 70.75 OFFCURVE",
"385.91 70.75 CURVE SMOOTH",
"347.31 70.75 LINE SMOOTH",
"295.24 72.5 OFFCURVE",
"278.35 112.62 OFFCURVE",
"278.35 165.77 CURVE SMOOTH",
"278.35 689.45 LINE",
"338.68 689.45 LINE SMOOTH",
"348.43 689.45 OFFCURVE",
"366.62 694.7 OFFCURVE",
"366.62 704.45 CURVE SMOOTH",
"366.62 734.45 LINE SMOOTH",
"366.62 744.2 OFFCURVE",
"358.15 749.69 OFFCURVE",
"348.4 749.69 CURVE SMOOTH",
"45 749.69 LINE SMOOTH",
"35.25 749.69 OFFCURVE",
"30 744.2 OFFCURVE",
"30 734.45 CURVE SMOOTH",
"30 704.45 LINE SMOOTH",
"30 694.7 OFFCURVE",
"35.25 689.45 OFFCURVE",
"45 689.45 CURVE SMOOTH",
"46 689.45 LINE SMOOTH",
"100.89 689.45 OFFCURVE",
"118.55 648.72 OFFCURVE",
"118.55 594.37 CURVE SMOOTH",
"118.55 154.77 LINE SMOOTH",
"118.55 100.42 OFFCURVE",
"100.89 59.69 OFFCURVE",
"46 59.69 CURVE SMOOTH",
"45 59.69 LINE SMOOTH",
"35.25 59.69 OFFCURVE",
"30 54.44 OFFCURVE",
"30 44.69 CURVE SMOOTH",
"30 14.69 LINE SMOOTH",
"30 4.94 OFFCURVE",
"35.25 -0.31 OFFCURVE",
"45 -0.31 CURVE SMOOTH",
"546.44 -0.31 LINE SMOOTH",
"553.88 -0.31 OFFCURVE",
"559.79 -0.31 OFFCURVE",
"565.6 -5.31 CURVE SMOOTH",
"571.17 -10.31 LINE SMOOTH",
"574.1 -12.96 OFFCURVE",
"577.25 -14.18 OFFCURVE",
"580.26 -14.18 CURVE SMOOTH",
"585.19 -14.18 OFFCURVE",
"589.74 -10.9 OFFCURVE",
"592.28 -5.31 CURVE SMOOTH",
"685.98 192.66 LINE",
"687.82 195.79 OFFCURVE",
"688.72 198.75 OFFCURVE",
"688.72 201.49 CURVE SMOOTH",
"688.72 206.36 OFFCURVE",
"685.88 210.55 OFFCURVE",
"680.32 213.77 CURVE SMOOTH"
);
}
);
width = 709;
}
);
leftKerningGroup = B;
note = L;
rightKerningGroup = AE;
unicode = 004C;
},
{
glyphname = Lacute;
layers = (
{
hints = (
{
horizontal = 1;
place = "{-0.31, 71.06}";
type = Stem;
},
{
horizontal = 1;
place = "{689.45, 60.24}";
type = Stem;
},
{
place = "{118.55, 159.8}";
type = Stem;
},
{
horizontal = 1;
place = "{-0.31, 60}";
type = Stem;
}
);
layerId = "6AD408C6-91F3-4F0B-A103-73D10F5280D9";
paths = (
{
closed = 1;
nodes = (
"171.88 810.23 LINE SMOOTH",
"175.21 808.63 OFFCURVE",
"178.2 807.81 OFFCURVE",
"181.3 807.81 CURVE SMOOTH",
"183.49 807.81 OFFCURVE",
"185.74 808.22 OFFCURVE",
"188.19 809.06 CURVE SMOOTH",
"247.92 829.5 OFFCURVE",
"349 889.54 OFFCURVE",
"349 971.46 CURVE SMOOTH",
"349 1006.34 OFFCURVE",
"317.41 1022.36 OFFCURVE",
"279.21 1022.36 CURVE SMOOTH",
"272.97 1022.36 OFFCURVE",
"266.55 1021.93 OFFCURVE",
"260.07 1021.09 CURVE SMOOTH",
"250.03 1019.78 OFFCURVE",
"244.97 1015.19 OFFCURVE",
"242.41 1008.41 CURVE SMOOTH",
"217.48 942.93 OFFCURVE",
"198.86 908.74 OFFCURVE",
"135.5 827.73 CURVE"
);
},
{
closed = 1;
nodes = (
"648.45 232.55 LINE SMOOTH",
"645.34 234.35 OFFCURVE",
"642.4 235.25 OFFCURVE",
"639.67 235.25 CURVE SMOOTH",
"634.78 235.25 OFFCURVE",
"630.59 232.36 OFFCURVE",
"627.34 226.58 CURVE SMOOTH",
"624.12 221.05 LINE SMOOTH",
"536.78 77.58 OFFCURVE",
"456.87 70.75 OFFCURVE",
"385.91 70.75 CURVE SMOOTH",
"347.31 70.75 LINE SMOOTH",
"295.24 72.5 OFFCURVE",
"278.35 112.62 OFFCURVE",
"278.35 165.77 CURVE SMOOTH",
"278.35 689.45 LINE",
"338.68 689.45 LINE SMOOTH",
"348.43 689.45 OFFCURVE",
"366.62 694.7 OFFCURVE",
"366.62 704.45 CURVE SMOOTH",
"366.62 734.45 LINE SMOOTH",
"366.62 744.2 OFFCURVE",
"358.15 749.69 OFFCURVE",
"348.4 749.69 CURVE SMOOTH",
"45 749.69 LINE SMOOTH",
"35.25 749.69 OFFCURVE",
"30 744.2 OFFCURVE",
"30 734.45 CURVE SMOOTH",
"30 704.45 LINE SMOOTH",
"30 694.7 OFFCURVE",
"35.25 689.45 OFFCURVE",
"45 689.45 CURVE SMOOTH",
"46 689.45 LINE SMOOTH",
"100.89 689.45 OFFCURVE",
"118.55 648.72 OFFCURVE",
"118.55 594.37 CURVE SMOOTH",
"118.55 154.77 LINE SMOOTH",
"118.55 100.42 OFFCURVE",
"100.89 59.69 OFFCURVE",
"46 59.69 CURVE SMOOTH",
"45 59.69 LINE SMOOTH",
"35.25 59.69 OFFCURVE",
"30 54.44 OFFCURVE",
"30 44.69 CURVE SMOOTH",
"30 14.69 LINE SMOOTH",
"30 4.94 OFFCURVE",
"35.25 -0.31 OFFCURVE",
"45 -0.31 CURVE SMOOTH",
"546.44 -0.31 LINE SMOOTH",
"553.88 -0.31 OFFCURVE",
"559.79 -0.31 OFFCURVE",
"565.6 -5.31 CURVE SMOOTH",
"571.17 -10.31 LINE SMOOTH",
"574.1 -12.96 OFFCURVE",
"577.25 -14.18 OFFCURVE",
"580.26 -14.18 CURVE SMOOTH",
"585.19 -14.18 OFFCURVE",
"589.74 -10.9 OFFCURVE",
"592.28 -5.31 CURVE SMOOTH",
"685.98 192.66 LINE",
"687.82 195.79 OFFCURVE",
"688.72 198.75 OFFCURVE",
"688.72 201.49 CURVE SMOOTH",
"688.72 206.36 OFFCURVE",
"685.88 210.55 OFFCURVE",
"680.32 213.77 CURVE SMOOTH"
);
}
);
width = 709;
}
);
leftKerningGroup = B;
note = Lacute;
rightKerningGroup = AE;
unicode = 0139;
},
{
glyphname = Lcaron;
layers = (
{
hints = (
{
horizontal = 1;
place = "{-0.31, 71.06}";
type = Stem;
},
{
horizontal = 1;
place = "{502.73, -20}";
target = down;
type = TopGhost;
},
{
horizontal = 1;
place = "{689.45, 60.24}";
type = Stem;
},
{
place = "{118.55, 159.8}";
type = Stem;
},
{
horizontal = 1;
place = "{-0.31, 60}";
type = Stem;
}
);
layerId = "6AD408C6-91F3-4F0B-A103-73D10F5280D9";
paths = (
{
closed = 1;
nodes = (
"648.45 232.55 LINE SMOOTH",
"645.34 234.35 OFFCURVE",
"642.4 235.25 OFFCURVE",
"639.67 235.25 CURVE SMOOTH",
"634.78 235.25 OFFCURVE",
"630.59 232.36 OFFCURVE",
"627.34 226.58 CURVE SMOOTH",
"624.12 221.05 LINE SMOOTH",
"536.78 77.58 OFFCURVE",
"456.87 70.75 OFFCURVE",
"385.91 70.75 CURVE SMOOTH",
"347.31 70.75 LINE SMOOTH",
"295.24 72.5 OFFCURVE",
"278.35 112.62 OFFCURVE",
"278.35 165.77 CURVE SMOOTH",
"278.35 689.45 LINE",
"338.68 689.45 LINE SMOOTH",
"348.43 689.45 OFFCURVE",
"366.62 694.7 OFFCURVE",
"366.62 704.45 CURVE SMOOTH",
"366.62 734.45 LINE SMOOTH",
"366.62 744.2 OFFCURVE",
"358.15 749.69 OFFCURVE",
"348.4 749.69 CURVE SMOOTH",
"45 749.69 LINE SMOOTH",
"35.25 749.69 OFFCURVE",
"30 744.2 OFFCURVE",
"30 734.45 CURVE SMOOTH",
"30 704.45 LINE SMOOTH",
"30 694.7 OFFCURVE",
"35.25 689.45 OFFCURVE",
"45 689.45 CURVE SMOOTH",
"46 689.45 LINE SMOOTH",
"100.89 689.45 OFFCURVE",
"118.55 648.72 OFFCURVE",
"118.55 594.37 CURVE SMOOTH",
"118.55 154.77 LINE SMOOTH",
"118.55 100.42 OFFCURVE",
"100.89 59.69 OFFCURVE",
"46 59.69 CURVE SMOOTH",
"45 59.69 LINE SMOOTH",
"35.25 59.69 OFFCURVE",
"30 54.44 OFFCURVE",
"30 44.69 CURVE SMOOTH",
"30 14.69 LINE SMOOTH",
"30 4.94 OFFCURVE",
"35.25 -0.31 OFFCURVE",
"45 -0.31 CURVE SMOOTH",
"546.44 -0.31 LINE SMOOTH",
"553.88 -0.31 OFFCURVE",
"559.79 -0.31 OFFCURVE",
"565.6 -5.31 CURVE SMOOTH",
"571.17 -10.31 LINE SMOOTH",
"574.1 -12.96 OFFCURVE",
"577.25 -14.18 OFFCURVE",
"580.26 -14.18 CURVE SMOOTH",
"585.19 -14.18 OFFCURVE",
"589.74 -10.9 OFFCURVE",
"592.28 -5.31 CURVE SMOOTH",
"685.98 192.66 LINE",
"687.82 195.79 OFFCURVE",
"688.72 198.75 OFFCURVE",
"688.72 201.49 CURVE SMOOTH",
"688.72 206.36 OFFCURVE",
"685.88 210.55 OFFCURVE",
"680.32 213.77 CURVE SMOOTH"
);
},
{
closed = 1;
nodes = (
"433.37 485.23 LINE SMOOTH",
"436.7 483.63 OFFCURVE",
"439.69 482.81 OFFCURVE",
"442.79 482.81 CURVE SMOOTH",
"444.98 482.81 OFFCURVE",
"447.23 483.22 OFFCURVE",
"449.68 484.06 CURVE SMOOTH",
"509.41 504.5 OFFCURVE",
"610.49 564.54 OFFCURVE",
"610.49 646.46 CURVE SMOOTH",
"610.49 681.34 OFFCURVE",
"578.9 697.36 OFFCURVE",
"540.7 697.36 CURVE SMOOTH",
"534.46 697.36 OFFCURVE",
"528.04 696.93 OFFCURVE",
"521.56 696.09 CURVE SMOOTH",
"511.51 694.79 OFFCURVE",
"506.45 690.19 OFFCURVE",
"503.9 683.41 CURVE SMOOTH",
"478.97 617.94 OFFCURVE",
"460.34 583.75 OFFCURVE",
"396.98 502.73 CURVE"
);
}
);
width = 709;
}
);
leftKerningGroup = B;
note = Lcaron;
rightKerningGroup = AE;
unicode = 013D;
},
{
glyphname = Lcommaaccent;
layers = (
{
hints = (
{
horizontal = 1;
place = "{-0.31, 71.06}";
type = Stem;
},
{
horizontal = 1;
place = "{689.45, 60.24}";
type = Stem;
},
{
place = "{118.55, 159.8}";
type = Stem;
},
{
horizontal = 1;
place = "{-0.31, 60}";
type = Stem;
},
{
place = "{272.38, 177.11}";
type = Stem;
}
);
layerId = "6AD408C6-91F3-4F0B-A103-73D10F5280D9";
paths = (
{
closed = 1;
nodes = (
"648.45 232.55 LINE SMOOTH",
"645.34 234.35 OFFCURVE",
"642.4 235.25 OFFCURVE",
"639.67 235.25 CURVE SMOOTH",
"634.78 235.25 OFFCURVE",
"630.59 232.36 OFFCURVE",
"627.34 226.58 CURVE SMOOTH",
"624.12 221.05 LINE SMOOTH",
"536.78 77.58 OFFCURVE",
"456.87 70.75 OFFCURVE",
"385.91 70.75 CURVE SMOOTH",
"347.31 70.75 LINE SMOOTH",
"295.24 72.5 OFFCURVE",
"278.35 112.62 OFFCURVE",
"278.35 165.77 CURVE SMOOTH",
"278.35 689.45 LINE",
"338.68 689.45 LINE SMOOTH",
"348.43 689.45 OFFCURVE",
"366.62 694.7 OFFCURVE",
"366.62 704.45 CURVE SMOOTH",
"366.62 734.45 LINE SMOOTH",
"366.62 744.2 OFFCURVE",
"358.15 749.69 OFFCURVE",
"348.4 749.69 CURVE SMOOTH",
"45 749.69 LINE SMOOTH",
"35.25 749.69 OFFCURVE",
"30 744.2 OFFCURVE",
"30 734.45 CURVE SMOOTH",
"30 704.45 LINE SMOOTH",
"30 694.7 OFFCURVE",
"35.25 689.45 OFFCURVE",
"45 689.45 CURVE SMOOTH",
"46 689.45 LINE SMOOTH",
"100.89 689.45 OFFCURVE",
"118.55 648.72 OFFCURVE",
"118.55 594.37 CURVE SMOOTH",
"118.55 154.77 LINE SMOOTH",
"118.55 100.42 OFFCURVE",
"100.89 59.69 OFFCURVE",
"46 59.69 CURVE SMOOTH",
"45 59.69 LINE SMOOTH",
"35.25 59.69 OFFCURVE",
"30 54.44 OFFCURVE",
"30 44.69 CURVE SMOOTH",
"30 14.69 LINE SMOOTH",
"30 4.94 OFFCURVE",
"35.25 -0.31 OFFCURVE",
"45 -0.31 CURVE SMOOTH",
"546.44 -0.31 LINE SMOOTH",
"553.88 -0.31 OFFCURVE",
"559.79 -0.31 OFFCURVE",
"565.6 -5.31 CURVE SMOOTH",
"571.17 -10.31 LINE SMOOTH",
"574.1 -12.96 OFFCURVE",
"577.25 -14.18 OFFCURVE",
"580.26 -14.18 CURVE SMOOTH",
"585.19 -14.18 OFFCURVE",
"589.74 -10.9 OFFCURVE",
"592.28 -5.31 CURVE SMOOTH",
"685.98 192.66 LINE",
"687.82 195.79 OFFCURVE",
"688.72 198.75 OFFCURVE",
"688.72 201.49 CURVE SMOOTH",
"688.72 206.36 OFFCURVE",
"685.88 210.55 OFFCURVE",
"680.32 213.77 CURVE SMOOTH"
);
},
{
closed = 1;
nodes = (
"389.26 -56.31 LINE SMOOTH",
"376.58 -43.63 OFFCURVE",
"363.42 -37.31 OFFCURVE",
"350.26 -37.31 CURVE SMOOTH",
"337.17 -37.31 OFFCURVE",
"324.08 -43.56 OFFCURVE",
"311.48 -56.03 CURVE SMOOTH",
"272.38 -95.12 LINE SMOOTH",
"259.74 -107.76 OFFCURVE",
"253.42 -120.89 OFFCURVE",
"253.42 -134.01 CURVE SMOOTH",
"253.42 -147.14 OFFCURVE",
"259.74 -160.26 OFFCURVE",
"272.38 -172.9 CURVE SMOOTH",
"311.48 -212 LINE SMOOTH",
"317.21 -217.73 OFFCURVE",
"319.88 -225.54 OFFCURVE",
"319.88 -234.77 CURVE SMOOTH",
"319.88 -266.26 OFFCURVE",
"288.66 -314.15 OFFCURVE",
"240.79 -351.28 CURVE",
"269.7 -364.28 OFFCURVE",
"275.57 -366.28 OFFCURVE",
"280.48 -366.28 CURVE SMOOTH",
"303.52 -366.28 OFFCURVE",
"429.78 -259.28 OFFCURVE",
"446.19 -180.28 CURVE SMOOTH",
"448.47 -169.29 OFFCURVE",
"449.49 -159.45 OFFCURVE",
"449.49 -150.62 CURVE SMOOTH",
"449.49 -124.56 OFFCURVE",
"440.54 -107.31 OFFCURVE",
"428.35 -95.21 CURVE SMOOTH"
);
}
);
width = 709;
}
);
leftKerningGroup = B;
note = Lcommaaccent;
rightKerningGroup = AE;
unicode = 013B;
},
{
glyphname = Ldot;
layers = (
{
hints = (
{
horizontal = 1;
place = "{-0.31, 71.06}";
type = Stem;
},
{
horizontal = 1;
place = "{505.43, -20}";
target = down;
type = TopGhost;
},
{
horizontal = 1;
place = "{689.45, 60.24}";
type = Stem;
},
{
place = "{118.55, 159.8}";
type = Stem;
},
{
place = "{387.27, 155.98}";
type = Stem;
},
{
horizontal = 1;
place = "{-0.31, 60}";
type = Stem;
},
{
horizontal = 1;
place = "{330.46, 174.97}";
type = Stem;
}
);
layerId = "6AD408C6-91F3-4F0B-A103-73D10F5280D9";
paths = (
{
closed = 1;
nodes = (
"648.45 232.55 LINE SMOOTH",
"645.34 234.35 OFFCURVE",
"642.4 235.25 OFFCURVE",
"639.67 235.25 CURVE SMOOTH",
"634.78 235.25 OFFCURVE",
"630.59 232.36 OFFCURVE",
"627.34 226.58 CURVE SMOOTH",
"624.12 221.05 LINE SMOOTH",
"536.78 77.58 OFFCURVE",
"456.87 70.75 OFFCURVE",
"385.91 70.75 CURVE SMOOTH",
"347.31 70.75 LINE SMOOTH",
"295.24 72.5 OFFCURVE",
"278.35 112.62 OFFCURVE",
"278.35 165.77 CURVE SMOOTH",
"278.35 689.45 LINE",
"338.68 689.45 LINE SMOOTH",
"348.43 689.45 OFFCURVE",
"366.62 694.7 OFFCURVE",
"366.62 704.45 CURVE SMOOTH",
"366.62 734.45 LINE SMOOTH",
"366.62 744.2 OFFCURVE",
"358.15 749.69 OFFCURVE",
"348.4 749.69 CURVE SMOOTH",
"45 749.69 LINE SMOOTH",
"35.25 749.69 OFFCURVE",
"30 744.2 OFFCURVE",
"30 734.45 CURVE SMOOTH",
"30 704.45 LINE SMOOTH",
"30 694.7 OFFCURVE",
"35.25 689.45 OFFCURVE",
"45 689.45 CURVE SMOOTH",
"46 689.45 LINE SMOOTH",
"100.89 689.45 OFFCURVE",
"118.55 648.72 OFFCURVE",
"118.55 594.37 CURVE SMOOTH",
"118.55 154.77 LINE SMOOTH",
"118.55 100.42 OFFCURVE",
"100.89 59.69 OFFCURVE",
"46 59.69 CURVE SMOOTH",
"45 59.69 LINE SMOOTH",
"35.25 59.69 OFFCURVE",
"30 54.44 OFFCURVE",
"30 44.69 CURVE SMOOTH",
"30 14.69 LINE SMOOTH",
"30 4.94 OFFCURVE",
"35.25 -0.31 OFFCURVE",
"45 -0.31 CURVE SMOOTH",
"546.44 -0.31 LINE SMOOTH",
"553.88 -0.31 OFFCURVE",
"559.79 -0.31 OFFCURVE",
"565.6 -5.31 CURVE SMOOTH",
"571.17 -10.31 LINE SMOOTH",
"574.1 -12.96 OFFCURVE",
"577.25 -14.18 OFFCURVE",
"580.26 -14.18 CURVE SMOOTH",
"585.19 -14.18 OFFCURVE",
"589.74 -10.9 OFFCURVE",
"592.28 -5.31 CURVE SMOOTH",
"685.98 192.66 LINE",
"687.82 195.79 OFFCURVE",
"688.72 198.75 OFFCURVE",
"688.72 201.49 CURVE SMOOTH",
"688.72 206.36 OFFCURVE",
"685.88 210.55 OFFCURVE",
"680.32 213.77 CURVE SMOOTH"
);
},
{
closed = 1;
nodes = (
"426.37 330.46 LINE SMOOTH",
"439.01 317.96 OFFCURVE",
"452.14 311.71 OFFCURVE",
"465.26 311.71 CURVE SMOOTH",
"478.39 311.71 OFFCURVE",
"491.51 317.96 OFFCURVE",
"504.15 330.46 CURVE SMOOTH",
"543.25 369.56 LINE SMOOTH",
"555.89 382.2 OFFCURVE",
"562.21 395.32 OFFCURVE",
"562.21 408.45 CURVE SMOOTH",
"562.21 421.57 OFFCURVE",
"555.89 434.7 OFFCURVE",
"543.25 447.34 CURVE SMOOTH",
"504.15 486.43 LINE SMOOTH",
"491.47 499.11 OFFCURVE",
"478.31 505.43 OFFCURVE",
"465.15 505.43 CURVE SMOOTH",
"452.06 505.43 OFFCURVE",
"438.97 499.18 OFFCURVE",
"426.37 486.71 CURVE SMOOTH",
"387.27 447.62 LINE SMOOTH",
"374.64 434.98 OFFCURVE",
"368.32 421.85 OFFCURVE",
"368.32 408.73 CURVE SMOOTH",
"368.32 395.6 OFFCURVE",
"374.64 382.48 OFFCURVE",
"387.27 369.84 CURVE SMOOTH"
);
}
);
width = 709;
}
);
leftKerningGroup = B;
note = Ldot;
rightKerningGroup = AE;
unicode = 013F;
},
{
glyphname = Lslash;
layers = (
{
hints = (
{
horizontal = 1;
place = "{-0.31, 71.06}";
type = Stem;
},
{
horizontal = 1;
place = "{689.45, 60.24}";
type = Stem;
},
{
place = "{118.55, 159.8}";
type = Stem;
},
{
horizontal = 1;
place = "{-0.31, 60}";
type = Stem;
}
);
layerId = "6AD408C6-91F3-4F0B-A103-73D10F5280D9";
paths = (
{
closed = 1;
nodes = (
"648.45 232.55 LINE SMOOTH",
"645.34 234.35 OFFCURVE",
"642.4 235.25 OFFCURVE",
"639.67 235.25 CURVE SMOOTH",
"634.78 235.25 OFFCURVE",
"630.59 232.36 OFFCURVE",
"627.34 226.58 CURVE SMOOTH",
"624.12 221.05 LINE SMOOTH",
"536.78 77.58 OFFCURVE",
"456.87 70.75 OFFCURVE",
"385.91 70.75 CURVE SMOOTH",
"347.31 70.75 LINE SMOOTH",
"295.24 72.5 OFFCURVE",
"278.35 112.62 OFFCURVE",
"278.35 165.77 CURVE SMOOTH",
"278.35 382.95 LINE",
"402.55 429.77 LINE SMOOTH",
"410.56 432.78 OFFCURVE",
"414.33 438.16 OFFCURVE",
"414.33 446.61 CURVE",
"413.11 526.78 LINE SMOOTH",
"412.97 535.27 OFFCURVE",
"408.94 539.99 OFFCURVE",
"402.41 539.99 CURVE SMOOTH",
"400.4 539.99 OFFCURVE",
"398.15 539.54 OFFCURVE",
"395.71 538.62 CURVE SMOOTH",
"278.35 494.38 LINE",
"278.35 689.45 LINE",
"338.68 689.45 LINE SMOOTH",
"348.43 689.45 OFFCURVE",
"366.62 694.7 OFFCURVE",
"366.62 704.45 CURVE SMOOTH",
"366.62 734.45 LINE SMOOTH",
"366.62 744.2 OFFCURVE",
"358.15 749.69 OFFCURVE",
"348.4 749.69 CURVE SMOOTH",
"45 749.69 LINE SMOOTH",
"35.25 749.69 OFFCURVE",
"30 744.2 OFFCURVE",
"30 734.45 CURVE SMOOTH",
"30 704.45 LINE SMOOTH",
"30 694.7 OFFCURVE",
"35.25 689.45 OFFCURVE",
"45 689.45 CURVE SMOOTH",
"46 689.45 LINE SMOOTH",
"100.89 689.45 OFFCURVE",
"118.55 648.72 OFFCURVE",
"118.55 594.37 CURVE SMOOTH",
"118.55 434.15 LINE",
"23.49 398.32 LINE SMOOTH",
"15.48 395.3 OFFCURVE",
"11.71 389.92 OFFCURVE",
"11.71 381.48 CURVE SMOOTH",
"12.98 301.3 LINE SMOOTH",
"13.11 292.82 OFFCURVE",
"17.14 288.1 OFFCURVE",
"23.67 288.1 CURVE SMOOTH",
"25.69 288.1 OFFCURVE",
"27.93 288.55 OFFCURVE",
"30.38 289.47 CURVE SMOOTH",
"118.55 322.71 LINE",
"118.55 154.77 LINE SMOOTH",
"118.55 100.42 OFFCURVE",
"100.89 59.69 OFFCURVE",
"46 59.69 CURVE SMOOTH",
"45 59.69 LINE SMOOTH",
"35.25 59.69 OFFCURVE",
"30 54.44 OFFCURVE",
"30 44.69 CURVE SMOOTH",
"30 14.69 LINE SMOOTH",
"30 4.94 OFFCURVE",
"35.25 -0.31 OFFCURVE",
"45 -0.31 CURVE SMOOTH",
"546.44 -0.31 LINE SMOOTH",
"553.88 -0.31 OFFCURVE",
"559.79 -0.31 OFFCURVE",
"565.6 -5.31 CURVE SMOOTH",
"571.17 -10.31 LINE SMOOTH",
"574.1 -12.96 OFFCURVE",
"577.25 -14.18 OFFCURVE",
"580.26 -14.18 CURVE SMOOTH",
"585.19 -14.18 OFFCURVE",
"589.74 -10.9 OFFCURVE",
"592.28 -5.31 CURVE SMOOTH",
"685.98 192.66 LINE",
"687.82 195.79 OFFCURVE",
"688.72 198.75 OFFCURVE",
"688.72 201.49 CURVE SMOOTH",
"688.72 206.36 OFFCURVE",
"685.88 210.55 OFFCURVE",
"680.32 213.77 CURVE SMOOTH"
);
}
);
width = 709;
}
);
leftKerningGroup = B;
note = Lslash;
rightKerningGroup = AE;
unicode = 0141;
},
{
glyphname = M;
layers = (
{
hints = (
{
horizontal = 1;
place = "{0, 60}";
type = Stem;
},
{
horizontal = 1;
place = "{690.03, 60}";
type = Stem;
},
{
place = "{119.39, 99.68}";
type = Stem;
},
{
place = "{816.88, 100.55}";
type = Stem;
}
);
layerId = "6AD408C6-91F3-4F0B-A103-73D10F5280D9";
paths = (
{
closed = 1;
nodes = (
"917.43 674.84 LINE",
"936.45 686.2 OFFCURVE",
"957.16 690.03 OFFCURVE",
"979.45 690.03 CURVE SMOOTH",
"989.2 690.03 OFFCURVE",
"994.45 695.28 OFFCURVE",
"994.45 705.03 CURVE SMOOTH",
"994.45 735.03 LINE SMOOTH",
"994.45 744.78 OFFCURVE",
"989.2 750.03 OFFCURVE",
"979.45 750.03 CURVE SMOOTH",
"791.31 750.03 LINE SMOOTH",
"783.42 750.03 OFFCURVE",
"778.16 747.28 OFFCURVE",
"772.97 741.34 CURVE",
"517.97 225.35 LINE",
"262.97 741.34 LINE",
"257.78 747.28 OFFCURVE",
"252.53 750.03 OFFCURVE",
"244.64 750.03 CURVE SMOOTH",
"56.5 750.03 LINE SMOOTH",
"46.75 750.03 OFFCURVE",
"41.5 744.78 OFFCURVE",
"41.5 735.03 CURVE SMOOTH",
"41.5 705.03 LINE SMOOTH",
"41.5 695.28 OFFCURVE",
"46.75 690.03 OFFCURVE",
"56.5 690.03 CURVE SMOOTH",
"78.79 690.03 OFFCURVE",
"99.5 686.2 OFFCURVE",
"119.39 674.84 CURVE",
"119.39 155.08 LINE SMOOTH",
"118.52 100.74 OFFCURVE",
"93.89 60 OFFCURVE",
"45 60 CURVE SMOOTH",
"35.25 60 OFFCURVE",
"30 54.75 OFFCURVE",
"30 45 CURVE SMOOTH",
"30 15 LINE SMOOTH",
"30 5.25 OFFCURVE",
"35.25 0 OFFCURVE",
"45 0 CURVE SMOOTH",
"291.62 0 LINE SMOOTH",
"301.37 0 OFFCURVE",
"306.62 5.25 OFFCURVE",
"306.62 15 CURVE SMOOTH",
"306.62 45 LINE SMOOTH",
"306.62 54.75 OFFCURVE",
"301.37 60 OFFCURVE",
"291.62 60 CURVE SMOOTH",
"242.73 60 OFFCURVE",
"219.07 100.73 OFFCURVE",
"219.07 155.08 CURVE SMOOTH",
"219.07 534.28 LINE",
"454.46 56.34 LINE SMOOTH",
"458.19 48.75 OFFCURVE",
"463.6 45.29 OFFCURVE",
"472.05 45.29 CURVE SMOOTH",
"563.9 45.29 LINE SMOOTH",
"572.35 45.29 OFFCURVE",
"577.76 48.75 OFFCURVE",
"581.49 56.34 CURVE SMOOTH",
"816.88 534.28 LINE",
"816.88 155.08 LINE SMOOTH",
"816.88 100.73 OFFCURVE",
"793.22 60 OFFCURVE",
"744.33 60 CURVE SMOOTH",
"734.58 60 OFFCURVE",
"729.33 54.75 OFFCURVE",
"729.33 45 CURVE SMOOTH",
"729.33 15 LINE SMOOTH",
"729.33 5.25 OFFCURVE",
"734.58 0 OFFCURVE",
"744.33 0 CURVE SMOOTH",
"990.95 0 LINE SMOOTH",
"1000.7 0 OFFCURVE",
"1005.95 5.25 OFFCURVE",
"1005.95 15 CURVE SMOOTH",
"1005.95 45 LINE SMOOTH",
"1005.95 54.75 OFFCURVE",
"1000.7 60 OFFCURVE",
"990.95 60 CURVE SMOOTH",
"942.06 60 OFFCURVE",
"917.43 100.74 OFFCURVE",
"917.43 155.08 CURVE SMOOTH"
);
}
);
width = 1036;
}
);
leftKerningGroup = B;
note = M;
rightKerningGroup = H;
unicode = 004D;
},
{
glyphname = N;
layers = (
{
hints = (
{
horizontal = 1;
place = "{0, 60}";
type = Stem;
},
{
horizontal = 1;
place = "{690.24, 60}";
type = Stem;
},
{
place = "{117.55, 100.55}";
type = Stem;
},
{
place = "{692.66, 100.55}";
type = Stem;
},
{
horizontal = 1;
place = "{690.03, 59.93}";
type = Stem;
}
);
layerId = "6AD408C6-91F3-4F0B-A103-73D10F5280D9";
paths = (
{
closed = 1;
nodes = (
"619.14 750.24 LINE SMOOTH",
"609.39 750.24 OFFCURVE",
"604.14 744.99 OFFCURVE",
"604.14 735.24 CURVE SMOOTH",
"604.14 705.24 LINE SMOOTH",
"604.14 695.49 OFFCURVE",
"609.39 690.24 OFFCURVE",
"619.14 690.24 CURVE SMOOTH",
"668.03 690.24 OFFCURVE",
"692.66 649.5 OFFCURVE",
"692.66 595.16 CURVE SMOOTH",
"692.66 231.3 LINE",
"246.32 741.34 LINE SMOOTH",
"241.12 747.28 OFFCURVE",
"235.86 749.95 OFFCURVE",
"227.97 749.96 CURVE SMOOTH",
"54.83 749.96 LINE SMOOTH",
"45.08 750.03 OFFCURVE",
"39.83 744.78 OFFCURVE",
"39.83 735.03 CURVE SMOOTH",
"39.83 705.03 LINE SMOOTH",
"39.83 695.28 OFFCURVE",
"45.08 690.03 OFFCURVE",
"54.83 690.03 CURVE SMOOTH",
"79.99 690.03 OFFCURVE",
"98.15 681.84 OFFCURVE",
"117.55 664.89 CURVE",
"117.55 155.08 LINE SMOOTH",
"117.55 100.73 OFFCURVE",
"93.89 60 OFFCURVE",
"45 60 CURVE SMOOTH",
"35.25 60 OFFCURVE",
"30 54.75 OFFCURVE",
"30 45 CURVE SMOOTH",
"30 15 LINE SMOOTH",
"30 5.25 OFFCURVE",
"35.25 0 OFFCURVE",
"45 0 CURVE SMOOTH",
"291.62 0 LINE SMOOTH",
"301.37 0 OFFCURVE",
"306.62 5.25 OFFCURVE",
"306.62 15 CURVE SMOOTH",
"306.62 45 LINE SMOOTH",
"306.62 54.75 OFFCURVE",
"301.37 60 OFFCURVE",
"291.62 60 CURVE SMOOTH",
"242.73 60 OFFCURVE",
"218.1 100.74 OFFCURVE",
"218.1 155.08 CURVE SMOOTH",
"218.1 553.02 LINE",
"690.84 8.59 LINE SMOOTH",
"696.02 2.63 OFFCURVE",
"701.31 0 OFFCURVE",
"709.2 0 CURVE SMOOTH",
"778.21 0 LINE SMOOTH",
"787.96 0 OFFCURVE",
"793.21 5.25 OFFCURVE",
"793.21 15 CURVE SMOOTH",
"793.21 595.16 LINE",
"792.24 649.5 OFFCURVE",
"816.87 690.24 OFFCURVE",
"865.76 690.24 CURVE SMOOTH",
"875.51 690.24 OFFCURVE",
"880.76 695.49 OFFCURVE",
"880.76 705.24 CURVE SMOOTH",
"880.76 735.24 LINE SMOOTH",
"880.76 744.99 OFFCURVE",
"875.51 750.24 OFFCURVE",
"865.76 750.24 CURVE SMOOTH"
);
}
);
width = 891;
}
);
leftKerningGroup = B;
note = N;
rightKerningGroup = N;
unicode = 004E;
},
{
glyphname = Nacute;
layers = (
{
hints = (
{
horizontal = 1;
place = "{0, 60}";
type = Stem;
},
{
horizontal = 1;
place = "{690.24, 60}";
type = Stem;
},
{
place = "{117.55, 100.55}";
type = Stem;
},
{
place = "{692.66, 100.55}";
type = Stem;
},
{
horizontal = 1;
place = "{690.03, 59.93}";
type = Stem;
}
);
layerId = "6AD408C6-91F3-4F0B-A103-73D10F5280D9";
paths = (
{
closed = 1;
nodes = (
"418.61 810.23 LINE SMOOTH",
"421.94 808.63 OFFCURVE",
"424.93 807.81 OFFCURVE",
"428.03 807.81 CURVE SMOOTH",
"430.22 807.81 OFFCURVE",
"432.47 808.22 OFFCURVE",
"434.92 809.06 CURVE SMOOTH",
"494.65 829.5 OFFCURVE",
"595.73 889.54 OFFCURVE",
"595.73 971.46 CURVE SMOOTH",
"595.73 1006.34 OFFCURVE",
"564.14 1022.36 OFFCURVE",
"525.94 1022.36 CURVE SMOOTH",
"519.7 1022.36 OFFCURVE",
"513.28 1021.93 OFFCURVE",
"506.8 1021.09 CURVE SMOOTH",
"496.75 1019.78 OFFCURVE",
"491.69 1015.19 OFFCURVE",
"489.14 1008.41 CURVE SMOOTH",
"464.21 942.93 OFFCURVE",
"445.58 908.74 OFFCURVE",
"382.22 827.73 CURVE"
);
},
{
closed = 1;
nodes = (
"619.14 750.24 LINE SMOOTH",
"609.39 750.24 OFFCURVE",
"604.14 744.99 OFFCURVE",
"604.14 735.24 CURVE SMOOTH",
"604.14 705.24 LINE SMOOTH",
"604.14 695.49 OFFCURVE",
"609.39 690.24 OFFCURVE",
"619.14 690.24 CURVE SMOOTH",
"668.03 690.24 OFFCURVE",
"692.66 649.5 OFFCURVE",
"692.66 595.16 CURVE SMOOTH",
"692.66 231.3 LINE",
"246.32 741.34 LINE SMOOTH",
"241.12 747.28 OFFCURVE",
"235.86 749.95 OFFCURVE",
"227.97 749.96 CURVE SMOOTH",
"54.83 749.96 LINE SMOOTH",
"45.08 750.03 OFFCURVE",
"39.83 744.78 OFFCURVE",
"39.83 735.03 CURVE SMOOTH",
"39.83 705.03 LINE SMOOTH",
"39.83 695.28 OFFCURVE",
"45.08 690.03 OFFCURVE",
"54.83 690.03 CURVE SMOOTH",
"79.99 690.03 OFFCURVE",
"98.15 681.84 OFFCURVE",
"117.55 664.89 CURVE",
"117.55 155.08 LINE SMOOTH",
"117.55 100.73 OFFCURVE",
"93.89 60 OFFCURVE",
"45 60 CURVE SMOOTH",
"35.25 60 OFFCURVE",
"30 54.75 OFFCURVE",
"30 45 CURVE SMOOTH",
"30 15 LINE SMOOTH",
"30 5.25 OFFCURVE",
"35.25 0 OFFCURVE",
"45 0 CURVE SMOOTH",
"291.62 0 LINE SMOOTH",
"301.37 0 OFFCURVE",
"306.62 5.25 OFFCURVE",
"306.62 15 CURVE SMOOTH",
"306.62 45 LINE SMOOTH",
"306.62 54.75 OFFCURVE",
"301.37 60 OFFCURVE",
"291.62 60 CURVE SMOOTH",
"242.73 60 OFFCURVE",
"218.1 100.74 OFFCURVE",
"218.1 155.08 CURVE SMOOTH",
"218.1 553.02 LINE",
"690.84 8.59 LINE SMOOTH",
"696.02 2.63 OFFCURVE",
"701.31 0 OFFCURVE",
"709.2 0 CURVE SMOOTH",
"778.21 0 LINE SMOOTH",
"787.96 0 OFFCURVE",
"793.21 5.25 OFFCURVE",
"793.21 15 CURVE SMOOTH",
"793.21 595.16 LINE",
"792.24 649.5 OFFCURVE",
"816.87 690.24 OFFCURVE",
"865.76 690.24 CURVE SMOOTH",
"875.51 690.24 OFFCURVE",
"880.76 695.49 OFFCURVE",
"880.76 705.24 CURVE SMOOTH",
"880.76 735.24 LINE SMOOTH",
"880.76 744.99 OFFCURVE",
"875.51 750.24 OFFCURVE",
"865.76 750.24 CURVE SMOOTH"
);
}
);
width = 891;
}
);
leftKerningGroup = B;
note = Nacute;
rightKerningGroup = N;
unicode = 0143;
},
{
glyphname = Ncaron;
layers = (
{
hints = (
{
horizontal = 1;
place = "{0, 60}";
type = Stem;
},
{
horizontal = 1;
place = "{690.24, 60}";
type = Stem;
},
{
place = "{117.55, 100.55}";
type = Stem;
},
{
place = "{692.66, 100.55}";
type = Stem;
},
{
horizontal = 1;
place = "{690.03, 59.93}";
type = Stem;
}
);
layerId = "6AD408C6-91F3-4F0B-A103-73D10F5280D9";
paths = (
{
closed = 1;
nodes = (
"342.35 887.22 OFFCURVE",
"376.54 868.6 OFFCURVE",
"457.55 805.24 CURVE",
"538.56 868.6 OFFCURVE",
"572.75 887.22 OFFCURVE",
"638.23 912.15 CURVE SMOOTH",
"645.01 914.71 OFFCURVE",
"649.6 919.77 OFFCURVE",
"650.91 929.81 CURVE SMOOTH",
"651.75 936.29 OFFCURVE",
"652.18 942.71 OFFCURVE",
"652.18 948.95 CURVE SMOOTH",
"652.18 987.15 OFFCURVE",
"636.16 1018.74 OFFCURVE",
"601.28 1018.74 CURVE SMOOTH",
"537.1 1018.74 OFFCURVE",
"486.35 956.7 OFFCURVE",
"457.55 901.11 CURVE",
"428.75 956.7 OFFCURVE",
"378 1018.74 OFFCURVE",
"313.82 1018.74 CURVE SMOOTH",
"278.94 1018.74 OFFCURVE",
"262.92 987.15 OFFCURVE",
"262.92 948.95 CURVE SMOOTH",
"262.92 942.71 OFFCURVE",
"263.35 936.29 OFFCURVE",
"264.19 929.81 CURVE SMOOTH",
"265.5 919.77 OFFCURVE",
"270.09 914.71 OFFCURVE",
"276.87 912.15 CURVE SMOOTH"
);
},
{
closed = 1;
nodes = (
"619.14 750.24 LINE SMOOTH",
"609.39 750.24 OFFCURVE",
"604.14 744.99 OFFCURVE",
"604.14 735.24 CURVE SMOOTH",
"604.14 705.24 LINE SMOOTH",
"604.14 695.49 OFFCURVE",
"609.39 690.24 OFFCURVE",
"619.14 690.24 CURVE SMOOTH",
"668.03 690.24 OFFCURVE",
"692.66 649.5 OFFCURVE",
"692.66 595.16 CURVE SMOOTH",
"692.66 231.3 LINE",
"246.32 741.34 LINE SMOOTH",
"241.12 747.28 OFFCURVE",
"235.86 749.95 OFFCURVE",
"227.97 749.96 CURVE SMOOTH",
"54.83 749.96 LINE SMOOTH",
"45.08 750.03 OFFCURVE",
"39.83 744.78 OFFCURVE",
"39.83 735.03 CURVE SMOOTH",
"39.83 705.03 LINE SMOOTH",
"39.83 695.28 OFFCURVE",
"45.08 690.03 OFFCURVE",
"54.83 690.03 CURVE SMOOTH",
"79.99 690.03 OFFCURVE",
"98.15 681.84 OFFCURVE",
"117.55 664.89 CURVE",
"117.55 155.08 LINE SMOOTH",
"117.55 100.73 OFFCURVE",
"93.89 60 OFFCURVE",
"45 60 CURVE SMOOTH",
"35.25 60 OFFCURVE",
"30 54.75 OFFCURVE",
"30 45 CURVE SMOOTH",
"30 15 LINE SMOOTH",
"30 5.25 OFFCURVE",
"35.25 0 OFFCURVE",
"45 0 CURVE SMOOTH",
"291.62 0 LINE SMOOTH",
"301.37 0 OFFCURVE",
"306.62 5.25 OFFCURVE",
"306.62 15 CURVE SMOOTH",
"306.62 45 LINE SMOOTH",
"306.62 54.75 OFFCURVE",
"301.37 60 OFFCURVE",
"291.62 60 CURVE SMOOTH",
"242.73 60 OFFCURVE",
"218.1 100.74 OFFCURVE",
"218.1 155.08 CURVE SMOOTH",
"218.1 553.02 LINE",
"690.84 8.59 LINE SMOOTH",
"696.02 2.63 OFFCURVE",
"701.31 0 OFFCURVE",
"709.2 0 CURVE SMOOTH",
"778.21 0 LINE SMOOTH",
"787.96 0 OFFCURVE",
"793.21 5.25 OFFCURVE",
"793.21 15 CURVE SMOOTH",
"793.21 595.16 LINE",
"792.24 649.5 OFFCURVE",
"816.87 690.24 OFFCURVE",
"865.76 690.24 CURVE SMOOTH",
"875.51 690.24 OFFCURVE",
"880.76 695.49 OFFCURVE",
"880.76 705.24 CURVE SMOOTH",
"880.76 735.24 LINE SMOOTH",
"880.76 744.99 OFFCURVE",
"875.51 750.24 OFFCURVE",
"865.76 750.24 CURVE SMOOTH"
);
}
);
width = 891;
}
);
leftKerningGroup = B;
note = Ncaron;
rightKerningGroup = N;
unicode = 0147;
},
{
glyphname = Ncommaaccent;
layers = (
{
hints = (
{
horizontal = 1;
place = "{0, 60}";
type = Stem;
},
{
horizontal = 1;
place = "{690.24, 60}";
type = Stem;
},
{
place = "{117.55, 100.55}";
type = Stem;
},
{
place = "{692.66, 100.55}";
type = Stem;
},
{
horizontal = 1;
place = "{690.03, 59.93}";
type = Stem;
},
{
place = "{378.31, 177.11}";
type = Stem;
}
);
layerId = "6AD408C6-91F3-4F0B-A103-73D10F5280D9";
paths = (
{
closed = 1;
nodes = (
"619.14 750.24 LINE SMOOTH",
"609.39 750.24 OFFCURVE",
"604.14 744.99 OFFCURVE",
"604.14 735.24 CURVE SMOOTH",
"604.14 705.24 LINE SMOOTH",
"604.14 695.49 OFFCURVE",
"609.39 690.24 OFFCURVE",
"619.14 690.24 CURVE SMOOTH",
"668.03 690.24 OFFCURVE",
"692.66 649.5 OFFCURVE",
"692.66 595.16 CURVE SMOOTH",
"692.66 231.3 LINE",
"246.32 741.34 LINE SMOOTH",
"241.12 747.28 OFFCURVE",
"235.86 749.95 OFFCURVE",
"227.97 749.96 CURVE SMOOTH",
"54.83 749.96 LINE SMOOTH",
"45.08 750.03 OFFCURVE",
"39.83 744.78 OFFCURVE",
"39.83 735.03 CURVE SMOOTH",
"39.83 705.03 LINE SMOOTH",
"39.83 695.28 OFFCURVE",
"45.08 690.03 OFFCURVE",
"54.83 690.03 CURVE SMOOTH",
"79.99 690.03 OFFCURVE",
"98.15 681.84 OFFCURVE",
"117.55 664.89 CURVE",
"117.55 155.08 LINE SMOOTH",
"117.55 100.73 OFFCURVE",
"93.89 60 OFFCURVE",
"45 60 CURVE SMOOTH",
"35.25 60 OFFCURVE",
"30 54.75 OFFCURVE",
"30 45 CURVE SMOOTH",
"30 15 LINE SMOOTH",
"30 5.25 OFFCURVE",
"35.25 0 OFFCURVE",
"45 0 CURVE SMOOTH",
"291.62 0 LINE SMOOTH",
"301.37 0 OFFCURVE",
"306.62 5.25 OFFCURVE",
"306.62 15 CURVE SMOOTH",
"306.62 45 LINE SMOOTH",
"306.62 54.75 OFFCURVE",
"301.37 60 OFFCURVE",
"291.62 60 CURVE SMOOTH",
"242.73 60 OFFCURVE",
"218.1 100.74 OFFCURVE",
"218.1 155.08 CURVE SMOOTH",
"218.1 553.02 LINE",
"690.84 8.59 LINE SMOOTH",
"696.02 2.63 OFFCURVE",
"701.31 0 OFFCURVE",
"709.2 0 CURVE SMOOTH",
"778.21 0 LINE SMOOTH",
"787.96 0 OFFCURVE",
"793.21 5.25 OFFCURVE",
"793.21 15 CURVE SMOOTH",
"793.21 595.16 LINE",
"792.24 649.5 OFFCURVE",
"816.87 690.24 OFFCURVE",
"865.76 690.24 CURVE SMOOTH",
"875.51 690.24 OFFCURVE",
"880.76 695.49 OFFCURVE",
"880.76 705.24 CURVE SMOOTH",
"880.76 735.24 LINE SMOOTH",
"880.76 744.99 OFFCURVE",
"875.51 750.24 OFFCURVE",
"865.76 750.24 CURVE SMOOTH"
);
},
{
closed = 1;
nodes = (
"495.19 -56 LINE SMOOTH",
"482.51 -43.32 OFFCURVE",
"469.35 -37 OFFCURVE",
"456.19 -37 CURVE SMOOTH",
"443.1 -37 OFFCURVE",
"430.01 -43.25 OFFCURVE",
"417.41 -55.72 CURVE SMOOTH",
"378.31 -94.81 LINE SMOOTH",
"365.67 -107.45 OFFCURVE",
"359.35 -120.58 OFFCURVE",
"359.35 -133.7 CURVE SMOOTH",
"359.35 -146.83 OFFCURVE",
"365.67 -159.95 OFFCURVE",
"378.31 -172.59 CURVE SMOOTH",
"417.41 -211.69 LINE SMOOTH",
"423.14 -217.42 OFFCURVE",
"425.81 -225.23 OFFCURVE",
"425.81 -234.46 CURVE SMOOTH",
"425.81 -265.95 OFFCURVE",
"394.59 -313.84 OFFCURVE",
"346.72 -350.97 CURVE",
"375.63 -363.97 OFFCURVE",
"381.5 -365.97 OFFCURVE",
"386.41 -365.97 CURVE SMOOTH",
"409.45 -365.97 OFFCURVE",
"535.71 -258.97 OFFCURVE",
"552.12 -179.97 CURVE SMOOTH",
"554.4 -168.98 OFFCURVE",
"555.42 -159.14 OFFCURVE",
"555.42 -150.31 CURVE SMOOTH",
"555.42 -124.25 OFFCURVE",
"546.47 -107 OFFCURVE",
"534.28 -94.9 CURVE SMOOTH"
);
}
);
width = 891;
}
);
leftKerningGroup = B;
note = Ncommaaccent;
rightKerningGroup = N;
unicode = 0145;
},
{
glyphname = Eng;
layers = (
{
hints = (
{
horizontal = 1;
place = "{-214, 56}";
type = Stem;
},
{
horizontal = 1;
place = "{0, 60}";
type = Stem;
},
{
horizontal = 1;
place = "{690.24, 60}";
type = Stem;
},
{
place = "{117.55, 100.55}";
type = Stem;
},
{
place = "{692.66, 100.55}";
type = Stem;
},
{
horizontal = 1;
place = "{690.03, 59.93}";
type = Stem;
}
);
layerId = "6AD408C6-91F3-4F0B-A103-73D10F5280D9";
paths = (
{
closed = 1;
nodes = (
"861.47 750.24 LINE",
"619.14 750.24 LINE SMOOTH",
"609.39 750.24 OFFCURVE",
"604.14 744.99 OFFCURVE",
"604.14 735.24 CURVE SMOOTH",
"604.14 705.24 LINE SMOOTH",
"604.14 695.49 OFFCURVE",
"609.39 690.24 OFFCURVE",
"619.14 690.24 CURVE SMOOTH",
"668.03 690.24 OFFCURVE",
"692.66 649.5 OFFCURVE",
"692.66 595.16 CURVE SMOOTH",
"692.66 231.3 LINE",
"246.32 741.34 LINE SMOOTH",
"241.12 747.28 OFFCURVE",
"235.86 749.95 OFFCURVE",
"227.97 749.96 CURVE SMOOTH",
"54.83 749.96 LINE SMOOTH",
"45.08 750.03 OFFCURVE",
"39.83 744.78 OFFCURVE",
"39.83 735.03 CURVE SMOOTH",
"39.83 705.03 LINE SMOOTH",
"39.83 695.28 OFFCURVE",
"45.08 690.03 OFFCURVE",
"54.83 690.03 CURVE SMOOTH",
"79.99 690.03 OFFCURVE",
"98.15 681.84 OFFCURVE",
"117.55 664.89 CURVE",
"117.55 155.08 LINE SMOOTH",
"117.55 100.73 OFFCURVE",
"93.89 60 OFFCURVE",
"45 60 CURVE SMOOTH",
"35.25 60 OFFCURVE",
"30 54.75 OFFCURVE",
"30 45 CURVE SMOOTH",
"30 15 LINE SMOOTH",
"30 5.25 OFFCURVE",
"35.25 0 OFFCURVE",
"45 0 CURVE SMOOTH",
"291.62 0 LINE SMOOTH",
"301.37 0 OFFCURVE",
"306.62 5.25 OFFCURVE",
"306.62 15 CURVE SMOOTH",
"306.62 45 LINE SMOOTH",
"306.62 54.75 OFFCURVE",
"301.37 60 OFFCURVE",
"291.62 60 CURVE SMOOTH",
"242.73 60 OFFCURVE",
"218.1 100.74 OFFCURVE",
"218.1 155.08 CURVE SMOOTH",
"218.1 553.02 LINE",
"682.62 18.05 LINE",
"682.62 -5 LINE SMOOTH",
"682.9 -87 OFFCURVE",
"649.95 -158 OFFCURVE",
"589.76 -158 CURVE SMOOTH",
"534.43 -158 OFFCURVE",
"520.43 -105 OFFCURVE",
"520.43 -56 CURVE",
"519.73 -46.14 OFFCURVE",
"514.56 -41.74 OFFCURVE",
"509.12 -41.74 CURVE SMOOTH",
"506.84 -41.74 OFFCURVE",
"504.5 -42.52 OFFCURVE",
"502.43 -44 CURVE SMOOTH",
"431.43 -95 LINE SMOOTH",
"423.43 -101 OFFCURVE",
"420.43 -109 OFFCURVE",
"420.43 -116 CURVE SMOOTH",
"420.43 -135 OFFCURVE",
"459.43 -214 OFFCURVE",
"582.47 -214 CURVE SMOOTH",
"757.78 -214 OFFCURVE",
"793.21 -62 OFFCURVE",
"793.21 62 CURVE SMOOTH",
"793.21 595.4 LINE",
"792.24 649.74 OFFCURVE",
"816.87 690.48 OFFCURVE",
"865.76 690.48 CURVE SMOOTH",
"875.51 690.48 OFFCURVE",
"880.76 695.73 OFFCURVE",
"880.76 705.48 CURVE SMOOTH",
"880.76 735.48 LINE SMOOTH",
"880.76 745.23 OFFCURVE",
"875.51 750.48 OFFCURVE",
"865.76 750.48 CURVE"
);
}
);
width = 888;
}
);
leftKerningGroup = B;
note = Eng;
rightKerningGroup = N;
unicode = 014A;
},
{
glyphname = Ntilde;
layers = (
{
hints = (
{
horizontal = 1;
place = "{0.33, 60}";
type = Stem;
},
{
horizontal = 1;
place = "{690.57, 60}";
type = Stem;
},
{
horizontal = 1;
place = "{901.84, 86.33}";
type = Stem;
},
{
place = "{117.55, 100.55}";
type = Stem;
},
{
place = "{302.64, 91.11}";
type = Stem;
},
{
place = "{692.66, 100.55}";
type = Stem;
},
{
horizontal = 1;
place = "{806.9, 86.33}";
type = Stem;
},
{
place = "{561.34, 91.11}";
type = Stem;
},
{
horizontal = 1;
place = "{690.36, 59.93}";
type = Stem;
}
);
layerId = "6AD408C6-91F3-4F0B-A103-73D10F5280D9";
paths = (
{
closed = 1;
nodes = (
"375.04 806.28 OFFCURVE",
"398.04 823.73 OFFCURVE",
"408.8 836.55 CURVE",
"397.73 850.71 OFFCURVE",
"393.75 864.7 OFFCURVE",
"393.75 879.03 CURVE SMOOTH",
"393.75 888.75 OFFCURVE",
"398.28 901.94 OFFCURVE",
"412.3 901.84 CURVE SMOOTH",
"423.29 901.77 OFFCURVE",
"430.58 894.47 OFFCURVE",
"444.39 874.43 CURVE SMOOTH",
"462.59 849.68 OFFCURVE",
"485.34 806.9 OFFCURVE",
"554.5 806.9 CURVE SMOOTH",
"604.96 806.9 OFFCURVE",
"652.45 847.12 OFFCURVE",
"652.45 912.27 CURVE SMOOTH",
"652.45 952.24 OFFCURVE",
"619.83 988.79 OFFCURVE",
"602.07 988.79 CURVE SMOOTH",
"580.48 988.79 OFFCURVE",
"557.15 971.13 OFFCURVE",
"546.29 958.2 CURVE",
"557.36 944.04 OFFCURVE",
"561.34 930.04 OFFCURVE",
"561.34 916.04 CURVE SMOOTH",
"561.34 905.33 OFFCURVE",
"556.81 893.13 OFFCURVE",
"542.79 893.23 CURVE SMOOTH",
"531.8 893.31 OFFCURVE",
"524.51 900.6 OFFCURVE",
"510.7 920.65 CURVE SMOOTH",
"492.88 944.88 OFFCURVE",
"469.53 988.17 OFFCURVE",
"400.59 988.17 CURVE SMOOTH",
"350.13 988.17 OFFCURVE",
"302.64 947.96 OFFCURVE",
"302.64 882.81 CURVE SMOOTH",
"302.64 842.33 OFFCURVE",
"336.08 806.28 OFFCURVE",
"353.62 806.28 CURVE SMOOTH"
);
},
{
closed = 1;
nodes = (
"619.14 750.57 LINE SMOOTH",
"609.39 750.57 OFFCURVE",
"604.14 745.32 OFFCURVE",
"604.14 735.57 CURVE SMOOTH",
"604.14 705.57 LINE SMOOTH",
"604.14 695.82 OFFCURVE",
"609.39 690.57 OFFCURVE",
"619.14 690.57 CURVE SMOOTH",
"668.03 690.57 OFFCURVE",
"692.66 649.83 OFFCURVE",
"692.66 595.49 CURVE SMOOTH",
"692.66 231.63 LINE",
"246.32 741.67 LINE SMOOTH",
"241.12 747.61 OFFCURVE",
"235.86 750.28 OFFCURVE",
"227.97 750.29 CURVE SMOOTH",
"54.83 750.29 LINE SMOOTH",
"45.08 750.36 OFFCURVE",
"39.83 745.11 OFFCURVE",
"39.83 735.36 CURVE SMOOTH",
"39.83 705.36 LINE SMOOTH",
"39.83 695.61 OFFCURVE",
"45.08 690.36 OFFCURVE",
"54.83 690.36 CURVE SMOOTH",
"79.99 690.36 OFFCURVE",
"98.15 682.17 OFFCURVE",
"117.55 665.22 CURVE",
"117.55 155.41 LINE SMOOTH",
"117.55 101.06 OFFCURVE",
"93.89 60.33 OFFCURVE",
"45 60.33 CURVE SMOOTH",
"35.25 60.33 OFFCURVE",
"30 55.08 OFFCURVE",
"30 45.33 CURVE SMOOTH",
"30 15.33 LINE SMOOTH",
"30 5.58 OFFCURVE",
"35.25 0.33 OFFCURVE",
"45 0.33 CURVE SMOOTH",
"291.62 0.33 LINE SMOOTH",
"301.37 0.33 OFFCURVE",
"306.62 5.58 OFFCURVE",
"306.62 15.33 CURVE SMOOTH",
"306.62 45.33 LINE SMOOTH",
"306.62 55.08 OFFCURVE",
"301.37 60.33 OFFCURVE",
"291.62 60.33 CURVE SMOOTH",
"242.73 60.33 OFFCURVE",
"218.1 101.07 OFFCURVE",
"218.1 155.41 CURVE SMOOTH",
"218.1 553.35 LINE",
"690.84 8.92 LINE SMOOTH",
"696.02 2.96 OFFCURVE",
"701.31 0.33 OFFCURVE",
"709.2 0.33 CURVE SMOOTH",
"778.21 0.33 LINE SMOOTH",
"787.96 0.33 OFFCURVE",
"793.21 5.58 OFFCURVE",
"793.21 15.33 CURVE SMOOTH",
"793.21 595.49 LINE",
"792.24 649.83 OFFCURVE",
"816.87 690.57 OFFCURVE",
"865.76 690.57 CURVE SMOOTH",
"875.51 690.57 OFFCURVE",
"880.76 695.82 OFFCURVE",
"880.76 705.57 CURVE SMOOTH",
"880.76 735.57 LINE SMOOTH",
"880.76 745.32 OFFCURVE",
"875.51 750.57 OFFCURVE",
"865.76 750.57 CURVE SMOOTH"
);
}
);
width = 891;
}
);
leftKerningGroup = B;
note = Ntilde;
rightKerningGroup = N;
unicode = 00D1;
},
{
glyphname = O;
layers = (
{
hints = (
{
horizontal = 1;
place = "{-13.06, 89.02}";
type = Stem;
},
{
horizontal = 1;
place = "{673.9, 88.26}";
type = Stem;
},
{
place = "{35.12, 148.93}";
type = Stem;
},
{
place = "{637.5, 149.21}";
type = Stem;
}
);
layerId = "6AD408C6-91F3-4F0B-A103-73D10F5280D9";
paths = (
{
closed = 1;
nodes = (
"153.73 716.93 OFFCURVE",
"35.12 556.93 OFFCURVE",
"35.12 378.93 CURVE SMOOTH",
"35.12 351.58 OFFCURVE",
"37.93 323.79 OFFCURVE",
"43.76 295.97 CURVE SMOOTH",
"82.59 113.26 OFFCURVE",
"240.71 -13.06 OFFCURVE",
"415.5 -13.06 CURVE SMOOTH",
"440.53 -13.06 OFFCURVE",
"465.91 -10.47 OFFCURVE",
"491.32 -5.08 CURVE SMOOTH",
"666.96 32.65 OFFCURVE",
"786.71 191.31 OFFCURVE",
"786.71 368.87 CURVE SMOOTH",
"786.71 396.26 OFFCURVE",
"783.86 424.1 OFFCURVE",
"777.93 452.02 CURVE SMOOTH",
"739.07 634.85 OFFCURVE",
"579.96 762.16 OFFCURVE",
"404.92 762.16 CURVE SMOOTH",
"379.99 762.16 OFFCURVE",
"354.73 759.57 OFFCURVE",
"329.45 754.2 CURVE SMOOTH"
);
},
{
closed = 1;
nodes = (
"363.99 672.26 OFFCURVE",
"379.6 673.9 OFFCURVE",
"394.47 673.9 CURVE SMOOTH",
"526.82 673.9 OFFCURVE",
"599.94 543.63 OFFCURVE",
"626.26 419.78 CURVE SMOOTH",
"633.32 386.55 OFFCURVE",
"637.5 351.66 OFFCURVE",
"637.5 317.36 CURVE SMOOTH",
"637.5 209.45 OFFCURVE",
"596.14 107.37 OFFCURVE",
"473.07 81.21 CURVE SMOOTH",
"456.42 77.64 OFFCURVE",
"440.57 75.96 OFFCURVE",
"425.5 75.96 CURVE SMOOTH",
"293.75 75.96 OFFCURVE",
"221.7 204.59 OFFCURVE",
"195.42 328.21 CURVE SMOOTH",
"188.29 361.74 OFFCURVE",
"184.05 397.11 OFFCURVE",
"184.05 431.93 CURVE SMOOTH",
"184.05 539.98 OFFCURVE",
"224.95 642.71 OFFCURVE",
"347.61 668.78 CURVE SMOOTH"
);
}
);
width = 822;
}
);
leftKerningGroup = C;
note = O;
rightKerningGroup = D;
unicode = 004F;
},
{
glyphname = Oacute;
layers = (
{
hints = (
{
horizontal = 1;
place = "{-13.06, 89.02}";
type = Stem;
},
{
horizontal = 1;
place = "{673.9, 88.26}";
type = Stem;
},
{
place = "{35.12, 148.93}";
type = Stem;
},
{
place = "{637.5, 149.21}";
type = Stem;
}
);
layerId = "6AD408C6-91F3-4F0B-A103-73D10F5280D9";
paths = (
{
closed = 1;
nodes = (
"371.66 810.23 LINE SMOOTH",
"374.99 808.63 OFFCURVE",
"377.98 807.81 OFFCURVE",
"381.08 807.81 CURVE SMOOTH",
"383.27 807.81 OFFCURVE",
"385.51 808.22 OFFCURVE",
"387.96 809.06 CURVE SMOOTH",
"447.7 829.5 OFFCURVE",
"548.78 889.54 OFFCURVE",
"548.78 971.46 CURVE SMOOTH",
"548.78 1006.34 OFFCURVE",
"517.19 1022.36 OFFCURVE",
"478.99 1022.36 CURVE SMOOTH",
"472.75 1022.36 OFFCURVE",
"466.33 1021.93 OFFCURVE",
"459.85 1021.09 CURVE SMOOTH",
"449.8 1019.78 OFFCURVE",
"444.74 1015.19 OFFCURVE",
"442.18 1008.41 CURVE SMOOTH",
"417.26 942.93 OFFCURVE",
"398.63 908.74 OFFCURVE",
"335.27 827.73 CURVE"
);
},
{
closed = 1;
nodes = (
"153.73 716.93 OFFCURVE",
"35.12 556.93 OFFCURVE",
"35.12 378.93 CURVE SMOOTH",
"35.12 351.58 OFFCURVE",
"37.93 323.79 OFFCURVE",
"43.76 295.97 CURVE SMOOTH",
"82.59 113.26 OFFCURVE",
"240.71 -13.06 OFFCURVE",
"415.5 -13.06 CURVE SMOOTH",
"440.53 -13.06 OFFCURVE",
"465.91 -10.47 OFFCURVE",
"491.32 -5.08 CURVE SMOOTH",
"666.96 32.65 OFFCURVE",
"786.71 191.31 OFFCURVE",
"786.71 368.87 CURVE SMOOTH",
"786.71 396.26 OFFCURVE",
"783.86 424.1 OFFCURVE",
"777.93 452.02 CURVE SMOOTH",
"739.07 634.85 OFFCURVE",
"579.96 762.16 OFFCURVE",
"404.92 762.16 CURVE SMOOTH",
"379.99 762.16 OFFCURVE",
"354.73 759.57 OFFCURVE",
"329.45 754.2 CURVE SMOOTH"
);
},
{
closed = 1;
nodes = (
"363.99 672.26 OFFCURVE",
"379.6 673.9 OFFCURVE",
"394.47 673.9 CURVE SMOOTH",
"526.82 673.9 OFFCURVE",
"599.94 543.63 OFFCURVE",
"626.26 419.78 CURVE SMOOTH",
"633.32 386.55 OFFCURVE",
"637.5 351.66 OFFCURVE",
"637.5 317.36 CURVE SMOOTH",
"637.5 209.45 OFFCURVE",
"596.14 107.37 OFFCURVE",
"473.07 81.21 CURVE SMOOTH",
"456.42 77.64 OFFCURVE",
"440.57 75.96 OFFCURVE",
"425.5 75.96 CURVE SMOOTH",
"293.75 75.96 OFFCURVE",
"221.7 204.59 OFFCURVE",
"195.42 328.21 CURVE SMOOTH",
"188.29 361.74 OFFCURVE",
"184.05 397.11 OFFCURVE",
"184.05 431.93 CURVE SMOOTH",
"184.05 539.98 OFFCURVE",
"224.95 642.71 OFFCURVE",
"347.61 668.78 CURVE SMOOTH"
);
}
);
width = 822;
}
);
leftKerningGroup = C;
note = Oacute;
rightKerningGroup = D;
unicode = 00D3;
},
{
glyphname = Ocircumflex;
layers = (
{
hints = (
{
horizontal = 1;
place = "{-13.06, 89.02}";
type = Stem;
},
{
horizontal = 1;
place = "{673.9, 88.34}";
type = Stem;
},
{
place = "{35.12, 148.93}";
type = Stem;
},
{
place = "{637.5, 149.21}";
type = Stem;
}
);
layerId = "6AD408C6-91F3-4F0B-A103-73D10F5280D9";
paths = (
{
closed = 1;
nodes = (
"331.05 805.24 OFFCURVE",
"381.8 867.28 OFFCURVE",
"410.6 922.87 CURVE",
"439.39 867.28 OFFCURVE",
"490.14 805.24 OFFCURVE",
"554.32 805.24 CURVE SMOOTH",
"589.21 805.24 OFFCURVE",
"605.23 836.83 OFFCURVE",
"605.23 875.03 CURVE SMOOTH",
"605.23 881.27 OFFCURVE",
"604.8 887.69 OFFCURVE",
"603.96 894.17 CURVE SMOOTH",
"602.65 904.21 OFFCURVE",
"598.06 909.27 OFFCURVE",
"591.28 911.83 CURVE SMOOTH",
"525.8 936.76 OFFCURVE",
"491.61 955.38 OFFCURVE",
"410.6 1018.74 CURVE",
"329.58 955.38 OFFCURVE",
"295.39 936.76 OFFCURVE",
"229.92 911.83 CURVE SMOOTH",
"223.14 909.27 OFFCURVE",
"218.54 904.21 OFFCURVE",
"217.24 894.17 CURVE SMOOTH",
"216.4 887.69 OFFCURVE",
"215.97 881.27 OFFCURVE",
"215.97 875.03 CURVE SMOOTH",
"215.97 836.83 OFFCURVE",
"231.99 805.24 OFFCURVE",
"266.87 805.24 CURVE SMOOTH"
);
},
{
closed = 1;
nodes = (
"739.07 634.93 OFFCURVE",
"579.96 762.24 OFFCURVE",
"404.92 762.24 CURVE SMOOTH",
"379.99 762.24 OFFCURVE",
"354.73 759.65 OFFCURVE",
"329.45 754.28 CURVE SMOOTH",
"153.73 716.93 OFFCURVE",
"35.12 556.93 OFFCURVE",
"35.12 378.93 CURVE SMOOTH",
"35.12 351.58 OFFCURVE",
"37.93 323.79 OFFCURVE",
"43.76 295.97 CURVE SMOOTH",
"82.59 113.26 OFFCURVE",
"240.71 -13.06 OFFCURVE",
"415.5 -13.06 CURVE SMOOTH",
"440.53 -13.06 OFFCURVE",
"465.91 -10.47 OFFCURVE",
"491.32 -5.08 CURVE SMOOTH",
"666.96 32.65 OFFCURVE",
"786.71 191.31 OFFCURVE",
"786.71 368.87 CURVE SMOOTH",
"786.71 396.26 OFFCURVE",
"783.86 424.1 OFFCURVE",
"777.93 452.02 CURVE SMOOTH"
);
},
{
closed = 1;
nodes = (
"456.42 77.64 OFFCURVE",
"440.57 75.96 OFFCURVE",
"425.5 75.96 CURVE SMOOTH",
"293.75 75.96 OFFCURVE",
"221.7 204.59 OFFCURVE",
"195.42 328.21 CURVE SMOOTH",
"188.29 361.74 OFFCURVE",
"184.05 397.11 OFFCURVE",
"184.05 431.93 CURVE SMOOTH",
"184.05 539.98 OFFCURVE",
"224.95 642.71 OFFCURVE",
"347.61 668.78 CURVE SMOOTH",
"363.99 672.26 OFFCURVE",
"379.6 673.9 OFFCURVE",
"394.47 673.9 CURVE SMOOTH",
"526.82 673.9 OFFCURVE",
"599.94 543.63 OFFCURVE",
"626.26 419.78 CURVE SMOOTH",
"633.32 386.55 OFFCURVE",
"637.5 351.66 OFFCURVE",
"637.5 317.36 CURVE SMOOTH",
"637.5 209.45 OFFCURVE",
"596.14 107.37 OFFCURVE",
"473.07 81.21 CURVE SMOOTH"
);
}
);
width = 822;
}
);
leftKerningGroup = C;
note = Ocircumflex;
rightKerningGroup = D;
unicode = 00D4;
},
{
glyphname = Odieresis;
layers = (
{
hints = (
{
horizontal = 1;
place = "{-13.06, 89.02}";
type = Stem;
},
{
horizontal = 1;
place = "{673.9, 88.26}";
type = Stem;
},
{
horizontal = 1;
place = "{839.69, 150.26}";
type = Stem;
},
{
place = "{35.12, 148.93}";
type = Stem;
},
{
place = "{220.56, 150.26}";
type = Stem;
},
{
place = "{453.27, 150.26}";
type = Stem;
},
{
place = "{637.5, 149.21}";
type = Stem;
}
);
layerId = "6AD408C6-91F3-4F0B-A103-73D10F5280D9";
paths = (
{
closed = 1;
nodes = (
"277.83 989.95 OFFCURVE",
"263.33 982.72 OFFCURVE",
"245.56 964.95 CURVE SMOOTH",
"227.79 947.18 OFFCURVE",
"220.56 932.68 OFFCURVE",
"220.56 914.82 CURVE SMOOTH",
"220.56 896.96 OFFCURVE",
"227.79 882.46 OFFCURVE",
"245.56 864.69 CURVE SMOOTH",
"263.33 846.92 OFFCURVE",
"277.83 839.69 OFFCURVE",
"295.69 839.69 CURVE SMOOTH",
"313.55 839.69 OFFCURVE",
"328.05 846.92 OFFCURVE",
"345.82 864.69 CURVE SMOOTH",
"363.59 882.46 OFFCURVE",
"370.82 896.96 OFFCURVE",
"370.82 914.82 CURVE SMOOTH",
"370.82 932.68 OFFCURVE",
"363.59 947.18 OFFCURVE",
"345.82 964.95 CURVE SMOOTH",
"328.05 982.72 OFFCURVE",
"313.55 989.95 OFFCURVE",
"295.69 989.95 CURVE SMOOTH"
);
},
{
closed = 1;
nodes = (
"510.54 989.95 OFFCURVE",
"496.04 982.72 OFFCURVE",
"478.27 964.95 CURVE SMOOTH",
"460.5 947.18 OFFCURVE",
"453.27 932.68 OFFCURVE",
"453.27 914.82 CURVE SMOOTH",
"453.27 896.96 OFFCURVE",
"460.5 882.46 OFFCURVE",
"478.27 864.69 CURVE SMOOTH",
"496.04 846.92 OFFCURVE",
"510.54 839.69 OFFCURVE",
"528.4 839.69 CURVE SMOOTH",
"546.26 839.69 OFFCURVE",
"560.77 846.92 OFFCURVE",
"578.53 864.69 CURVE SMOOTH",
"596.3 882.46 OFFCURVE",
"603.53 896.96 OFFCURVE",
"603.53 914.82 CURVE SMOOTH",
"603.53 932.68 OFFCURVE",
"596.3 947.18 OFFCURVE",
"578.53 964.95 CURVE SMOOTH",
"560.77 982.72 OFFCURVE",
"546.26 989.95 OFFCURVE",
"528.4 989.95 CURVE SMOOTH"
);
},
{
closed = 1;
nodes = (
"153.73 716.93 OFFCURVE",
"35.12 556.93 OFFCURVE",
"35.12 378.93 CURVE SMOOTH",
"35.12 351.58 OFFCURVE",
"37.93 323.79 OFFCURVE",
"43.76 295.97 CURVE SMOOTH",
"82.59 113.26 OFFCURVE",
"240.71 -13.06 OFFCURVE",
"415.5 -13.06 CURVE SMOOTH",
"440.53 -13.06 OFFCURVE",
"465.91 -10.47 OFFCURVE",
"491.32 -5.08 CURVE SMOOTH",
"666.96 32.65 OFFCURVE",
"786.71 191.31 OFFCURVE",
"786.71 368.87 CURVE SMOOTH",
"786.71 396.26 OFFCURVE",
"783.86 424.1 OFFCURVE",
"777.93 452.02 CURVE SMOOTH",
"739.07 634.85 OFFCURVE",
"579.96 762.16 OFFCURVE",
"404.92 762.16 CURVE SMOOTH",
"379.99 762.16 OFFCURVE",
"354.73 759.57 OFFCURVE",
"329.45 754.2 CURVE SMOOTH"
);
},
{
closed = 1;
nodes = (
"363.99 672.26 OFFCURVE",
"379.6 673.9 OFFCURVE",
"394.47 673.9 CURVE SMOOTH",
"526.82 673.9 OFFCURVE",
"599.94 543.63 OFFCURVE",
"626.26 419.78 CURVE SMOOTH",
"633.32 386.55 OFFCURVE",
"637.5 351.66 OFFCURVE",
"637.5 317.36 CURVE SMOOTH",
"637.5 209.45 OFFCURVE",
"596.14 107.37 OFFCURVE",
"473.07 81.21 CURVE SMOOTH",
"456.42 77.64 OFFCURVE",
"440.57 75.96 OFFCURVE",
"425.5 75.96 CURVE SMOOTH",
"293.75 75.96 OFFCURVE",
"221.7 204.59 OFFCURVE",
"195.42 328.21 CURVE SMOOTH",
"188.29 361.74 OFFCURVE",
"184.05 397.11 OFFCURVE",
"184.05 431.93 CURVE SMOOTH",
"184.05 539.98 OFFCURVE",
"224.95 642.71 OFFCURVE",
"347.61 668.78 CURVE SMOOTH"
);
}
);
width = 822;
}
);
leftKerningGroup = C;
note = Odieresis;
rightKerningGroup = D;
unicode = 00D6;
},
{
glyphname = Ograve;
layers = (
{
hints = (
{
horizontal = 1;
place = "{-13.06, 89.02}";
type = Stem;
},
{
horizontal = 1;
place = "{673.9, 88.26}";
type = Stem;
},
{
horizontal = 1;
place = "{807.81, -20}";
target = down;
type = TopGhost;
},
{
place = "{35.12, 148.93}";
type = Stem;
},
{
place = "{637.5, 149.21}";
type = Stem;
}
);
layerId = "6AD408C6-91F3-4F0B-A103-73D10F5280D9";
paths = (
{
closed = 1;
nodes = (
"447.6 810.23 LINE SMOOTH",
"444.27 808.63 OFFCURVE",
"441.28 807.81 OFFCURVE",
"438.18 807.81 CURVE SMOOTH",
"435.99 807.81 OFFCURVE",
"433.74 808.22 OFFCURVE",
"431.29 809.06 CURVE SMOOTH",
"371.56 829.5 OFFCURVE",
"270.48 889.54 OFFCURVE",
"270.48 971.46 CURVE SMOOTH",
"270.48 1006.34 OFFCURVE",
"302.07 1022.36 OFFCURVE",
"340.27 1022.36 CURVE SMOOTH",
"346.51 1022.36 OFFCURVE",
"352.93 1021.93 OFFCURVE",
"359.41 1021.09 CURVE SMOOTH",
"369.46 1019.78 OFFCURVE",
"374.51 1015.19 OFFCURVE",
"377.07 1008.41 CURVE SMOOTH",
"402 942.93 OFFCURVE",
"420.62 908.74 OFFCURVE",
"483.98 827.73 CURVE"
);
},
{
closed = 1;
nodes = (
"153.73 716.93 OFFCURVE",
"35.12 556.93 OFFCURVE",
"35.12 378.93 CURVE SMOOTH",
"35.12 351.58 OFFCURVE",
"37.93 323.79 OFFCURVE",
"43.76 295.97 CURVE SMOOTH",
"82.59 113.26 OFFCURVE",
"240.71 -13.06 OFFCURVE",
"415.5 -13.06 CURVE SMOOTH",
"440.53 -13.06 OFFCURVE",
"465.91 -10.47 OFFCURVE",
"491.32 -5.08 CURVE SMOOTH",
"666.96 32.65 OFFCURVE",
"786.71 191.31 OFFCURVE",
"786.71 368.87 CURVE SMOOTH",
"786.71 396.26 OFFCURVE",
"783.86 424.1 OFFCURVE",
"777.93 452.02 CURVE SMOOTH",
"739.07 634.85 OFFCURVE",
"579.96 762.16 OFFCURVE",
"404.92 762.16 CURVE SMOOTH",
"379.99 762.16 OFFCURVE",
"354.73 759.57 OFFCURVE",
"329.45 754.2 CURVE SMOOTH"
);
},
{
closed = 1;
nodes = (
"363.99 672.26 OFFCURVE",
"379.6 673.9 OFFCURVE",
"394.47 673.9 CURVE SMOOTH",
"526.82 673.9 OFFCURVE",
"599.94 543.63 OFFCURVE",
"626.26 419.78 CURVE SMOOTH",
"633.32 386.55 OFFCURVE",
"637.5 351.66 OFFCURVE",
"637.5 317.36 CURVE SMOOTH",
"637.5 209.45 OFFCURVE",
"596.14 107.37 OFFCURVE",
"473.07 81.21 CURVE SMOOTH",
"456.42 77.64 OFFCURVE",
"440.57 75.96 OFFCURVE",
"425.5 75.96 CURVE SMOOTH",
"293.75 75.96 OFFCURVE",
"221.7 204.59 OFFCURVE",
"195.42 328.21 CURVE SMOOTH",
"188.29 361.74 OFFCURVE",
"184.05 397.11 OFFCURVE",
"184.05 431.93 CURVE SMOOTH",
"184.05 539.98 OFFCURVE",
"224.95 642.71 OFFCURVE",
"347.61 668.78 CURVE SMOOTH"
);
}
);
width = 822;
}
);
leftKerningGroup = C;
note = Ograve;
rightKerningGroup = D;
unicode = 00D2;
},
